<svg
  xmlns="http://www.w3.org/2000/svg"
  id="svg8"
  version="1.1"
  viewBox="0 0 210 297"
  height="297mm"
  width="210mm"
>
  <g id="layer1">
    <g
      transform="matrix(0.35277777,0,0,0.35277777,-684.46134,-3.8690441)"
      id="surface13909"
    >
      <g
        transform="matrix(2.8346457,0,0,2.8346457,1940.3724,14.322008)"
        id="layer1-9"
      >
        <g
          id="surface13909-2"
          transform="matrix(0.35277777,0,0,0.35277777,-684.46134,-3.8690441)"
        >
          <path
            id="path2541"
            d="M 1940.5524,815.93467 V 47.352328 c 0,-19.974012 16.0263,-36.164837 35.7981,-36.164837 h 523.0867 c 19.7718,0 35.8016,16.190825 35.8016,36.164837 V 815.93467 c 0,19.97401 -16.0298,36.16857 -35.8016,36.16857 h -523.0867 c -19.7718,0 -35.7981,-16.19456 -35.7981,-36.16857"
            style={{
              fill: "#fffaf5",
              fillOpacity: 1,
              fillRule: "nonzero",
              stroke: "none",
              strokeWidth: "0.95225036"
            }}
          />
          <path
            id="path2543"
            d="M 2025.1582,721.20867 V 135.11756 c 0,-22.29182 17.8952,-40.366726 39.9692,-40.366726 h 350.2333 c 22.074,0 39.9692,18.074906 39.9692,40.366726 v 586.09111 c 0,22.29545 -17.8952,40.36663 -39.9692,40.36663 h -350.2333 c -22.074,0 -39.9692,-18.07118 -39.9692,-40.36663"
            style={{
              fill: "#5e5e5e",
              fillOpacity: 1,
              fillRule: "nonzero",
              stroke: "none",
              strokeWidth: "0.95225036"
            }}
          />
          <path
            id="path2545"
            d="m 2415.3607,94.735903 h -350.2333 c -22.0961,0 -39.9692,18.074907 -39.9692,40.362987 V 480.81024 L 2455.3299,376.49158 V 135.09889 c 0,-22.28808 -17.8952,-40.362987 -39.9692,-40.362987"
            style={{
              fill: "#5ca8c7",
              fillOpacity: 1,
              fillRule: "nonzero",
              stroke: "none",
              strokeWidth: "0.95225036"
            }}
          />
          <path
            id="path2547"
            d="m 2455.4224,319.83316 c -1.0733,-1.2112 -2.1243,-2.45982 -3.083,-3.76826 -4.1342,-5.57012 -7.1507,-11.81313 -9.005,-18.52355 -1.2732,-4.23175 -2.0764,-8.45611 -2.3465,-12.64306 -0.1111,-1.69345 -0.3554,-3.458 -0.7366,-5.23738 l -0.045,-0.187 c -3.1275,-12.03746 -11.5293,-21.9291 -23.0362,-27.12916 l -0.1555,-0.0708 c -9.7193,-3.80567 -18.1433,-10.27301 -24.3762,-18.71046 -1.1399,-1.52146 -2.2132,-3.17758 -3.4198,-5.22617 l -0.222,-0.38884 c -0.4702,-0.85606 -0.9365,-1.71593 -1.3844,-2.58692 -3.4421,-6.86736 -5.4074,-14.05619 -5.8996,-21.49548 -1.0512,-15.1516 -10.9926,-28.87131 -25.3792,-34.94243 -9.116,-3.85047 -29.1136,-20.9273 -30.9679,-27.64136 -1.2955,-4.23929 -8.6682,-28.22828 -9.0495,-30.01522 0,0 -2.3243,-6.19067 -6.477,-12.519714 -5.7444,2.642994 -11.755,2.901004 -17.788,1.753264 -3.5272,1.14019 -7.3025,1.88417 -11.0813,2.67668 -9.0458,1.8879 -18.1619,3.39445 -27.1224,5.71971 -14.5236,3.76825 -27.5481,9.27484 -42.6971,10.37388 -4.1565,0.3028 -6.2551,5.67856 -9.8526,4.48229 l -16.8256,5.63367 -4.064,2.31407 c 1.3399,2.41494 7.706,-2.8299 9.2493,-0.74389 6.7917,9.15149 10.9482,23.79826 21.3819,28.11986 9.9191,4.11595 17.4474,12.66929 20.153,22.88986 0.2887,1.46921 0.4922,2.84492 0.5811,4.21317 0.3109,4.71034 1.1843,9.46548 2.6131,14.12721 2.0541,7.4655 5.4963,14.44876 10.1005,20.74412 6.6806,9.04679 15.6598,16.11599 25.9158,20.44879 11.977,5.06166 20.2863,16.42998 21.1375,28.96472 0.559,8.3739 2.7685,16.4674 6.5659,24.05253 0.5589,1.1178 1.0956,2.08601 1.6323,3.04676 l 0.2443,0.42243 c 1.3213,2.26172 2.5723,4.17948 3.8456,5.88795 6.9915,9.46175 16.4443,16.72906 27.3443,21.00951 9.364,4.26916 16.4667,12.63186 19.0612,22.40388 0.2887,1.44299 0.4885,2.85986 0.5811,4.20944 0.3332,4.71781 1.2065,9.46921 2.6131,14.13094 1.4952,5.39815 3.9307,10.901 6.7917,15.71978 l 95.1134,-4.03746 0.089,-57.47714"
            style={{
              fill: "#f53535",
              fillOpacity: 1,
              fillRule: "nonzero",
              stroke: "none",
              strokeWidth: "0.95225036"
            }}
          />
          <path
            id="path2549"
            d="m 2407.3476,351.0708 c -4.1121,-5.5888 -7.1507,-11.80942 -9.0049,-18.52347 -1.2733,-4.23556 -2.0543,-8.45994 -2.3467,-12.64316 -0.111,-1.70464 -0.3553,-3.41684 -0.7143,-5.23364 l -0.044,-0.19063 c -3.1497,-12.03757 -11.5514,-21.92548 -23.0326,-27.12925 l -0.1813,-0.0708 c -9.7193,-3.80185 -18.1396,-10.27302 -24.3761,-18.71047 -1.1141,-1.5028 -2.2318,-3.21118 -3.394,-5.22244 l -0.2479,-0.3963 c -0.4664,-0.85232 -0.9364,-1.71594 -1.3842,-2.58692 l -0.089,-0.17571 c -3.3273,-6.68419 -5.3186,-13.87676 -5.833,-21.31603 -1.0031,-15.1516 -10.9668,-28.86758 -25.357,-34.94244 -9.1159,-3.85047 -17.0921,-10.13463 -23.0363,-18.17578 -1.251,-1.701 -2.3909,-3.46545 -3.4384,-5.27862 -1.8542,1.4318 -3.9787,2.52337 -6.1883,3.19634 1.251,2.15703 2.5909,4.25797 4.0639,6.26923 6.7029,9.04678 15.6634,16.11599 25.9194,20.44497 11.9957,5.06549 20.2863,16.43007 21.1339,28.96481 0.5811,8.38136 2.7944,16.47113 6.5918,24.05626 0.5589,1.1177 1.0734,2.08974 1.6323,3.05049 l 0.2664,0.44856 c 1.2955,2.22057 2.5243,4.13834 3.7976,5.85427 6.9952,9.46547 16.4666,16.72915 27.348,21.01324 9.3603,4.27299 16.4889,12.63196 19.0797,22.40024 0.2924,1.47294 0.4923,2.85239 0.5589,4.21307 0.3368,4.71409 1.2066,9.46558 2.6131,14.12731 2.08,7.46541 5.5184,14.44121 10.1227,20.74776 3.8641,5.21881 8.4906,9.75344 13.6723,13.51041 l 9.3196,-2.30651 c -6.7953,-3.82434 -12.758,-9.05061 -17.4512,-15.39459 z m 28.1514,-17.41697 c -4.1121,-5.57012 -7.1508,-11.8094 -8.9829,-18.51972 -1.2954,-4.23557 -2.0764,-8.45994 -2.3688,-12.64317 -0.1111,-1.69716 -0.3552,-3.45798 -0.7143,-5.23736 l -0.045,-0.18691 c -3.1498,-12.03756 -11.5516,-21.92547 -23.0326,-27.13299 l -0.1813,-0.067 c -9.7194,-3.80567 -18.1396,-10.27674 -24.3762,-18.71046 -1.1362,-1.52146 -2.2096,-3.18132 -3.3939,-5.22618 l -0.2481,-0.39257 c -0.4662,-0.84858 -0.9363,-1.7121 -1.3621,-2.58318 -3.4384,-6.86736 -5.4295,-14.05993 -5.9182,-21.49921 -1.0289,-15.1516 -10.9925,-28.86758 -25.3827,-34.94244 -9.116,-3.85046 -17.07,-10.13463 -23.0363,-18.17577 -1.5619,-2.11597 -2.9684,-4.32161 -4.1972,-6.60572 -1.7655,1.50281 -3.8233,2.68415 -6.0108,3.47665 1.3843,2.52711 2.9499,4.972 4.6673,7.31975 6.6807,9.04306 15.6412,16.11599 25.9195,20.44496 11.9734,5.06176 20.2863,16.43008 21.1116,28.96481 0.5811,8.37764 2.7945,16.46741 6.5919,24.05254 l 0.089,0.1869 c 0.4701,0.92707 0.9846,1.89538 1.5435,2.85986 l 0.2442,0.42242 c 1.3177,2.258 2.5464,4.18322 3.8197,5.88786 7.0174,9.46549 16.4666,16.72915 27.3482,21.00951 9.3603,4.27299 16.4888,12.63569 19.0797,22.4077 0.2924,1.43927 0.4922,2.85613 0.581,4.20563 0.3146,4.7178 1.1845,9.47303 2.6131,14.13102 2.0356,7.45795 5.474,14.4749 10.1005,20.74404 6.5919,8.90476 15.3933,15.88056 25.4494,20.22829 v -7.69356 c -7.7983,-3.89535 -14.6344,-9.61879 -19.9086,-16.72541 z m -63.5201,20.83763 c -1.2732,-4.23557 -2.0763,-8.45993 -2.3465,-12.64316 -0.111,-1.69717 -0.3553,-3.45799 -0.7143,-5.2411 l -0.067,-0.18701 c -3.1275,-12.03746 -11.5292,-21.92537 -23.0362,-27.12915 l -0.1555,-0.067 c -9.7194,-3.80568 -18.1432,-10.27675 -24.3761,-18.71047 -1.14,-1.52147 -2.2096,-3.18505 -3.4161,-5.22618 l -0.2259,-0.39256 c -0.4664,-0.85232 -0.9364,-1.71584 -1.3843,-2.59065 -3.4421,-6.86363 -5.4074,-14.05246 -5.9219,-21.48801 -1.0252,-15.15534 -10.9703,-28.87131 -25.3569,-34.94618 -9.1382,-3.85046 -17.0921,-10.13462 -23.0362,-18.17577 -4.1306,-5.59262 -7.1692,-11.8095 -9.0014,-18.52356 -0.2924,-0.93462 -0.5366,-1.87288 -0.7846,-2.8075 -2.4354,0.34395 -4.893,0.1645 -7.2396,-0.60187 0.3812,1.80187 0.8291,3.59628 1.3658,5.37576 2.0542,7.4655 5.4963,14.44867 10.0969,20.74786 6.7029,9.03932 15.6634,16.11225 25.9195,20.44496 11.9734,5.06175 20.2863,16.43007 21.1338,28.96481 0.5812,8.3739 2.7722,16.4674 6.5697,24.05253 0.5811,1.1177 1.0955,2.08601 1.6322,3.04676 l 0.2664,0.42243 c 1.2955,2.26172 2.5465,4.17948 3.8196,5.88786 6.9954,9.46174 16.4445,16.72541 27.3482,21.0095 9.3603,4.27299 16.4889,12.63196 19.0575,22.40398 0.2924,1.43926 0.4922,2.85986 0.5811,4.20935 0.3368,4.7178 1.2066,9.47303 2.6131,14.13103 2.0578,7.45794 5.474,14.48236 10.1228,20.74786 0.3108,0.42615 0.6476,0.8261 0.9807,1.24479 l 7.4876,-1.85422 c -1.0289,-1.15886 -2.0134,-2.34019 -2.9277,-3.58508 -4.1342,-5.5664 -7.1507,-11.81315 -9.0051,-18.51974"
            style={{
              fill: "#000000",
              fillOpacity: 1,
              fillRule: "nonzero",
              stroke: "none",
              strokeWidth: "0.95225036"
            }}
          />
          <path
            id="path2551"
            d="m 2296.3709,240.67364 c -8.5942,-8.13839 -18.9539,-13.17402 -29.7466,-15.1516 -13.8831,-2.54204 -24.909,-13.20379 -28.8619,-26.88617 -2.8832,-9.88418 -8.3204,-19.15155 -16.2927,-26.70309 -5.5037,-5.19996 -11.7143,-9.11033 -18.3134,-11.78702 -4.1454,-1.82053 -8.4684,-3.15509 -12.8507,-3.95889 -1.5693,-0.28787 -3.1164,-0.69901 -4.6227,-1.18881 -5.6111,-2.19808 -10.5523,-5.76823 -14.4643,-10.2954 -0.1518,0.31026 -0.2998,0.61689 -0.4738,0.92716 -4.2749,7.38693 -16.0335,11.83935 -23.4249,6.20185 -9.9118,-7.56264 -13.2207,-16.93098 -15.434,-28.85628 -1.8468,-9.83182 -6.8768,-18.5983 -9.2197,-28.224556 h -57.5574 c -22.0517,0 -39.958,18.074906 -39.958,40.370456 v 2.31407 c 10.9851,4.25049 19.5386,13.50284 22.8475,25.18153 2.8387,10.02245 8.298,19.42065 16.3777,27.06933 8.3833,7.92162 18.4432,12.87495 28.9287,14.95713 l 1.3323,0.16825 c 0.174,0.0335 0.3442,0.0861 0.5182,0.11963 13.9906,2.72903 25.2311,13.19268 29.1433,27.02455 2.8388,10.01873 8.3202,19.42076 16.3999,27.06561 8.3833,7.92162 18.4209,12.87494 28.9064,14.96096 l 144.9501,18.06744 c 2.4094,-18.42259 -3.716,-37.70506 -18.184,-51.37615"
            style={{
              fill: "#f0b83a",
              fillOpacity: 1,
              fillRule: "nonzero",
              stroke: "none",
              strokeWidth: "0.95225036"
            }}
          />
          <path
            id="path2553"
            d="m 2240.3273,161.5701 33.7291,-13.19259 47.6603,-18.63945 21.1227,67.85475 c 1.8617,5.8805 -1.4324,12.16839 -7.2803,13.93657 -6.4326,1.94026 -4.4857,1.52903 -4.4857,1.52903 l 1.151,45.88077 c 0.3034,11.78328 -9.079,21.49175 -20.7341,21.49175 h -97.7856 l 16.3334,-72.95385 10.2892,-45.90698"
            style={{
              fill: "#fadcc5",
              fillOpacity: 1,
              fillRule: "nonzero",
              stroke: "none",
              strokeWidth: "0.95225036"
            }}
          />
          <path
            id="path2555"
            d="m 2269.4113,127.04272 -47.4271,-8.62063 c 0.045,-0.46731 0.089,-0.92343 0.1073,-1.39437 l -1.1732,-0.0488 c -7.0323,4.93457 -16.1595,7.64484 -23.8321,9.90657 -9.2753,2.74022 -18.7428,5.21498 -27.7627,8.81882 -8.8458,3.5402 -16.4148,7.27477 -26.0749,7.9888 -3.0535,0.22806 -5.7479,-0.48224 -8.0353,-1.81306 1.4954,6.34023 2.2245,10.88607 2.2245,10.88607 0.4884,1.76072 11.2405,45.51069 12.0103,49.87335 1.3879,6.82621 -8.6571,31.23763 -15.0268,38.87138 -10.0636,12.04492 -12.7137,28.84135 -6.7732,42.79658 2.9055,6.84871 4.4228,14.15343 4.4673,21.8469 0,0.9795 -0.021,1.96265 -0.067,2.94206 l -0.018,0.45238 c -0.1518,2.37015 -0.3442,4.344 -0.6626,6.21689 -1.7321,10.38144 -6.3068,20.03009 -13.2318,27.89553 l -0.1258,0.13838 c -7.8651,9.93279 -10.8594,22.60208 -8.2093,34.76664 l 0.045,0.18317 c 0.47,1.75326 1.0696,3.43177 1.7321,4.99439 1.6434,3.85429 2.8425,7.97397 3.6087,12.3329 1.3917,6.82247 1.5397,13.76832 0.3664,20.63195 -1.6471,9.89911 -5.8775,19.16275 -12.2473,26.79651 -5.0224,6.01495 -8.2092,13.36082 -9.3825,20.80011 l 133.1054,-32.03014 c 0.3627,-5.60755 0.045,-11.6337 -1.0696,-17.12162 -0.8328,-4.79629 -2.2209,-9.43563 -4.0603,-13.77589 -0.533,-1.24479 -1.0031,-2.59438 -1.3879,-4.01125 -2.1171,-9.88417 0.4256,-20.60946 6.8176,-28.72546 7.7577,-8.83748 12.8875,-19.66375 14.8343,-31.31237 0.3627,-2.10477 0.5959,-4.38515 0.7477,-7.00193 l 0.018,-0.49353 c 0.045,-1.1065 0.086,-2.20564 0.086,-3.46173 -0.062,-8.49726 -1.7507,-16.71785 -5.0411,-24.4338 -4.8967,-11.53657 -2.6723,-25.4806 5.7073,-35.51436 7.1581,-8.59067 11.9438,-19.01325 13.8054,-30.14605 1.2399,-7.72716 1.1549,-15.52905 -0.4071,-23.11791 -0.8328,-4.80012 -2.2022,-9.43563 -4.0602,-13.77589 -0.5329,-1.25608 -0.9845,-2.56825 -1.3879,-4.01124 -2.2244,-10.3403 0.6181,-21.42447 7.5873,-29.66382 7.3063,-8.65048 13.8907,-14.15706 35.7981,-25.51045 2.2873,-1.18881 -21.0525,-10.20574 -20.9451,-12.97209 l -4.6599,-0.18318"
            style={{
              fill: "#f53535",
              fillOpacity: 1,
              fillRule: "nonzero",
              stroke: "none",
              strokeWidth: "0.95225036"
            }}
          />
          <path
            id="path2557"
            d="m 2209.3743,224.50894 c 0.4182,-2.47849 0.6735,-4.96453 0.7772,-7.45421 -2.2726,0.41869 -4.6302,0.42615 -6.9436,0.0153 -0.1072,2.09348 -0.3367,4.19069 -0.655,6.2767 -1.6619,9.89537 -5.9108,19.16275 -12.288,26.79649 -10.0377,12.0412 -12.6877,28.84136 -6.7547,42.79285 2.9055,6.84871 4.4192,14.15344 4.46,21.64506 v 0.19811 c 0,0.97951 -0.018,1.96265 -0.062,2.94589 l -0.019,0.45602 c -0.1481,2.329 -0.359,4.35893 -0.6737,6.21315 -1.7284,10.38517 -6.2919,20.03009 -13.2391,27.89936 l -0.1036,0.13829 c -7.8688,9.92906 -10.8593,22.60208 -8.2278,34.7629 l 0.041,0.19064 c 0.507,1.78694 1.0733,3.41685 1.7284,4.99076 1.6397,3.85046 2.861,7.97013 3.6382,12.32906 1.3881,6.82995 1.4954,13.75713 0.3592,20.63196 -1.3066,7.80936 -4.2305,15.20758 -8.5461,21.7422 l 9.3233,-2.24296 c 2.9239,-5.73837 4.9892,-11.91038 6.0625,-18.33292 1.24,-7.73462 1.1549,-15.52905 -0.3812,-23.11791 -0.8624,-4.80012 -2.2281,-9.43563 -4.0824,-13.77589 -0.5256,-1.25235 -0.9882,-2.56442 -1.3879,-4.01124 -2.106,-9.88418 0.4404,-20.60947 6.8398,-28.72546 7.7429,-8.83748 12.8764,-19.66375 14.8122,-31.31238 0.359,-2.11596 0.5922,-4.39261 0.7365,-6.9646 l 0.044,-0.52339 c 0.041,-1.11023 0.086,-2.2131 0.062,-3.46919 -0.041,-8.49726 -1.747,-16.71785 -5.0077,-24.43381 -4.9264,-11.54029 -2.6723,-25.4806 5.6813,-35.51435 7.1767,-8.59067 11.9327,-19.01326 13.8055,-30.14606 z m -32.9149,-2.49715 c 0.4628,-2.88225 0.7365,-5.77579 0.8217,-8.66178 -2.2947,0.30281 -4.6487,0.19811 -6.9212,-0.32146 -0.066,2.60931 -0.3184,5.21498 -0.7366,7.81683 -1.6432,9.89547 -5.8923,19.16285 -12.2695,26.79649 -10.0375,12.04129 -12.7098,28.84136 -6.7768,42.79295 2.9239,6.84861 4.4191,14.15334 4.4599,21.85063 0.021,0.97942 -0.018,1.95892 -0.062,2.93834 l -0.018,0.4561 c -0.1258,2.37006 -0.3368,4.34391 -0.6551,6.21689 -1.747,10.38134 -6.3106,20.03009 -13.2355,27.8918 l -0.1037,0.13829 c -7.8724,9.93279 -10.8814,22.60581 -8.2278,34.76673 l 0.041,0.1869 c 0.4849,1.75326 1.0734,3.43177 1.7248,4.99439 1.6434,3.85057 2.8611,7.97014 3.642,12.3328 1.3879,6.81876 1.5138,13.76843 0.3554,20.63197 -1.6619,9.89546 -5.8887,19.16284 -12.2658,26.79649 -1.9358,2.32527 -3.5976,4.82997 -4.9893,7.45804 l 9.8267,-2.36641 c 0.1703,-0.19065 0.2961,-0.39249 0.4664,-0.57939 7.1728,-8.59076 11.929,-19.01326 13.8017,-30.14606 1.2844,-7.71968 1.1363,-15.53287 -0.3997,-23.118 -0.8402,-4.79629 -2.2096,-9.43179 -4.0602,-13.77206 -0.5256,-1.24862 -0.9882,-2.59438 -1.388,-4.01124 -2.1281,-9.88418 0.4183,-20.60957 6.8177,-28.72919 7.7651,-8.83749 12.8765,-19.66375 14.8344,-31.31247 0.359,-2.10468 0.5885,-4.38506 0.7366,-7.00193 l 0.021,-0.48971 c 0.062,-1.11033 0.086,-2.2131 0.086,-3.25242 v -0.2093 c -0.062,-8.50099 -1.7469,-16.72169 -5.0299,-24.43764 -4.9263,-11.54029 -2.6722,-25.48059 5.7036,-35.51425 7.1544,-8.59077 11.9289,-19.01327 13.8018,-30.14233 z m 60.2074,-2.20191 c 0.1037,3.62624 -0.148,7.26358 -0.7365,10.88235 -1.6618,9.8991 -5.8922,19.16648 -12.2694,26.80022 -10.06,12.0412 -12.71,28.83763 -6.777,42.79286 2.9055,6.84871 4.4193,14.15343 4.4638,21.84326 0,0.97941 -0.021,1.96629 -0.062,2.94579 l -0.023,0.45603 c -0.1258,2.36641 -0.3368,4.34026 -0.6515,6.21315 -1.7469,10.38517 -6.3142,20.03009 -13.2391,27.89562 l -0.1258,0.13829 c -7.8466,9.93279 -10.8556,22.60581 -8.2278,34.76663 l 0.062,0.18318 c 0.4848,1.75335 1.0548,3.4356 1.7284,4.99822 1.6397,3.85046 2.861,7.97014 3.6198,12.32907 1.3879,6.82247 1.536,13.77205 0.3775,20.63195 -0.2517,1.52894 -0.6107,3.0393 -0.9882,4.53464 l 7.4912,-1.80187 c 0.1036,-0.5234 0.2295,-1.04306 0.3147,-1.56645 1.3028,-7.71595 1.1584,-15.53651 -0.3776,-23.11791 -0.8624,-4.79628 -2.2096,-9.43188 -4.0639,-13.77579 -0.5255,-1.24489 -1.0104,-2.59447 -1.388,-4.00751 -2.1245,-9.88801 0.422,-20.6133 6.8176,-28.73302 7.7466,-8.83366 12.8803,-19.65992 14.8159,-31.30865 0.3591,-2.10467 0.6108,-4.38515 0.7366,-7.00565 l 0.041,-0.48597 c 0.062,-1.1066 0.086,-2.21311 0.062,-3.46172 -0.041,-8.50101 -1.7248,-16.72169 -5.0078,-24.43764 -4.9226,-11.53657 -2.6945,-25.48061 5.6814,-35.51436 7.1766,-8.59067 11.9548,-19.01699 13.8054,-30.14605 0.6737,-4.03364 0.9475,-8.08977 0.8624,-12.12341 -0.1036,-3.69352 -7.0286,-3.18888 -6.9435,0.0747"
            style={{
              fill: "#000000",
              fillOpacity: 1,
              fillRule: "nonzero",
              stroke: "none",
              strokeWidth: "0.95225036"
            }}
          />
          <path
            id="path2559"
            d="m 2025.1582,480.81024 0.892,-0.19438 429.2797,-103.30556 c -22.9696,-58.08647 -80.3419,-96.87937 -144.6205,-96.87937 h -130.7005 c -83.8469,0 -152.1045,64.90532 -154.8507,145.97888 v 54.40043"
            style={{
              fill: "#000000",
              fillOpacity: 1,
              fillRule: "nonzero",
              stroke: "none",
              strokeWidth: "0.95225036"
            }}
          />
          <path
            id="path2561"
            d="m 2401.5293,108.10047 c 10.4781,9.73468 14.6347,24.59841 10.7927,38.44894 -2.7944,10.03749 -3.0164,20.9385 -0.1147,31.73117 3.0165,11.18141 9.005,20.72537 16.8478,28.05258 l 1.0512,0.85605 c 0.1333,0.12336 0.2664,0.25419 0.3774,0.37381 10.5004,9.7347 14.6346,24.60206 10.7928,38.44896 -2.7945,10.03749 -3.0165,20.93849 -0.111,31.73107 2.6796,9.86551 7.6393,18.45254 14.1644,25.37226 V 135.09889 c 0,-22.28808 -17.8952,-40.362987 -39.9692,-40.362987 h -24.5315 c 2.9942,5.054203 6.5881,9.529027 10.7001,13.364567"
            style={{
              fill: "#000000",
              fillOpacity: 1,
              fillRule: "nonzero",
              stroke: "none",
              strokeWidth: "0.95225036"
            }}
          />
          <path
            id="path2563"
            d="m 2310.6501,94.765765 -30.5386,-0.0096 c -1.2918,2.601935 -3.3347,4.99075 -6.3512,6.904785 -15.6006,9.92532 -34.4545,15.16643 -52.9864,16.00009 l 19.5645,43.91065 81.3968,-31.82083 -11.0851,-34.987234"
            style={{
              fill: "#f53535",
              fillOpacity: 1,
              fillRule: "nonzero",
              stroke: "none",
              strokeWidth: "0.95225036"
            }}
          />
          <path
            id="path2565"
            d="m 2226.0555,347.82219 h 51.1025 c 29.8206,0 54.0152,-24.43007 54.0152,-54.5612 l -10.5743,-12.83006 c 0,0 0.5183,0 -4.5784,0 h -130.7078 c -8.2241,0 -16.2742,0.64674 -24.1503,1.85422 0,36.19479 29.047,65.53704 64.8931,65.53704"
            style={{
              fill: "#000000",
              fillOpacity: 1,
              fillRule: "nonzero",
              stroke: "none",
              strokeWidth: "0.95225036"
            }}
          />
          <path
            id="path2567"
            d="m 2184.6576,442.44359 270.6723,-65.13329 c -21.7852,-55.07713 -74.5347,-93.13724 -134.7458,-96.87937 l -135.9265,162.01266"
            style={{
              fill: "#5ca8c7",
              fillOpacity: 1,
              fillRule: "nonzero",
              stroke: "none",
              strokeWidth: "0.95225036"
            }}
          />
          <path
            id="path2569"
            d="m 2266.9649,94.735903 c 0.7957,2.471022 -0.4701,5.155171 -2.9165,6.029977 -2.4688,0.87472 -5.1484,-0.38884 -6.0738,-2.844927 l -1.177,-3.18505 h -11.4144 l 2.2503,6.041177 c 0.9253,2.51963 -0.3627,5.32341 -2.8721,6.22435 -2.4465,0.87481 -5.1521,-0.38884 -6.0514,-2.84493 l -3.4977,-9.420597 h -11.433 l 4.5451,12.272987 c 0.9252,2.51963 -0.3628,5.32714 -2.8722,6.22808 -2.4464,0.87481 -5.1483,-0.39248 -6.0514,-2.84857 l -5.8146,-15.652497 h -11.4146 l 6.8658,18.508537 c 0.9438,2.52336 -0.3406,5.32714 -2.8721,6.22808 -2.4243,0.87481 -5.1299,-0.39248 -6.0292,-2.84857 l -8.1316,-21.884316 h -11.4144 l 9.1826,24.740446 c 0.9438,2.51963 -0.3665,5.32713 -2.8759,6.22808 -2.4464,0.87471 -5.1483,-0.39258 -6.0478,-2.84867 l -10.4485,-28.119856 h -11.3922 l 11.4774,30.975986 c 0.9438,2.51963 -0.3442,5.32714 -2.8758,6.22435 -2.4243,0.87471 -5.1261,-0.38884 -6.0292,-2.84493 l -12.7655,-34.351667 h -11.4109 l 13.8167,37.207797 c 0.9438,2.51963 -0.3664,5.3234 -2.8758,6.22435 -2.4465,0.8748 -5.13,-0.38875 -6.0515,-2.84484 l -15.0602,-40.587307 h -11.3071 l 21.4966,58.022927 173.2235,-58.030397 h -43.6816"
            style={{
              fill: "#000000",
              fillOpacity: 1,
              fillRule: "nonzero",
              stroke: "none",
              strokeWidth: "0.95225036"
            }}
          />
          <path
            id="path2571"
            d="m 2258.3374,224.89404 -109.6628,-13.14033 0.8254,-6.94957 108.3488,12.98328 c 0,0 0.2961,2.41877 0.359,3.22993 0.066,0.96822 0.1296,3.87669 0.1296,3.87669"
            style={{
              fill: "#000000",
              fillOpacity: 1,
              fillRule: "nonzero",
              stroke: "none",
              strokeWidth: "0.95225036"
            }}
          />
          <path
            id="path2573"
            d="m 2410.0606,315.38456 -0.045,0.16451 c -1.6581,4.5757 -2.787,9.27857 -3.3607,13.97017 -0.1555,1.34585 -0.4182,2.74769 -0.7957,4.17202 -3.0943,9.61879 -10.652,17.58893 -20.2197,21.34972 -11.0961,3.69725 -20.9303,10.4449 -28.3993,19.52163 -1.3695,1.63363 -2.7167,3.48785 -4.1305,5.67482 l -0.2666,0.40751 c -0.618,0.93452 -1.1917,1.87288 -1.7024,2.77381 l -0.089,0.18318 c -3.6678,6.43001 -6.1403,13.31977 -7.3802,20.50861 l 7.4468,-1.78695 c 1.2178,-5.31595 3.2053,-10.44862 5.9885,-15.35707 0.4887,-0.84869 0.9957,-1.68234 1.525,-2.50471 l 0.2665,-0.38137 c 1.2806,-1.97758 2.4538,-3.57763 3.6678,-5.03554 6.6511,-8.0935 15.4266,-14.10108 25.3273,-17.37953 l 0.1555,-0.0593 c 11.755,-4.58326 20.6601,-14.00768 24.439,-25.86197 l 0.044,-0.18317 c 0.4664,-1.757 0.7958,-3.50661 1.0178,-5.19259 0.396,-3.36449 1.1474,-6.73645 2.2097,-10.10477 -1.858,-1.67105 -3.7568,-3.29721 -5.6999,-4.87849 z m -49.1926,27.32362 c 11.7328,-4.58325 20.6378,-14.00767 24.4168,-25.85823 l 0.066,-0.19065 c 0.4664,-1.79066 0.7736,-3.49157 0.9957,-5.18884 0.4182,-3.57753 1.2584,-7.17018 2.4095,-10.75143 -2.0357,-1.16642 -4.0898,-2.26918 -6.1884,-3.34209 -1.525,4.35136 -2.5872,8.80006 -3.1164,13.24493 -0.1555,1.35331 -0.4182,2.72156 -0.7958,4.17575 -3.0942,9.61506 -10.6298,17.58147 -20.2196,21.34973 -11.0963,3.69351 -20.9303,10.44115 -28.3993,19.51789 -1.3695,1.64493 -2.7167,3.49541 -4.1084,5.64124 l -0.2887,0.43736 c -0.5959,0.9308 -1.1696,1.87288 -1.7914,2.96072 -4.1971,7.36837 -6.8287,15.33105 -7.8428,23.66753 -1.5027,12.47118 -10.3893,23.37592 -22.6291,27.79093 -0.089,0.0373 -0.1999,0.09 -0.3109,0.12709 l 19.3387,-4.65426 c 5.6776,-6.18693 9.4566,-14.00385 10.4744,-22.41517 0.9032,-7.40196 3.246,-14.47863 6.9397,-20.97209 l 0.086,-0.17197 c 0.4886,-0.85242 1.0178,-1.68599 1.547,-2.51218 l 0.2443,-0.38137 c 1.2807,-1.94763 2.4762,-3.59255 3.6679,-5.03554 6.6733,-8.08976 15.4267,-14.10108 25.3274,-17.37953 z m -56.1324,2.04486 c 0.4849,-0.84859 0.992,-1.68598 1.5249,-2.50843 l 0.2406,-0.38138 c 1.3065,-1.97758 2.4761,-3.57753 3.6678,-5.03554 6.6769,-8.0935 15.4266,-14.10099 25.3273,-17.37954 l 0.1776,-0.0593 c 11.7552,-4.58326 20.6602,-14.01141 24.4207,-25.86197 l 0.062,-0.18318 c 0.4441,-1.70463 0.7735,-3.39817 0.9733,-5.03554 -2.2095,-0.74762 -4.4414,-1.45792 -6.6954,-2.1084 -0.044,0.36635 -0.111,0.73269 -0.1554,1.10277 -0.1554,1.34586 -0.4405,2.74769 -0.7958,4.17202 -3.0942,9.6188 -10.6521,17.58894 -20.2196,21.34973 -11.1147,3.69351 -20.9266,10.44125 -28.4215,19.52163 -1.3472,1.63373 -2.6945,3.48795 -4.1084,5.67483 l -0.2887,0.40749 c -0.5959,0.9309 -1.1695,1.86915 -1.7877,2.95326 -4.1786,7.37211 -6.8286,15.33478 -7.8243,23.67127 -1.5027,12.46745 -10.3855,23.37592 -22.6291,27.78719 -10.4744,3.77946 -19.8014,10.35896 -26.941,19.03566 -4.7931,5.86174 -8.5054,12.4263 -10.9593,19.51789 l 8.2204,-1.97758 c 2.0764,-4.69905 4.7745,-9.06917 8.0649,-13.06175 6.3438,-7.7085 14.6308,-13.56276 23.9579,-16.91979 14.6715,-5.29355 25.3458,-18.46001 27.1593,-33.53304 0.8846,-7.40186 3.2275,-14.47863 7.0286,-21.14779"
            style={{
              fill: "#000000",
              fillOpacity: 1,
              fillRule: "nonzero",
              stroke: "none",
              strokeWidth: "0.95225036"
            }}
          />
          <path
            id="path2575"
            d="m 2176.3484,369.88222 c 1.2694,0 2.0172,-0.045 2.0172,-0.045 0,0 -1.9987,-22.84507 -17.2217,-36.05641 -15.2082,-13.21134 -37.8781,-11.78701 -37.8781,-11.78701 0,0 2.0172,22.84879 17.2217,36.0564 1.3325,1.15513 2.7055,2.19071 4.1379,3.13271 -1.2472,-0.0632 -2.4724,-0.1159 -3.7234,-0.1159 -5.1372,0 -10.1894,0.50846 -15.1194,1.50664 l 0.041,0.0785 c -6.3031,-12.27681 -21.0525,-17.60023 -33.6993,-11.85812 l -39.8953,18.10859 18.4949,20.02637 2.8277,27.88433 39.8953,-18.10859 c 11.3996,-5.17383 17.2845,-17.60759 14.7492,-29.46189 4.1601,-0.7701 8.4018,-1.17761 12.7062,-1.17761 23.0288,0 44.4921,11.49541 57.4538,30.7442 l 5.7404,-3.94024 c -7.1987,-10.67668 -16.7664,-19.17767 -27.7478,-24.98715"
            style={{
              fill: "#f53535",
              fillOpacity: 1,
              fillRule: "nonzero",
              stroke: "none",
              strokeWidth: "0.95225036"
            }}
          />
          <path
            id="path2577"
            d="m 2315.1545,411.04517 -142.2519,32.40405 11.5996,-31.98534 59.4411,-65.92953 71.2112,65.51082"
            style={{
              fill: "#000000",
              fillOpacity: 1,
              fillRule: "nonzero",
              stroke: "none",
              strokeWidth: "0.95225036"
            }}
          />
          <path
            id="path2579"
            d="m 2236.1376,363.5794 -0.1296,0.1046 v -0.14575 l -53.6489,-6.31039 c 3.2202,17.66378 4.7339,34.88636 4.6488,51.26399 l 33.777,1.08038 17.7621,19.93669 50.7695,-12.21317 -53.1789,-53.71635"
            style={{
              fill: "#fadcc5",
              fillOpacity: 1,
              fillRule: "nonzero",
              stroke: "none",
              strokeWidth: "0.95225036"
            }}
          />
          <path
            id="path2581"
            d="m 2227.7765,389.88609 -41.6385,-4.89343 c 0.1888,2.38126 0.3554,4.74768 0.5035,7.10653 l 40.3393,4.74403 c 1.8876,0.22424 3.605,-1.15521 3.8382,-3.07298 0.2072,-1.9215 -1.1549,-3.65983 -3.0425,-3.88415 z m -43.4853,-21.1366 c 0.3369,2.39628 0.6514,4.7851 0.9438,7.15897 l 43.5482,5.12522 c 1.9099,0.22059 3.631,-1.1514 3.8605,-3.07289 0.2109,-1.9215 -1.1548,-3.65983 -3.0424,-3.88042 l -45.3101,-5.33088"
            style={{
              fill: "#000000",
              fillOpacity: 1,
              fillRule: "nonzero",
              stroke: "none",
              strokeWidth: "0.95225036"
            }}
          />
          <path
            id="path2583"
            d="m 1996.3221,72.642194 c 2.5946,-4.542006 3.6568,-11.087916 3.6568,-16.942184 0,-5.854269 -1.0622,-12.400078 -3.6568,-16.94218 -2.6722,-4.620576 -6.4067,-7.394492 -12.499,-7.394492 -6.0958,0 -9.8488,2.773916 -12.5026,7.394492 -2.5946,4.542102 -3.6568,11.087911 -3.6568,16.94218 0,5.854268 1.0622,12.400178 3.6568,16.942184 2.6538,4.624405 6.4068,7.394493 12.5026,7.394493 6.0923,0 9.8268,-2.770088 12.499,-7.394493 z m 21.0524,22.800277 c -4.2674,1.618702 -8.7089,2.306508 -12.9727,2.306508 -4.1083,0 -9.0605,-0.687806 -13.8757,-4.463534 -4.2675,-3.390711 -6.0146,-7.394489 -6.703,-9.551512 -7.865,0.306533 -13.7203,-3.080448 -17.2401,-6.852438 -4.7153,-5.087889 -7.0138,-13.095447 -7.0138,-21.181485 0,-7.626187 2.0616,-15.787059 7.0138,-21.177749 5.189,-5.622479 11.5995,-6.856074 17.2401,-6.856074 5.6407,0 12.0474,1.233595 17.2181,6.856074 4.9707,5.39069 7.0359,13.476724 7.0359,21.177749 0,7.626283 -2.0652,15.865539 -7.0359,21.181485 -1.673,1.846757 -4.4822,4.078618 -8.5313,5.465528 0.6107,2.695345 1.9838,5.543907 4.1083,7.70093 2.9868,3.084179 6.3475,4.007513 10.219,4.007513 2.3022,0 5.7997,-0.310265 10.5373,-2.310242 v 3.697247"
            style={{
              fill: "#000000",
              fillOpacity: 1,
              fillRule: "nonzero",
              stroke: "none",
              strokeWidth: "0.95225036"
            }}
          />
          <path
            id="path2585"
            d="m 2479.4581,790.64854 c -2.5909,4.542 -3.6568,11.08791 -3.6568,16.94218 0,5.85427 1.0659,12.40381 3.6568,16.94964 2.6797,4.61312 6.403,7.38703 12.5137,7.38703 6.0884,0 9.8379,-2.77391 12.4953,-7.38703 2.613,-4.54583 3.6567,-11.09537 3.6567,-16.94964 0,-5.85427 -1.0437,-12.40018 -3.6567,-16.94218 -2.6574,-4.62441 -6.4069,-7.39449 -12.4953,-7.39449 -6.1107,0 -9.834,2.77008 -12.5137,7.39449 z M 2458.4242,767.852 c 4.2674,-1.61871 8.6756,-2.31024 12.9468,-2.31024 4.1343,0 9.0864,0.69153 13.8794,4.46352 4.2712,3.39072 6.0404,7.3945 6.7214,9.55152 7.8391,-0.30653 13.7204,3.08045 17.2179,6.85616 4.7265,5.08043 7.0213,13.09173 7.0213,21.17776 0,7.62618 -2.069,15.79079 -7.0213,21.17775 -5.1778,5.62994 -11.5846,6.85234 -17.2179,6.85234 -5.6555,0 -12.0621,-1.2224 -17.2401,-6.85234 -4.9522,-5.38696 -7.0175,-13.47299 -7.0175,-21.17775 0,-7.62629 2.0653,-15.86554 7.0175,-21.17776 1.6803,-1.85048 4.4969,-4.08234 8.5423,-5.46925 -0.6144,-2.69534 -1.9986,-5.54391 -4.1121,-7.70093 -2.9757,-3.08045 -6.3364,-4.00751 -10.2226,-4.00751 -2.2948,0 -5.7924,0.31026 -10.5151,2.31024 V 767.852"
            style={{
              fill: "#000000",
              fillOpacity: 1,
              fillRule: "nonzero",
              stroke: "none",
              strokeWidth: "0.95225036"
            }}
          />
          <path
            id="path2587"
            d="m 2299.3022,172.16084 c 0,2.90473 2.317,5.25986 5.1892,5.25986 2.8757,0 5.2113,-2.35513 5.2113,-5.25986 0,-2.90838 -2.3356,-5.26361 -5.2113,-5.26361 -2.8722,0 -5.1892,2.35523 -5.1892,5.26361"
            style={{
              fill: "#000000",
              fillOpacity: 1,
              fillRule: "nonzero",
              stroke: "none",
              strokeWidth: "0.95225036"
            }}
          />
          <path
            id="path2589"
            d="m 2316.5573,231.5034 c -4.9634,0 -8.9977,-4.07106 -8.9977,-9.09168 h 23.7839 l 0.2147,9.09168 h -15.0009"
            style={{
              fill: "#fffaf5",
              fillOpacity: 1,
              fillRule: "nonzero",
              stroke: "none",
              strokeWidth: "0.95225036"
            }}
          />
          <path
            id="path2591"
            d="m 2299.1985,158.16072 c -6.4326,2.3066 -12.9911,0.34022 -14.6492,-4.39625 l 18.9538,-6.79263 c 6.8213,-2.44116 13.9202,-0.90467 16.7811,3.64117 l -21.0857,7.54771"
            style={{
              fill: "#f53535",
              fillOpacity: 1,
              fillRule: "nonzero",
              stroke: "none",
              strokeWidth: "0.95225036"
            }}
          />
          <path
            id="path2593"
            d="m 2065.2088,761.5753 h 350.263 c 22.0517,0 39.9506,-18.07491 39.9506,-40.36663 l -0.089,-345.69277 -430.0941,104.3 v 241.39277 c 0,22.29172 17.8952,40.36663 39.9692,40.36663"
            style={{
              fill: "#5ca8c7",
              fillOpacity: 1,
              fillRule: "nonzero",
              stroke: "none",
              strokeWidth: "0.95225036"
            }}
          />
          <path
            id="path2595"
            d="m 2025.1397,536.47431 c 1.0918,1.21493 2.1207,2.45982 3.1015,3.77199 4.1306,5.57013 7.1471,11.8095 9.0088,18.51982 1.2806,4.23557 2.0726,8.45985 2.3502,12.64307 0.1074,1.69727 0.3443,3.45798 0.7292,5.23747 l 0.021,0.1869 c 3.1646,12.03747 11.5477,21.92538 23.0585,27.13289 l 0.148,0.0708 c 9.7342,3.80195 18.1618,10.26928 24.3835,18.71046 1.1363,1.51784 2.2245,3.17759 3.4014,5.22628 l 0.2369,0.38874 c 0.47,0.85232 0.9401,1.7122 1.388,2.58318 3.4458,6.86737 5.4148,14.05993 5.9034,21.49931 1.0289,15.1515 10.9963,28.86748 25.3717,34.94234 9.1308,3.84673 29.11,20.9273 30.9717,27.63762 1.2843,4.2393 8.6644,28.22829 9.0494,30.01523 0,0 2.3317,6.19439 6.4586,12.52344 5.7738,-2.64673 11.7846,-2.90465 17.7952,-1.75698 3.5532,-1.13647 7.3174,-1.88419 11.0815,-2.67295 9.0457,-1.89156 18.1804,-3.39819 27.1446,-5.72345 14.5013,-3.76826 27.5295,-9.27484 42.6711,-10.37388 4.1713,-0.3028 6.2698,-5.67856 9.86,-4.47856 l 16.8367,-5.63741 4.0639,-2.31407 c -1.3472,-2.41493 -7.7244,2.83001 -9.2641,0.74773 -6.7805,-9.15522 -10.9517,-23.79836 -21.3669,-28.11986 -9.9267,-4.11595 -17.4548,-12.67303 -20.1494,-22.89369 -0.2998,-1.46921 -0.4922,-2.84492 -0.5774,-4.20944 -0.322,-4.71025 -1.1992,-9.46548 -2.6315,-14.13094 -2.0541,-7.46551 -5.4741,-14.44867 -10.0969,-20.74412 -6.6732,-9.04305 -15.6561,-16.11226 -25.901,-20.4487 -12.0029,-5.06176 -20.301,-16.42634 -21.1561,-28.96108 -0.5551,-8.37763 -2.761,-16.47113 -6.5659,-24.05253 -0.5774,-1.1177 -1.0917,-2.08601 -1.6471,-3.04676 l -0.2367,-0.42616 c -1.3029,-2.25799 -2.565,-4.17576 -3.8271,-5.88413 -6.9952,-9.46548 -16.4518,-16.72915 -27.3371,-21.01333 -9.3714,-4.26917 -16.4924,-12.63187 -19.0796,-22.40388 -0.2776,-1.43926 -0.4923,-2.85612 -0.5775,-4.20934 -0.3219,-4.71409 -1.1991,-9.46932 -2.6093,-14.12731 -1.4989,-5.40189 -3.938,-10.90101 -6.8028,-15.72352 l -95.2095,4.03374 v 57.48088"
            style={{
              fill: "#f53535",
              fillOpacity: 1,
              fillRule: "nonzero",
              stroke: "none",
              strokeWidth: "0.95225036"
            }}
          />
          <path
            id="path2597"
            d="m 2073.2293,505.23668 c 4.1158,5.58878 7.1618,11.8094 9.0088,18.51972 1.2805,4.23931 2.0577,8.46367 2.3501,12.6469 0.126,1.70464 0.3369,3.41684 0.7143,5.23364 l 0.041,0.19073 c 3.172,12.03746 11.5478,21.92537 23.0547,27.12916 l 0.1666,0.0708 c 9.7193,3.80194 18.1397,10.27301 24.3724,18.71046 1.1363,1.50653 2.2281,3.21127 3.4014,5.22245 l 0.2332,0.39629 c 0.4811,0.85232 0.9438,1.71594 1.3843,2.59065 l 0.1035,0.17571 c 3.3386,6.68419 5.315,13.87675 5.8184,21.31231 1.0289,15.1516 10.9778,28.86757 25.3606,34.94243 9.1308,3.85047 17.0884,10.13836 23.0289,18.1796 1.262,1.69718 2.3946,3.46164 3.4458,5.2748 1.8654,-1.43179 3.9861,-2.52337 6.192,-3.19635 -1.2398,-2.15701 -2.5833,-4.25422 -4.0712,-6.26913 -6.6992,-9.04315 -15.6636,-16.11608 -25.9084,-20.44879 -11.9882,-5.06176 -20.3011,-16.42634 -21.1413,-28.96107 -0.5663,-8.37765 -2.7944,-16.47114 -6.5919,-24.05627 -0.5477,-1.1177 -1.0696,-2.08601 -1.6173,-3.0505 l -0.2739,-0.44855 c -1.2807,-2.22056 -2.5169,-4.13833 -3.7975,-5.85427 -7.0137,-9.46548 -16.4592,-16.72914 -27.3555,-21.01323 -9.3641,-4.27299 -16.4814,-12.63197 -19.0649,-22.40024 -0.2924,-1.47295 -0.4811,-2.8524 -0.5885,-4.21309 -0.3145,-4.71034 -1.1955,-9.46557 -2.6019,-14.1273 -2.0579,-7.4654 -5.5001,-14.4412 -10.0969,-20.74776 -3.8863,-5.21881 -8.5054,-9.75335 -13.6908,-13.51041 l -9.3011,2.3065 c 6.7622,3.82435 12.7248,9.05061 17.4253,15.39459 z m -28.1513,17.41322 c 4.1342,5.57013 7.1581,11.81314 9.005,18.52356 1.2807,4.23547 2.0579,8.45984 2.354,12.64306 0.1036,1.69718 0.3553,3.45799 0.7106,5.23747 l 0.045,0.1869 c 3.1496,12.0412 11.5662,21.92911 23.051,27.13289 l 0.1666,0.067 c 9.7009,3.80568 18.1395,10.27301 24.376,18.71046 1.1326,1.52156 2.2022,3.18132 3.4015,5.22627 l 0.2295,0.39248 c 0.4848,0.85231 0.9437,1.7122 1.3878,2.58318 3.4422,6.86737 5.3927,14.05993 5.9182,21.49931 1.029,15.15149 10.9816,28.86748 25.3607,34.94233 9.1346,3.85047 17.0921,10.13463 23.0511,18.17588 1.5545,2.11587 2.9424,4.3215 4.1786,6.60935 1.7839,-1.5028 3.8419,-2.68788 6.0256,-3.48038 -1.3842,-2.5271 -2.9388,-4.972 -4.6599,-7.31965 -6.6954,-9.04306 -15.6634,-16.11609 -25.9083,-20.44507 -11.9882,-5.06176 -20.3011,-16.43007 -21.1413,-28.9647 -0.5663,-8.37765 -2.7685,-16.4675 -6.5696,-24.05254 l -0.1036,-0.18701 c -0.4627,-0.92705 -0.9883,-1.89527 -1.536,-2.85975 l -0.2517,-0.42243 c -1.3213,-2.25799 -2.5612,-4.18322 -3.8197,-5.88796 -7.01,-9.46174 -16.4592,-16.72915 -27.3556,-21.01324 -9.364,-4.26925 -16.4814,-12.63186 -19.0611,-22.40024 -0.2961,-1.44299 -0.4849,-2.85602 -0.5885,-4.20934 -0.3147,-4.71782 -1.1992,-9.47295 -2.6056,-14.13095 -2.0542,-7.45803 -5.4778,-14.47488 -10.1191,-20.74411 -6.5696,-8.90477 -15.3675,-15.8843 -25.4421,-20.2282 v 7.69346 c 7.8095,3.89535 14.6532,9.62253 19.9014,16.72169 z m 63.5274,-20.83379 c 1.2806,4.23546 2.08,8.45984 2.354,12.64679 0.1258,1.69344 0.3553,3.45799 0.7327,5.23747 l 0.021,0.18691 c 3.1683,12.03746 11.5478,21.92537 23.0511,27.12915 l 0.1666,0.067 c 9.7231,3.80567 18.1395,10.27674 24.3761,18.71419 1.1325,1.51783 2.2022,3.18132 3.4014,5.22254 l 0.2294,0.39248 c 0.4849,0.85232 0.9438,1.71593 1.4065,2.59064 3.4236,6.8599 5.3963,14.05247 5.8997,21.49184 1.0289,15.15151 10.9815,28.86749 25.3828,34.94234 9.1124,3.85047 17.0663,10.13463 23.0104,18.17587 4.1342,5.59253 7.1803,11.80942 9.0272,18.52356 0.2738,0.93453 0.5255,1.87289 0.755,2.80741 2.4354,-0.34012 4.9115,-0.16442 7.2434,0.60197 -0.3776,-1.80197 -0.8181,-3.59638 -1.3659,-5.37576 -2.0356,-7.46551 -5.4999,-14.44877 -10.0968,-20.74413 -6.6991,-9.04678 -15.6412,-16.11608 -25.9085,-20.44878 -11.9881,-5.06177 -20.301,-16.43009 -21.1412,-28.96098 -0.5662,-8.38138 -2.7907,-16.47124 -6.5918,-24.05627 -0.5441,-1.11407 -1.0696,-2.08601 -1.6174,-3.04677 l -0.2517,-0.42242 c -1.3214,-2.25799 -2.5612,-4.17949 -3.8196,-5.88423 -7.0138,-9.46548 -16.4593,-16.73287 -27.3556,-21.01323 -9.364,-4.27299 -16.4814,-12.63187 -19.0612,-22.40398 -0.2961,-1.43925 -0.4849,-2.85603 -0.5885,-4.20934 -0.3145,-4.71782 -1.1991,-9.46921 -2.6057,-14.13095 -2.0577,-7.45804 -5.4555,-14.48235 -10.0967,-20.74412 -0.3369,-0.42616 -0.6737,-0.82992 -1.0067,-1.24862 l -7.4764,1.85423 c 1.0103,1.15884 1.9949,2.34392 2.9201,3.58508 4.1343,5.56266 7.1582,11.81313 9.005,18.51982"
            style={{
              fill: "#000000",
              fillOpacity: 1,
              fillRule: "nonzero",
              stroke: "none",
              strokeWidth: "0.95225036"
            }}
          />
          <path
            id="path2599"
            d="m 2184.2061,615.63766 c 8.5793,8.13838 18.9686,13.17019 29.7613,15.14778 13.872,2.54575 24.8868,13.20761 28.8434,26.88616 2.8833,9.888 8.3092,19.15165 16.289,26.70682 5.4963,5.19632 11.7291,9.11033 18.321,11.78701 4.1527,1.81681 8.4424,3.1552 12.8469,3.9589 1.584,0.28787 3.1274,0.69537 4.6227,1.1888 5.6073,2.19818 10.5448,5.76451 14.4569,10.29169 0.1777,-0.30654 0.3109,-0.6168 0.4923,-0.92334 4.2674,-7.39076 16.0409,-11.83936 23.4137,-6.20569 9.9192,7.56264 13.2281,16.93472 15.4377,28.86002 1.8321,9.83192 6.8584,18.59456 9.2049,28.22082 h 57.5759 c 22.0517,0 39.9506,-18.07117 39.9506,-40.36671 v -2.31771 c -10.9925,-4.24677 -19.5274,-13.50294 -22.8363,-25.1778 -2.8351,-10.02255 -8.3091,-19.42449 -16.3963,-27.06943 -8.3796,-7.92152 -18.4357,-12.87859 -28.9138,-14.95714 l -1.3398,-0.16824 c -0.1777,-0.0373 -0.359,-0.09 -0.5145,-0.11962 -13.9869,-2.73276 -25.2237,-13.19259 -29.1544,-27.02456 -2.8165,-10.01873 -8.3128,-19.42066 -16.3777,-27.0656 -8.3795,-7.92162 -18.432,-12.8786 -28.936,-14.96087 l -144.9353,-18.07117 c -2.3909,18.42632 3.7086,37.70869 18.1878,51.37988"
            style={{
              fill: "#f0b83a",
              fillOpacity: 1,
              fillRule: "nonzero",
              stroke: "none",
              strokeWidth: "0.95225036"
            }}
          />
          <path
            id="path2601"
            d="m 2240.2312,694.73738 -33.7291,13.19641 -47.6678,18.63935 -21.1005,-67.85849 c -1.8617,-5.87666 1.4212,-12.16465 7.2692,-13.93283 6.4178,-1.94026 4.4895,-1.5253 4.4895,-1.5253 l -1.1659,-45.8845 c -0.2738,-11.77954 9.0902,-21.49548 20.7416,-21.49548 h 97.793 l -16.3333,72.95767 -10.2967,45.90317"
            style={{
              fill: "#fadcc5",
              fillOpacity: 1,
              fillRule: "nonzero",
              stroke: "none",
              strokeWidth: "0.95225036"
            }}
          />
          <path
            id="path2603"
            d="m 2211.1656,729.26475 47.4161,8.62062 c -0.023,0.47105 -0.066,0.92717 -0.089,1.39821 l 1.1623,0.0449 c 7.0358,-4.93094 16.1556,-7.64121 23.8282,-9.90666 9.2938,-2.74023 18.7651,-5.21498 27.7739,-8.81499 8.8532,-3.54403 16.4185,-7.27487 26.0637,-7.9889 3.0684,-0.22806 5.7628,0.48224 8.0428,1.81307 -1.4879,-6.34398 -2.2133,-10.88981 -2.2133,-10.88981 -0.4813,-1.75699 -11.2442,-45.50686 -12.0327,-49.86952 -1.3842,-6.82622 8.6794,-31.24519 15.038,-38.87512 10.0599,-12.04501 12.7137,-28.84135 6.7733,-42.79295 -2.9166,-6.84861 -4.4083,-14.15706 -4.4526,-21.85062 -0.023,-0.97568 0,-1.95892 0.066,-2.93833 l 0.021,-0.45611 c 0.1332,-2.36633 0.3517,-4.34391 0.6589,-6.21689 1.732,-10.38135 6.2883,-20.02636 13.2169,-27.8918 l 0.111,-0.14202 c 7.891,-9.9328 10.8705,-22.60208 8.2426,-34.763 l -0.066,-0.1869 c -0.4848,-1.74953 -1.0548,-3.43177 -1.7099,-4.99439 -1.6433,-3.85057 -2.85,-7.97014 -3.6382,-12.33281 -1.3843,-6.81875 -1.5139,-13.76842 -0.3517,-20.62823 1.6434,-9.8992 5.8961,-19.16656 12.2546,-26.80022 5.0189,-6.01505 8.1982,-13.36092 9.3788,-20.80021 L 2253.5396,424.036 c -0.3517,5.60755 -0.045,11.63005 1.0734,17.11798 0.8549,4.80001 2.2133,9.43552 4.075,13.77579 0.5071,1.24489 0.9882,2.59438 1.3842,4.01125 2.1246,9.8879 -0.4404,20.60956 -6.8398,28.72918 -7.7391,8.83749 -12.8691,19.66002 -14.8196,31.30875 -0.3517,2.10467 -0.5922,4.38878 -0.744,7.00565 l -0.021,0.48971 c -0.044,1.1066 -0.066,2.20937 -0.066,3.46172 0.045,8.501 1.7322,16.72168 5.0189,24.43764 4.9115,11.53646 2.6759,25.47676 -5.7,35.51425 -7.1655,8.58704 -11.9437,19.01327 -13.8091,30.14233 -1.2473,7.73088 -1.1399,15.52914 0.3961,23.118 0.8549,4.80002 2.2132,9.43935 4.075,13.7758 0.5256,1.25608 0.9881,2.56825 1.3805,4.01124 2.2169,10.34029 -0.6107,21.42447 -7.5616,29.66755 -7.3209,8.65058 -13.9202,14.15343 -35.8164,25.50682 -2.3022,1.18871 21.0634,10.20563 20.9561,12.97572 l 4.645,0.17944"
            style={{
              fill: "#f53535",
              fillOpacity: 1,
              fillRule: "nonzero",
              stroke: "none",
              strokeWidth: "0.95225036"
            }}
          />
          <path
            id="path2605"
            d="m 2271.2064,631.79853 c -0.4145,2.47849 -0.655,4.96826 -0.7847,7.45422 2.2616,-0.41871 4.634,-0.42244 6.962,-0.0153 0.1074,-2.09347 0.3258,-4.18696 0.6514,-6.27287 1.6545,-9.8992 5.8961,-19.16657 12.2695,-26.80023 10.0488,-12.04129 12.7025,-28.84145 6.7658,-42.79295 -2.9166,-6.84861 -4.4155,-14.15343 -4.4599,-21.64506 v -0.19436 c 0,-0.98315 0.023,-1.96266 0.066,-2.94953 l 0.021,-0.45612 c 0.1517,-2.329 0.348,-4.35893 0.6736,-6.21315 1.7174,-10.38508 6.307,-20.0301 13.2244,-27.89553 l 0.1074,-0.13839 c 7.8761,-9.9328 10.8555,-22.60198 8.224,-34.76291 l -0.044,-0.19063 c -0.4996,-1.78695 -1.0659,-3.42057 -1.7395,-4.99066 -1.6324,-3.85056 -2.8499,-7.97023 -3.6087,-12.33289 -1.3954,-6.82622 -1.525,-13.7533 -0.3701,-20.63187 1.3028,-7.80945 4.2415,-15.20768 8.546,-21.73855 l -9.3307,2.24305 c -2.9165,5.73455 -4.9819,11.90664 -6.0477,18.32909 -1.24,7.73462 -1.1511,15.52914 0.3923,23.12174 0.8475,4.79628 2.217,9.43179 4.0677,13.77206 0.5218,1.25235 0.977,2.56825 1.3915,4.01124 2.1098,9.88791 -0.433,20.60947 -6.8287,28.72546 -7.7688,8.84122 -12.8802,19.66375 -14.8381,31.31247 -0.3479,2.11587 -0.5848,4.39625 -0.718,6.96823 l -0.041,0.51967 c -0.045,1.11024 -0.089,2.2131 -0.089,3.46545 0.066,8.50101 1.7395,16.72533 5.0484,24.43755 4.9153,11.54029 2.6538,25.48059 -5.7219,35.51808 -7.1582,8.58704 -11.9217,19.00953 -13.7907,30.14233 z m 32.911,2.50097 c -0.4551,2.88226 -0.7401,5.77197 -0.8253,8.66169 2.3058,-0.30653 4.6525,-0.19811 6.9176,0.31782 0.062,-2.60567 0.3257,-5.21125 0.7587,-7.81318 1.6544,-9.89911 5.8961,-19.16649 12.2473,-26.7965 10.0747,-12.04493 12.7284,-28.84135 6.788,-42.79659 -2.9166,-6.8487 -4.4378,-14.15343 -4.4821,-21.84699 0,-0.97941 0.044,-1.96256 0.066,-2.94206 l 0.045,-0.45602 c 0.1295,-2.36642 0.3256,-4.34027 0.6514,-6.21316 1.7173,-10.38517 6.3067,-20.03008 13.2243,-27.89562 l 0.111,-0.13829 c 7.8725,-9.93652 10.8742,-22.60581 8.2426,-34.7629 l -0.062,-0.18691 c -0.4811,-1.75335 -1.0437,-3.43186 -1.721,-4.99449 -1.6507,-3.85419 -2.85,-7.97387 -3.6308,-12.33279 -1.3918,-6.82248 -1.525,-13.77206 -0.3702,-20.63196 1.6544,-9.89911 5.9182,-19.16648 12.2695,-26.80023 1.9579,-2.32526 3.6087,-4.82997 4.9818,-7.45804 l -9.8341,2.36642 c -0.1518,0.19063 -0.2813,0.39247 -0.4552,0.58321 -7.1582,8.58693 -11.9216,19.00943 -13.7945,30.14232 -1.2805,7.71968 -1.151,15.53651 0.3924,23.11791 0.8476,4.80002 2.2207,9.43189 4.0675,13.77579 0.5219,1.24489 1.0031,2.59447 1.3918,4.01125 2.1318,9.88427 -0.433,20.60583 -6.8287,28.72555 -7.743,8.84112 -12.8765,19.66365 -14.8123,31.31238 -0.3701,2.10467 -0.6106,4.38505 -0.7402,7.00565 l -0.045,0.48597 c -0.044,1.11034 -0.089,2.21311 -0.066,3.25616 v 0.2093 c 0.044,8.49727 1.7433,16.71795 5.0262,24.4339 4.9152,11.5403 2.6759,25.48061 -5.6998,35.51436 -7.1766,8.59067 -11.9402,19.01316 -13.813,30.14605 z m -60.2109,2.20181 c -0.1111,-3.62986 0.1516,-7.2673 0.7586,-10.88607 1.6322,-9.89911 5.8961,-19.16274 12.2473,-26.80023 10.0747,-12.04119 12.7284,-28.83762 6.788,-42.79285 -2.9128,-6.84871 -4.4156,-14.15343 -4.4599,-21.84317 -0.021,-0.97951 0,-1.96265 0.066,-2.94589 l 0.021,-0.45601 c 0.1296,-2.36642 0.3479,-4.34027 0.6514,-6.21315 1.7396,-10.38144 6.3069,-20.0301 13.2243,-27.89554 l 0.1111,-0.13839 c 7.8725,-9.93279 10.8742,-22.6058 8.2204,-34.7629 l -0.041,-0.1869 c -0.4812,-1.75326 -1.066,-3.43177 -1.721,-4.99448 -1.6286,-3.85421 -2.85,-7.97014 -3.6309,-12.3328 -1.3916,-6.82249 -1.5249,-13.77207 -0.348,-20.63197 0.2407,-1.52892 0.5886,-3.0392 0.955,-4.53454 l -7.4802,1.80561 c -0.111,0.52329 -0.2405,1.03922 -0.3256,1.56635 -1.3066,7.71596 -1.1548,15.53288 0.3885,23.11791 0.8513,4.79638 2.2209,9.42816 4.0677,13.77215 0.5441,1.2448 1.0031,2.59439 1.3953,4.01125 2.1097,9.8879 -0.4367,20.60947 -6.8323,28.72919 -7.743,8.83748 -12.8765,19.66001 -14.8123,31.31247 -0.37,2.10094 -0.5885,4.38505 -0.7402,7.00193 l -0.045,0.48597 c -0.044,1.11024 -0.066,2.20937 -0.066,3.46546 0.044,8.49725 1.7433,16.72159 5.0262,24.43381 4.9152,11.53655 2.6761,25.48059 -5.6998,35.51808 -7.1544,8.59077 -11.9401,19.00953 -13.7907,30.14233 -0.6514,4.03363 -0.9586,8.08976 -0.8475,12.12349 0.086,3.69342 7.0026,3.18879 6.9175,-0.0708"
            style={{
              fill: "#000000",
              fillOpacity: 1,
              fillRule: "nonzero",
              stroke: "none",
              strokeWidth: "0.95225036"
            }}
          />
          <path
            id="path2607"
            d="m 2455.3337,375.5159 -0.8069,0.17943 -429.2873,103.30557 c 22.966,58.08274 80.342,96.87938 144.6244,96.87938 h 130.7227 c 83.8321,0 152.0859,-64.90896 154.8358,-145.98262 l -0.089,-54.38176"
            style={{
              fill: "#000000",
              fillOpacity: 1,
              fillRule: "nonzero",
              stroke: "none",
              strokeWidth: "0.95225036"
            }}
          />
          <path
            id="path2609"
            d="m 2079.0328,748.20701 c -10.4929,-9.73096 -14.6308,-24.59832 -10.7741,-38.44523 2.7943,-10.04122 3.0165,-20.94222 0.1,-31.73106 -3.0128,-11.18514 -9.0013,-20.7292 -16.8404,-28.05631 l -1.0659,-0.85243 c -0.1222,-0.12336 -0.2406,-0.25791 -0.3627,-0.37754 -10.4929,-9.73468 -14.6309,-24.59832 -10.7927,-38.44521 2.7944,-10.0374 3.0165,-20.94223 0.1,-31.73107 -2.6538,-9.86551 -7.6356,-18.45255 -14.1498,-25.37217 v 168.01268 c 0,22.29172 17.888,40.36289 39.9582,40.36289 h 24.5389 c -2.972,-5.05046 -6.5695,-9.52902 -10.7112,-13.36455"
            style={{
              fill: "#000000",
              fillOpacity: 1,
              fillRule: "nonzero",
              stroke: "none",
              strokeWidth: "0.95225036"
            }}
          />
          <path
            id="path2611"
            d="m 2169.9267,761.54171 30.5498,0.0115 c 1.2918,-2.60566 3.3422,-4.99448 6.3438,-6.90478 15.6043,-9.92906 34.4397,-15.16643 52.9828,-16.00382 l -19.5572,-43.90692 -81.3968,31.8171 11.0776,34.98723"
            style={{
              fill: "#f53535",
              fillOpacity: 1,
              fillRule: "nonzero",
              stroke: "none",
              strokeWidth: "0.95225036"
            }}
          />
          <path
            id="path2613"
            d="M 2254.5141,508.48527 H 2203.43 c -29.8316,0 -54.0263,24.43017 -54.0263,54.5612 l 10.5817,12.83381 c 0,0 -0.5145,0 4.5821,0 h 130.7042 c 8.2166,0 16.2593,-0.65049 24.1318,-1.85796 0,-36.1947 -29.0581,-65.53705 -64.8894,-65.53705"
            style={{
              fill: "#000000",
              fillOpacity: 1,
              fillRule: "nonzero",
              stroke: "none",
              strokeWidth: "0.95225036"
            }}
          />
          <path
            id="path2615"
            d="m 2295.9119,413.86388 -270.7648,65.12955 c 21.789,55.07714 74.6457,93.14098 134.8495,96.88311 l 135.9153,-162.01266"
            style={{
              fill: "#5ca8c7",
              fillOpacity: 1,
              fillRule: "nonzero",
              stroke: "none",
              strokeWidth: "0.95225036"
            }}
          />
          <path
            id="path2617"
            d="m 2213.6231,761.57156 c -0.8068,-2.46728 0.4554,-5.15143 2.9167,-6.02614 2.4427,-0.87854 5.1224,0.38874 6.0588,2.84483 l 1.177,3.18131 h 11.4145 l -2.2429,-6.03743 c -0.9364,-2.51964 0.3479,-5.32715 2.8536,-6.22435 2.4612,-0.87472 5.1409,0.38883 6.0551,2.84492 l 3.5088,9.41686 h 11.4367 l -4.5525,-12.27298 c -0.9364,-2.51964 0.3479,-5.32341 2.8758,-6.22435 2.4391,-0.87471 5.1188,0.39257 6.0551,2.84866 l 5.7961,15.64867 h 11.4145 l -6.862,-18.50479 c -0.9364,-2.52337 0.348,-5.32715 2.8536,-6.22435 2.4614,-0.87854 5.1633,0.38874 6.0553,2.84492 l 8.1278,21.88422 h 11.4145 l -9.1716,-24.74034 c -0.9364,-2.51964 0.3479,-5.32714 2.8536,-6.22808 2.4613,-0.8748 5.141,0.39247 6.0588,2.84856 l 10.4338,28.11986 h 11.4145 l -11.5034,-30.97215 c -0.9142,-2.51964 0.3701,-5.32341 2.8758,-6.22435 2.4613,-0.87481 5.1409,0.38874 6.0589,2.84856 l 12.7432,34.34794 h 11.4145 l -13.8091,-37.20406 c -0.9401,-2.52337 0.3701,-5.32714 2.8758,-6.22808 2.4391,-0.87471 5.141,0.39257 6.0551,2.84493 l 15.0751,40.58721 h 11.2848 l -21.5039,-58.02665 -173.2161,58.03048 h 43.7037"
            style={{
              fill: "#000000",
              fillOpacity: 1,
              fillRule: "nonzero",
              stroke: "none",
              strokeWidth: "0.95225036"
            }}
          />
          <path
            id="path2619"
            d="m 2222.247,631.41343 109.6517,13.14406 -0.8439,6.94958 -108.3341,-12.98329 c 0,0 -0.2776,-2.41867 -0.3442,-3.22994 -0.086,-0.96821 -0.1295,-3.88041 -0.1295,-3.88041"
            style={{
              fill: "#000000",
              fillOpacity: 1,
              fillRule: "nonzero",
              stroke: "none",
              strokeWidth: "0.95225036"
            }}
          />
          <path
            id="path2621"
            d="m 2070.5126,540.92674 0.062,-0.16825 c 1.6433,-4.57578 2.7833,-9.27484 3.3532,-13.97025 0.1666,-1.34576 0.4221,-2.7477 0.7995,-4.17203 3.1016,-9.6187 10.6485,-17.5852 20.2197,-21.35346 11.0925,-3.68968 20.9155,-10.44115 28.3993,-19.51789 1.3731,-1.63363 2.7019,-3.48785 4.1342,-5.67483 l 0.2739,-0.40749 c 0.5922,-0.93081 1.1807,-1.87289 1.6878,-2.77383 l 0.1036,-0.17943 c 3.6494,-6.43748 6.1366,-13.31978 7.358,-20.51234 l -7.4209,1.79068 c -1.2214,5.31221 -3.2238,10.44498 -6.0292,15.35343 -0.4849,0.84858 -0.992,1.68224 -1.5176,2.50471 l -0.2553,0.38127 c -1.2844,1.97758 -2.4428,3.57762 -3.6457,5.03554 -6.6844,8.0935 -15.434,14.10108 -25.3422,17.37963 l -0.1702,0.0593 c -11.7439,4.58316 -20.6415,14.01131 -24.4353,25.86187 l -0.041,0.18318 c -0.4663,1.76081 -0.8031,3.50661 -0.992,5.19631 -0.4219,3.3645 -1.162,6.73655 -2.2354,10.10477 1.8542,1.67105 3.753,3.29348 5.6924,4.87859 z m 49.2112,-27.32736 c -11.7439,4.58317 -20.6638,14.00759 -24.4168,25.86188 l -0.062,0.1869 c -0.4626,1.79441 -0.781,3.48786 -0.9918,5.18886 -0.4406,3.58135 -1.2659,7.17016 -2.4466,10.75525 2.0468,1.16258 4.1121,2.26545 6.2217,3.34209 1.5175,-4.3552 2.5501,-8.80389 3.0979,-13.24875 0.1703,-1.35333 0.422,-2.71775 0.8032,-4.17577 3.0979,-9.61496 10.6483,-17.58146 20.2197,-21.34598 11.0888,-3.69715 20.9154,-10.4449 28.4215,-19.52164 1.3471,-1.64482 2.698,-3.49157 4.0898,-5.64114 l 0.2961,-0.43745 c 0.5885,-0.93079 1.1584,-1.87288 1.7914,-2.95699 4.1934,-7.372 6.8286,-15.33468 7.8427,-23.67126 1.4954,-12.46735 10.3746,-23.37593 22.5996,-27.79084 0.1074,-0.0373 0.211,-0.0861 0.3182,-0.12719 l -19.335,4.658 c -5.6924,6.18703 -9.464,14.00012 -10.4781,22.41145 -0.8845,7.40195 -3.2238,14.47862 -6.936,20.9759 l -0.085,0.17199 c -0.4848,0.84485 -0.9919,1.68223 -1.5398,2.50843 l -0.2516,0.38127 c -1.2658,1.94763 -2.4687,3.59256 -3.6494,5.03554 -6.6806,8.08978 -15.4302,14.10109 -25.3421,17.37964 z m 56.1249,-2.04495 c -0.4848,0.84868 -0.9918,1.68607 -1.5174,2.51217 l -0.2554,0.37764 c -1.3066,1.97758 -2.465,3.57761 -3.6679,5.03927 -6.6622,8.08976 -15.434,14.09735 -25.3199,17.3759 l -0.1703,0.0632 c -11.7661,4.57942 -20.6638,14.00759 -24.4352,25.85814 l -0.062,0.18691 c -0.4441,1.70091 -0.7586,3.39445 -0.9697,5.03554 2.2133,0.74771 4.4489,1.45419 6.6807,2.10467 0.062,-0.36635 0.1296,-0.7327 0.1925,-1.09904 0.148,-1.34586 0.4219,-2.75142 0.7772,-4.17202 3.1016,-9.62253 10.6483,-17.58894 20.2197,-21.35346 11.1109,-3.69725 20.9376,-10.44489 28.4215,-19.52163 1.3508,-1.63746 2.6982,-3.48412 4.1342,-5.67483 l 0.2517,-0.4075 c 0.5922,-0.93079 1.1807,-1.86914 1.7914,-2.95326 4.1972,-7.372 6.8323,-15.33477 7.8428,-23.66753 1.499,-12.47108 10.3745,-23.37592 22.6253,-27.79092 10.4561,-3.77946 19.7979,-10.36269 26.9448,-19.03193 4.7857,-5.86173 8.498,-12.43003 10.9408,-19.52162 l -8.2204,1.98131 c -2.0652,4.69541 -4.7671,9.06554 -8.0538,13.05803 -6.3475,7.71222 -14.6346,13.56276 -23.9504,16.91978 -14.6753,5.29729 -25.3458,18.46001 -27.1779,33.53677 -0.8883,7.39823 -3.2275,14.47489 -7.0213,21.14406"
            style={{
              fill: "#000000",
              fillOpacity: 1,
              fillRule: "nonzero",
              stroke: "none",
              strokeWidth: "0.95225036"
            }}
          />
          <path
            id="path2623"
            d="m 2304.2248,486.42898 c -1.2842,0 -2.0172,0.0449 -2.0172,0.0449 0,0 1.995,22.84133 17.2106,36.0564 15.212,13.21135 37.8744,11.78701 37.8744,11.78701 0,0 -1.9949,-22.84879 -17.2069,-36.06014 -1.3324,-1.15138 -2.7277,-2.18688 -4.1453,-3.12896 1.2399,0.0593 2.4836,0.11589 3.7234,0.11589 5.1447,0 10.2005,-0.5121 15.1231,-1.50654 l -0.044,-0.0785 c 6.3216,12.27298 21.0709,17.60013 33.7106,11.85803 l 39.8951,-18.11234 -18.4948,-20.02626 -2.8167,-27.88443 -39.9175,18.10859 c -11.3774,5.17766 -17.2771,17.61142 -14.7492,29.46572 -4.1453,0.77011 -8.4054,1.17377 -12.7062,1.17377 -23.0178,0 -44.5069,-11.49167 -57.4574,-30.74045 l -5.7443,3.9365 c 7.2063,10.68051 16.7886,19.17777 27.7627,24.99089"
            style={{
              fill: "#f53535",
              fillOpacity: 1,
              fillRule: "nonzero",
              stroke: "none",
              strokeWidth: "0.95225036"
            }}
          />
          <path
            id="path2625"
            d="m 2165.4003,445.26975 142.6034,-34.31424 -11.94,33.88809 -59.4486,65.93325 -71.2148,-65.5071"
            style={{
              fill: "#000000",
              fillOpacity: 1,
              fillRule: "nonzero",
              stroke: "none",
              strokeWidth: "0.95225036"
            }}
          />
          <path
            id="path2627"
            d="m 2244.4431,492.72816 0.148,-0.10095 v 0.14202 l 53.6378,6.31037 c -3.2275,-17.66367 -4.7449,-34.88252 -4.6598,-51.26025 l -33.7772,-1.08038 -17.7657,-19.94042 -50.7508,12.217 53.1677,53.71261"
            style={{
              fill: "#fadcc5",
              fillOpacity: 1,
              fillRule: "nonzero",
              stroke: "none",
              strokeWidth: "0.95225036"
            }}
          />
          <path
            id="path2629"
            d="m 2252.8041,466.42138 41.6421,4.89725 c -0.1924,-2.38508 -0.3626,-4.7515 -0.5145,-7.10662 l -40.3171,-4.74394 c -1.9023,-0.22432 -3.6309,1.15139 -3.8455,3.07289 -0.2368,1.91776 1.1326,3.65609 3.035,3.88042 z m 43.4779,21.13659 c -0.3405,-2.39627 -0.6624,-4.78508 -0.9178,-7.15887 l -43.5668,-5.1253 c -1.8988,-0.2206 -3.6309,1.15138 -3.8456,3.07288 -0.2332,1.9215 1.1325,3.65983 3.0349,3.88415 l 45.2953,5.32714"
            style={{
              fill: "#000000",
              fillOpacity: 1,
              fillRule: "nonzero",
              stroke: "none",
              strokeWidth: "0.95225036"
            }}
          />
          <path
            id="path2631"
            d="m 2181.2858,684.1541 c 0,-2.90848 -2.3354,-5.2636 -5.2076,-5.2636 -2.8943,0 -5.2076,2.35512 -5.2076,5.2636 0,2.90474 2.3133,5.25986 5.2076,5.25986 2.8722,0 5.2076,-2.35512 5.2076,-5.25986"
            style={{
              fill: "#000000",
              fillOpacity: 1,
              fillRule: "nonzero",
              stroke: "none",
              strokeWidth: "0.95225036"
            }}
          />
          <path
            id="path2633"
            d="m 2164.016,624.80408 c 4.967,0 9.005,4.07105 9.005,9.09539 h -23.7839 l -0.2072,-9.09539 h 14.9861"
            style={{
              fill: "#fffaf5",
              fillOpacity: 1,
              fillRule: "nonzero",
              stroke: "none",
              strokeWidth: "0.95225036"
            }}
          />
          <path
            id="path2635"
            d="m 2181.4598,698.19537 c 6.4327,-2.30288 12.9912,-0.33649 14.6493,4.39998 l -18.9649,6.79262 c -6.8066,2.44116 -13.9054,0.90094 -16.7665,-3.64116 l 21.0821,-7.55144"
            style={{
              fill: "#f53535",
              fillOpacity: 1,
              fillRule: "nonzero",
              stroke: "none",
              strokeWidth: "0.95225036"
            }}
          />
          <path
            id="path2637"
            d="m 2011.8968,148.52326 c -0.2924,-14.05993 -31.1197,-40.12746 -31.1197,-40.12746 -0.096,0 -30.9235,26.06753 -31.2197,40.12746 l -0.018,0.20567 c 0,8.04115 6.4549,14.56083 14.4014,14.56083 4.26,0 13.6981,0 16.4629,0 0.2776,0 0.5329,0 0.6477,0 1.4324,0 11.8735,0 16.4445,0 7.9871,0 14.442,-6.51968 14.442,-14.56083 l -0.041,-0.20567"
            style={{
              fill: "#000000",
              fillOpacity: 1,
              fillRule: "nonzero",
              stroke: "none",
              strokeWidth: "0.95225036"
            }}
          />
          <path
            id="path2639"
            d="m 1980.729,167.08041 c -4.8338,0 -8.7681,3.90664 -8.8681,8.76275 h 17.714 c -0.078,-4.85611 -3.9974,-8.76275 -8.8459,-8.76275"
            style={{
              fill: "#000000",
              fillOpacity: 1,
              fillRule: "nonzero",
              stroke: "none",
              strokeWidth: "0.95225036"
            }}
          />
          <path
            id="path2641"
            d="m 2463.8723,714.76746 c 0.2961,14.06366 31.1124,40.13121 31.1124,40.13121 0.089,0 30.9308,-26.06755 31.2269,-40.13121 l 0.021,-0.20565 c 0,-8.04116 -6.4475,-14.56084 -14.4161,-14.56084 -4.2601,0 -13.6908,0 -16.4704,0 -0.2739,0 -0.5219,0 -0.6366,0 -1.4139,0 -11.866,0 -16.4444,0 -7.9724,0 -14.4422,6.51968 -14.4422,14.56084 l 0.048,0.20565"
            style={{
              fill: "#000000",
              fillOpacity: 1,
              fillRule: "nonzero",
              stroke: "none",
              strokeWidth: "0.95225036"
            }}
          />
          <path
            id="path2643"
            d="m 2495.0253,696.21406 c 4.8449,0 8.7644,-3.91038 8.8755,-8.76648 h -17.725 c 0.089,4.8561 4.0046,8.76648 8.8495,8.76648"
            style={{
              fill: "#000000",
              fillOpacity: 1,
              fillRule: "nonzero",
              stroke: "none",
              strokeWidth: "0.95225036"
            }}
          />
        </g>
      </g>
    </g>
  </g>
</svg>
