<svg
  xmlns="http://www.w3.org/2000/svg"
  id="svg8"
  version="1.1"
  viewBox="0 0 210 297"
  height="297mm"
  width="210mm"
>
  <g id="layer1">
    <g
      transform="matrix(0.35277777,0,0,0.35277777,-684.46134,-3.8690441)"
      id="surface13909"
    >
      <g
        transform="matrix(2.8346457,0,0,2.8346457,1942.4757,13.902827)"
        id="layer1-2"
      >
        <g
          id="surface13909-8"
          transform="matrix(0.35277777,0,0,0.35277777,-684.46134,-3.8690441)"
        >
          <path
            id="path2645"
            d="M 1940.7239,816.96588 V 47.159464 c 0,-20.005824 16.0375,-36.222435 35.8041,-36.222435 h 522.8142 c 19.7666,0 35.8041,16.216611 35.8041,36.222435 V 816.96588 c 0,20.00583 -16.0375,36.22618 -35.8041,36.22618 H 1976.528 c -19.7666,0 -35.8041,-16.22035 -35.8041,-36.22618"
            style={{
              fill: "#fffaf5",
              fillOpacity: 1,
              fillRule: "nonzero",
              stroke: "none",
              strokeWidth: "0.9527939"
            }}
          />
          <path
            id="path2647"
            d="M 2020.9816,725.57496 V 138.55039 c 0,-22.32731 17.8576,-40.427266 39.9253,-40.427266 h 350.0905 c 22.0677,0 39.955,18.099956 39.955,40.427266 v 587.02457 c 0,22.33105 -17.8873,40.431 -39.955,40.431 h -350.0905 c -22.0677,0 -39.9253,-18.09995 -39.9253,-40.431"
            style={{
              fill: "#5e5e5e",
              fillOpacity: 1,
              fillRule: "nonzero",
              stroke: "none",
              strokeWidth: "0.9527939"
            }}
          />
          <path
            id="path2649"
            d="m 2411.0122,98.104432 h -350.0905 c -22.0677,0 -39.929,18.103688 -39.929,40.431008 l -0.026,345.9924 430.0003,-104.21516 V 138.53544 c 0,-22.32732 -17.8872,-40.431008 -39.9549,-40.431008"
            style={{
              fill: "#f0b83a",
              fillOpacity: 1,
              fillRule: "nonzero",
              stroke: "none",
              strokeWidth: "0.9527939"
            }}
          />
          <path
            id="path2651"
            d="m 2345.3788,312.47331 c -10.0517,-0.10103 -19.8702,-2.95049 -28.4051,-8.23368 -11.0245,-6.82213 -24.624,-8.10639 -36.4218,-3.4335 l -0.1776,0.0748 c -1.6463,0.75629 -3.189,1.60249 -4.6022,2.5086 -3.522,2.24289 -7.351,4.10007 -11.4908,5.55657 -6.4483,2.46 -13.211,3.66192 -20.0996,3.60201 -9.948,-0.10103 -19.663,-2.8831 -28.1201,-8.05022 -13.3405,-8.15882 -30.1733,-8.17761 -42.8739,-0.0566 -6.2447,3.98763 -13.1592,6.63493 -20.6656,7.89301 -0.9507,0.15347 -1.9275,0.28076 -2.8782,0.3931 l -0.4624,0.0412 c -2.3381,0.23963 -4.2915,0.34076 -6.1672,0.32207 -10.4363,-0.10487 -20.5657,-3.16396 -29.3298,-8.84408 l -0.1518,-0.0939 c -10.9506,-6.30538 -23.8027,-7.30888 -35.2676,-2.76328 l -0.1813,0.0748 c -1.6425,0.75629 -3.1852,1.59875 -4.6244,2.5087 -3.4961,2.24279 -7.325,4.09997 -11.4907,5.55647 -6.4261,2.46 -13.2111,3.69192 -20.0995,3.60585 -7.2215,-0.0748 -14.3173,-1.58764 -20.8987,-4.38092 v 7.50365 c 6.6333,2.46374 13.6772,3.81165 20.8468,3.8866 7.7357,0.0901 15.3457,-1.28809 22.5154,-4.02146 4.5504,-1.59876 8.8678,-3.69183 12.8263,-6.22295 1.132,-0.71891 2.3935,-1.40043 3.7032,-2.01447 9.3302,-3.6694 20.229,-2.80077 29.1486,2.31775 9.8704,6.35782 21.2316,9.78384 32.9258,9.89618 2.1088,0.0259 4.3951,-0.0939 6.9663,-0.35572 l 0.4883,-0.0489 c 1.0802,-0.11982 2.1568,-0.2659 3.3925,-0.46806 8.3018,-1.38538 16.0634,-4.36213 23.0813,-8.8553 10.5142,-6.721 24.4947,-6.66857 35.6266,0.1273 9.5078,5.8149 20.4325,8.94894 31.6125,9.06129 7.7394,0.0335 15.3715,-1.28435 22.5449,-4.02147 4.5468,-1.60249 8.8678,-3.69556 12.8263,-6.22295 1.1284,-0.73022 2.364,-1.38921 3.6995,-2.01821 9.7409,-3.83417 21.0244,-2.74459 30.1771,2.92058 9.5855,5.94593 20.6397,9.14727 31.9492,9.26709 2.5971,0.0259 5.2681,-0.1273 7.9947,-0.45675 l -0.825,-6.96447 c -2.4158,0.2958 -4.8057,0.44188 -7.092,0.40814 z m 0,39.11302 c -10.0517,-0.10113 -19.8702,-2.94675 -28.4051,-8.23369 -11.0245,-6.82213 -24.624,-8.10648 -36.4218,-3.43359 l -0.1776,0.0786 c -1.6722,0.77134 -3.189,1.59137 -4.6022,2.50496 -3.522,2.24289 -7.351,4.1038 -11.4908,5.56031 -6.4483,2.46 -13.1851,3.6507 -20.0996,3.59827 -9.948,-0.0974 -19.663,-2.87937 -28.1201,-8.05022 -13.3405,-8.15508 -30.1733,-8.17013 -42.8739,-0.0527 -6.2447,3.98763 -13.1592,6.63493 -20.4584,7.85554 l -0.2072,0.0335 c -0.9507,0.1572 -1.9275,0.28459 -2.8782,0.3931 l -0.4624,0.0412 c -2.2863,0.2359 -4.3174,0.3445 -6.1672,0.32581 -10.4363,-0.1086 -20.5657,-3.16395 -29.3298,-8.84782 l -0.1518,-0.0939 c -10.9506,-6.30164 -23.8027,-7.30514 -35.2676,-2.76328 l -0.1813,0.0786 c -1.6425,0.75638 -3.2112,1.60259 -4.6244,2.50496 -3.4961,2.24279 -7.325,4.10371 -11.4907,5.56031 -6.452,2.46 -13.2111,3.67687 -20.0995,3.60201 -7.2215,-0.0748 -14.3173,-1.5839 -20.8987,-4.37709 v 7.5073 c 6.6333,2.46 13.6772,3.808 20.8209,3.87912 7.7616,0.0489 15.3716,-1.28435 22.5413,-4.01763 4.5504,-1.60259 8.8678,-3.6994 12.8263,-6.22305 1.1579,-0.73012 2.3677,-1.39285 3.7032,-2.01821 9.3302,-3.66565 20.229,-2.80076 29.1486,2.31776 9.8704,6.35782 21.2316,9.78384 32.9258,9.89992 2.1347,0.0297 4.3951,-0.0939 6.9145,-0.35198 l 0.5143,-0.0566 c 1.106,-0.11981 2.1826,-0.2658 3.2111,-0.43057 l 0.2072,-0.0336 c 8.3018,-1.38538 16.0634,-4.36587 23.0813,-8.8553 10.5142,-6.72474 24.4947,-6.67231 35.6266,0.12356 9.5078,5.8149 20.4584,8.95268 31.6125,9.06502 7.7653,0.0633 15.3715,-1.28808 22.5449,-4.0252 4.5468,-1.59875 8.8678,-3.69182 12.8263,-6.22295 1.1284,-0.72648 2.3381,-1.38922 3.6995,-2.01821 9.7409,-3.83417 21.0244,-2.74459 30.1771,2.92432 9.5855,5.94593 20.6397,9.15101 31.9492,9.26335 2.5711,0.022 5.2681,-0.1273 7.9947,-0.45675 l -0.825,-6.96448 c -2.4158,0.29581 -4.8057,0.43442 -7.092,0.40815 z M 2064.3327,277.011 c 4.5504,-1.60249 8.8678,-3.69556 12.8263,-6.22304 1.1579,-0.73013 2.3677,-1.38912 3.7032,-2.02186 9.3302,-3.65818 20.229,-2.78955 29.1486,2.32523 9.8704,6.35782 21.2316,9.7801 32.9258,9.89618 2.1347,0.0221 4.3951,-0.0939 6.9145,-0.35197 l 0.5143,-0.0527 c 1.106,-0.12356 2.1826,-0.26964 3.4183,-0.46806 8.3018,-1.38538 16.0634,-4.36213 23.0813,-8.8553 10.5142,-6.72474 24.4947,-6.66857 35.6266,0.12356 9.5078,5.8149 20.4325,8.94521 31.6125,9.06503 7.7394,0.0633 15.3715,-1.28809 22.5449,-4.02138 4.5468,-1.60258 8.8678,-3.69565 12.8263,-6.22304 1.1284,-0.73022 2.3381,-1.38922 3.6995,-2.01821 9.7668,-3.83417 21.0244,-2.74833 30.1771,2.92058 9.5855,5.94593 20.6397,9.14727 31.9492,9.26709 2.5971,0.0259 5.2681,-0.1273 7.9947,-0.46049 l -0.825,-6.96064 c -2.4158,0.29197 -4.8057,0.43058 -7.092,0.40431 -10.0517,-0.10103 -19.8702,-2.94675 -28.4051,-8.23368 -11.0245,-6.82213 -24.624,-8.10265 -36.4218,-3.4335 l -0.1776,0.0786 c -1.6722,0.77125 -3.189,1.59128 -4.6022,2.50487 -3.522,2.24289 -7.351,4.1038 -11.4908,5.5603 -6.4483,2.46001 -13.2369,3.63202 -20.0996,3.60201 -9.948,-0.10103 -19.663,-2.88684 -28.1201,-8.05395 -13.3405,-8.15509 -30.1733,-8.17387 -42.8739,-0.0527 -6.2447,3.98763 -13.1592,6.63493 -20.4584,7.85554 l -0.2072,0.0335 c -0.9507,0.1573 -1.9015,0.2846 -2.8782,0.3932 l -0.4624,0.0451 c -2.2863,0.23206 -4.3174,0.34067 -6.1672,0.31824 -10.4363,-0.10487 -20.5657,-3.16022 -29.3298,-8.84035 l -0.1518,-0.0939 c -10.9506,-6.30538 -23.8027,-7.31262 -35.2676,-2.76702 l -0.1813,0.0786 c -1.6685,0.77134 -3.1852,1.59137 -4.6244,2.50496 -3.4961,2.2428 -7.325,4.10371 -11.4907,5.56031 -6.452,2.46 -13.2111,3.66566 -20.0995,3.59827 -7.2215,-0.0709 -14.3173,-1.58016 -20.8987,-4.37335 v 7.50356 c 6.6333,2.46374 13.6772,3.81174 20.8209,3.88287 7.7616,0.0335 15.3716,-1.28435 22.5413,-4.01764 z m 0,-39.11301 c 4.5504,-1.60249 8.8678,-3.69556 12.8263,-6.22295 1.132,-0.72648 2.3935,-1.40417 3.7032,-2.01821 9.3302,-3.6694 20.229,-2.80077 29.1486,2.31775 9.8704,6.35782 21.2316,9.7801 32.9258,9.89992 2.1088,0.0259 4.3951,-0.0974 6.9663,-0.35945 l 0.4883,-0.0489 c 1.0802,-0.11982 2.1568,-0.2659 3.1853,-0.43432 l 0.2072,-0.0335 c 8.3018,-1.38548 16.0634,-4.36214 23.0813,-8.8553 10.5142,-6.72101 24.4947,-6.66867 35.6266,0.12355 9.5078,5.81864 20.4325,8.95259 31.6125,9.0612 7.7394,0.0489 15.3715,-1.28052 22.5449,-4.0139 4.5468,-1.60258 8.8678,-3.69939 12.8263,-6.22678 1.1284,-0.73012 2.364,-1.38912 3.6995,-2.01821 9.7409,-3.83417 21.0244,-2.7445 30.1771,2.92432 9.5855,5.94219 12.1567,-0.69638 3.6218,-5.98341 -11.0245,-6.82214 -24.624,-8.10639 -36.4218,-3.4335 l -0.1776,0.0748 c -1.6463,0.76012 -3.189,1.60258 -4.6022,2.50869 -3.522,2.23906 -7.351,4.09997 -11.4908,5.56031 -6.4483,2.45627 -13.211,3.65071 -20.0996,3.59827 -9.948,-0.10112 -19.663,-2.88684 -28.1201,-8.05031 -13.3405,-8.15508 -30.1733,-8.17378 -42.8739,-0.0527 -6.2447,3.98773 -13.1592,6.63119 -20.6656,7.88554 -0.9507,0.16103 -1.9275,0.28833 -2.8782,0.39693 l -0.4624,0.0451 c -2.3381,0.2359 -4.2915,0.33693 -6.1672,0.31824 -10.4363,-0.10487 -20.5657,-3.16396 -29.3298,-8.84025 l -0.1518,-0.0974 c -10.9506,-6.30538 -23.8027,-7.31262 -35.2676,-2.76328 l -0.1813,0.0748 c -1.6425,0.75628 -3.1852,1.59875 -4.6244,2.50869 -3.4961,2.2428 -7.325,4.10371 -11.4907,5.56021 -6.4261,2.45627 -13.2111,3.67697 -20.0995,3.59828 -7.1957,-0.0709 -14.2914,-1.58007 -20.8728,-4.36578 V 238.04 c 6.6332,2.45627 13.6513,3.80417 20.8209,3.87539 7.7357,0.0748 15.3457,-1.28809 22.5154,-4.01773"
            style={{
              fill: "#000000",
              fillOpacity: 1,
              fillRule: "nonzero",
              stroke: "none",
              strokeWidth: "0.9527939"
            }}
          />
          <path
            id="path2653"
            d="m 2411.0122,97.902275 h -350.0905 c -22.0677,0 -39.929,18.099955 -39.929,40.427175 v 41.45694 c 5.5788,1.85717 11.5758,2.88693 17.754,2.94684 11.7867,0.11982 22.8076,-3.26134 32.0639,-9.18484 11.942,-7.62338 27.1731,-7.29384 39.2446,0.0863 8.7346,5.33189 18.9379,8.44715 29.8811,8.55949 7.5211,0.0786 14.702,-1.29173 21.3574,-3.82669 4.2619,-1.50146 8.3388,-3.46715 12.1271,-5.87481 1.3393,-0.86489 2.7599,-1.62128 4.1805,-2.28401 10.4437,-4.13745 22.3562,-3.17891 32.3006,2.54617 8.9935,5.83359 19.6741,9.28214 31.1686,9.39822 2.2086,0.022 4.3913,-0.11982 6.5482,-0.34077 0.159,-0.0153 0.3181,-0.0259 0.4735,-0.0451 1.0284,-0.11608 2.0532,-0.25085 3.078,-0.41936 l 0.1332,-0.0221 c 7.8911,-1.32173 15.279,-4.19362 21.805,-8.36107 11.9421,-7.62338 27.1694,-7.29009 39.2409,0.0901 8.7347,5.33189 18.9417,8.44715 29.8812,8.55576 7.5248,0.0748 14.7315,-1.29557 21.3574,-3.82669 4.2877,-1.5052 8.3388,-3.46724 12.1271,-5.87481 1.3429,-0.86863 2.7598,-1.61754 4.1804,-2.28401 10.8396,-4.28727 23.2257,-3.119 33.355,3.16021 8.7827,5.45171 19.1192,8.63809 30.1956,8.75044 2.549,0.0259 5.0498,-0.13478 7.5212,-0.43058 v -42.77493 c 0,-22.32732 -17.8873,-40.427274 -39.955,-40.427274"
            style={{
              fill: "#5ca8c7",
              fillOpacity: 1,
              fillRule: "nonzero",
              stroke: "none",
              strokeWidth: "0.9527939"
            }}
          />
          <path
            id="path2655"
            d="m 2333.5773,276.6666 -98.3743,57.75215 -90.8236,-34.40274 c -4.469,2.01073 -8.864,4.12623 -13.1776,6.38408 -0.3404,0.16851 -0.6549,0.34076 -0.9731,0.51291 -4.9167,2.59487 -9.7039,5.35442 -14.3875,8.25247 -0.603,0.37824 -1.2097,0.75639 -1.8127,1.14201 -2.0274,1.27687 -4.051,2.57982 -6.0228,3.9166 -0.6585,0.44179 -1.317,0.89116 -1.9497,1.34043 -1.576,1.0821 -3.1298,2.18288 -4.6799,3.29872 -0.9471,0.67769 -1.8683,1.35548 -2.7894,2.04812 -1.2098,0.89489 -2.3937,1.80848 -3.5775,2.7259 -1.6574,1.28426 -3.2852,2.5873 -4.9167,3.91651 -0.788,0.64404 -1.5796,1.28435 -2.3418,1.93203 -1.2356,1.02603 -2.4195,2.05569 -3.6293,3.10405 -0.3957,0.35198 -0.7879,0.71143 -1.2097,1.06341 -2.4713,2.1942 -4.8945,4.43699 -7.2585,6.73222 -0.2368,0.23216 -0.5031,0.46432 -0.7398,0.69648 -2.7599,2.69216 -5.4421,5.44423 -8.0725,8.25994 -20.4917,22.00899 -35.6413,45.34728 -45.8224,74.13718 l -0.052,55.04877 95.533,-23.15099 123.9935,-29.92453 112.7841,-27.40078 33.144,-8.05405 7.0994,-1.72605 25.1717,-6.38408 32.2747,-7.57468 v -104.7994 l -117.3899,1.15332"
            style={{
              fill: "#000000",
              fillOpacity: 1,
              fillRule: "nonzero",
              stroke: "none",
              strokeWidth: "0.9527939"
            }}
          />
          <path
            id="path2657"
            d="m 2233.0979,207.70392 -68.2082,-40.60316 -58.8707,91.5856 c -3.0706,4.76655 -4.3174,10.74622 -2.8708,16.7071 2.7228,11.28539 13.9842,18.19734 25.1161,15.4378 5.468,-1.34417 9.863,-4.75149 12.6339,-9.19223 -2.4195,4.46317 -3.2963,9.81001 -1.9977,15.14564 2.7228,11.28539 13.9583,18.19734 25.1161,15.43779 6.4409,-1.59511 11.4352,-6.09201 13.9805,-11.77961 l 55.1008,-92.73893"
            style={{
              fill: "#fffaf5",
              fillOpacity: 1,
              fillRule: "nonzero",
              stroke: "none",
              strokeWidth: "0.9527939"
            }}
          />
          <path
            id="path2659"
            d="m 2228.8435,207.70392 67.9974,-40.6069 59.0594,91.59318 c 3.0891,4.76271 4.3247,10.73864 2.8856,16.70326 -2.7044,11.28539 -13.9806,18.19734 -25.1051,15.4378 -5.4568,-1.34417 -9.8592,-4.75149 -12.6154,-9.19223 2.4195,4.4669 3.2705,9.81001 1.983,15.14564 -2.7302,11.28539 -13.9546,18.20108 -25.1273,15.44153 -6.4371,-1.59885 -11.4315,-6.09575 -13.9805,-11.78335 l -55.0971,-92.73893"
            style={{
              fill: "#fffaf5",
              fillOpacity: 1,
              fillRule: "nonzero",
              stroke: "none",
              strokeWidth: "0.9527939"
            }}
          />
          <path
            id="path2661"
            d="m 2230.7931,309.08851 c -36.4884,0 -66.0551,-29.92453 -66.0551,-66.8396 v -76.28268 h 132.0881 v 76.28268 c 0,36.91507 -29.5667,66.8396 -66.033,66.8396"
            style={{
              fill: "#fadcc5",
              fillOpacity: 1,
              fillRule: "nonzero",
              stroke: "none",
              strokeWidth: "0.9527939"
            }}
          />
          <path
            id="path2663"
            d="m 2232.2286,425.70481 c -7.203,-7.08794 -12.4046,-15.99567 -14.9795,-25.7795 -4.0028,-15.16442 -16.1595,-26.95152 -30.9909,-30.03304 -10.3292,-2.1455 -19.8073,-7.23028 -27.4358,-14.7002 -7.129,-7.00186 -12.2824,-15.79715 -14.8832,-25.44248 -2.4527,-9.03128 -7.7542,-16.82317 -14.7315,-22.30488 -4.5282,2.43383 -9.0047,4.99122 -13.3554,7.69086 -0.603,0.37814 -1.2281,0.75629 -1.8275,1.13827 -2.0274,1.28051 -4.0251,2.58355 -6.0044,3.9165 -0.6474,0.44179 -1.3244,0.89116 -1.9496,1.34043 -1.576,1.08219 -3.152,2.18298 -4.6762,3.29882 -0.9508,0.67769 -1.8756,1.35911 -2.8005,2.04811 -1.2024,0.8949 -2.4011,1.80849 -3.5775,2.72581 -1.65,1.28435 -3.3037,2.59103 -4.9018,3.9166 -0.8029,0.64021 -1.5761,1.28426 -2.353,1.93578 -1.2246,1.02219 -2.4269,2.05559 -3.6255,3.10031 -0.3996,0.34814 -0.7991,0.70759 -1.2024,1.06331 -2.4749,2.19419 -4.9018,4.43699 -7.277,6.73232 -0.2515,0.23589 -0.4994,0.46431 -0.7251,0.70011 -2.7783,2.68843 -5.4531,5.4405 -8.0797,8.25621 -20.5103,22.00908 -35.6413,45.38102 -45.8224,74.17092 l -0.048,55.04877 95.5182,-23.18473 22.7374,-5.27946 101.2709,-24.61133 c -2.8486,-1.3479 -5.8009,-3.33984 -8.2795,-5.74751"
            style={{
              fill: "#f53535",
              fillOpacity: 1,
              fillRule: "nonzero",
              stroke: "none",
              strokeWidth: "0.9527939"
            }}
          />
          <path
            id="path2665"
            d="m 2109.7778,429.82357 c -4.1472,-1.8197 -8.4424,-3.16022 -12.8301,-3.9652 -1.5871,-0.29207 -3.1224,-0.69648 -4.6354,-1.1907 -10.8286,-4.24606 -19.171,-13.59184 -22.4377,-25.15425 -2.8302,-10.03469 -8.3203,-19.44786 -16.3926,-27.10498 -0.2183,-0.19477 -0.5106,-0.47927 -0.7326,-0.67021 -15.046,17.65433 -24.9977,34.96425 -31.7049,57.7371 0,0 -0.1221,53.94425 -0.074,55.05251 l 95.5367,-23.17725 22.7336,-5.28694 c -2.8782,-5.13347 -6.685,-10.18824 -11.1467,-14.4343 -5.5123,-5.20459 -11.709,-9.1211 -18.3164,-11.80578"
            style={{
              fill: "#f0b83a",
              fillOpacity: 1,
              fillRule: "nonzero",
              stroke: "none",
              strokeWidth: "0.9527939"
            }}
          />
          <path
            id="path2667"
            d="m 2235.6618,342.57009 h -9.3044 c -33.7767,0 -61.1607,-27.7079 -61.1607,-61.89334 v -30.59847 h 131.6294 v 30.59847 c 0,34.18544 -27.3876,61.89334 -61.1643,61.89334"
            style={{
              fill: "#fffaf5",
              fillOpacity: 1,
              fillRule: "nonzero",
              stroke: "none",
              strokeWidth: "0.9527939"
            }}
          />
          <path
            id="path2669"
            d="m 2235.0661,221.76755 h -26.9622 c 0,8.23004 6.5999,14.89862 14.7093,14.89862 h 17.9502 c 8.1316,0 14.7353,-6.66858 14.7353,-14.89862 h -20.4326"
            style={{
              fill: "#fffaf5",
              fillOpacity: 1,
              fillRule: "nonzero",
              stroke: "none",
              strokeWidth: "0.9527939"
            }}
          />
          <path
            id="path2671"
            d="m 2226.5387,158.6236 -61.7934,21.45112 0.1518,-19.98704 53.7653,-24.67498 7.8763,23.2109"
            style={{
              fill: "#fffaf5",
              fillOpacity: 1,
              fillRule: "nonzero",
              stroke: "none",
              strokeWidth: "0.9527939"
            }}
          />
          <path
            id="path2673"
            d="m 2235.1956,158.61613 61.8007,21.45111 -0.1554,-19.98704 -53.7838,-24.67871 -7.8615,23.21464"
            style={{
              fill: "#fffaf5",
              fillOpacity: 1,
              fillRule: "nonzero",
              stroke: "none",
              strokeWidth: "0.9527939"
            }}
          />
          <path
            id="path2675"
            d="m 2279.3273,98.10817 v 11.5811 c 0,6.45521 -5.1719,11.68597 -11.561,11.68597 -6.3669,0 -11.5389,-5.23076 -11.5389,-11.68597 v -11.5811 h -14.3764 v 12.13159 c 0,6.45137 -5.1719,11.68223 -11.5647,11.68223 -6.3632,0 -11.5351,-5.23086 -11.5351,-11.68223 V 98.10817 h -14.3801 v 12.62208 c 0,6.45137 -5.1719,11.68597 -11.561,11.68597 -6.3669,0 -11.5389,-5.2346 -11.5389,-11.68597 V 98.10817 h -16.5332 v 68.99259 h 132.0881 V 98.10817 h -17.4988"
            style={{
              fill: "#f0b83a",
              fillOpacity: 1,
              fillRule: "nonzero",
              stroke: "none",
              strokeWidth: "0.9527939"
            }}
          />
          <path
            id="path2677"
            d="m 2122.974,257.64922 c -5.7565,0 -10.4179,4.7328 -10.4179,10.55144 0,5.8149 4.6614,10.5477 10.4179,10.5477 5.7343,0 10.4179,-4.7328 10.4179,-10.5477 0,-5.81864 -4.6836,-10.55144 -10.4179,-10.55144 z m 0,28.11221 c -9.5633,0 -17.3471,-7.8817 -17.3471,-17.56077 0,-9.68645 7.7838,-17.56451 17.3471,-17.56451 9.5632,0 17.3471,7.87806 17.3471,17.56451 0,9.67907 -7.7839,17.56077 -17.3471,17.56077"
            style={{
              fill: "#000000",
              fillOpacity: 1,
              fillRule: "nonzero",
              stroke: "none",
              strokeWidth: "0.9527939"
            }}
          />
          <path
            id="path2679"
            d="m 2339.4151,257.60427 c -5.7638,0 -10.4179,4.7328 -10.4179,10.55153 0,5.8149 4.6541,10.5477 10.4179,10.5477 5.7343,0 10.4179,-4.7328 10.4179,-10.5477 0,-5.81873 -4.6836,-10.55153 -10.4179,-10.55153 z m 0,28.1123 c -9.5706,0 -17.3656,-7.87806 -17.3656,-17.56077 0,-9.68281 7.795,-17.56087 17.3656,-17.56087 9.5449,0 17.336,7.87806 17.336,17.56087 0,9.68271 -7.7911,17.56077 -17.336,17.56077"
            style={{
              fill: "#000000",
              fillOpacity: 1,
              fillRule: "nonzero",
              stroke: "none",
              strokeWidth: "0.9527939"
            }}
          />
          <path
            id="path2681"
            d="m 2301.5393,279.5197 c -5.7342,0 -10.4253,4.7328 -10.4253,10.55143 0,5.8149 4.6911,10.5477 10.4253,10.5477 5.7602,0 10.4253,-4.7328 10.4253,-10.5477 0,-5.81863 -4.6651,-10.55143 -10.4253,-10.55143 z m 0,28.11221 c -9.5596,0 -17.336,-7.87797 -17.336,-17.56078 0,-9.68271 7.7764,-17.56451 17.336,-17.56451 9.5855,0 17.3619,7.8818 17.3619,17.56451 0,9.68281 -7.7764,17.56078 -17.3619,17.56078"
            style={{
              fill: "#000000",
              fillOpacity: 1,
              fillRule: "nonzero",
              stroke: "none",
              strokeWidth: "0.9527939"
            }}
          />
          <path
            id="path2683"
            d="m 2159.5179,279.2052 c -5.7379,0 -10.4142,4.7328 -10.4142,10.5477 0,5.81864 4.6763,10.55144 10.4142,10.55144 5.7602,0 10.4402,-4.7328 10.4402,-10.55144 0,-5.8149 -4.68,-10.5477 -10.4402,-10.5477 z m 0,28.10847 c -9.5521,0 -17.3323,-7.87796 -17.3323,-17.56077 0,-9.67907 7.7802,-17.56078 17.3323,-17.56078 9.5781,0 17.3582,7.88171 17.3582,17.56078 0,9.68281 -7.7801,17.56077 -17.3582,17.56077"
            style={{
              fill: "#000000",
              fillOpacity: 1,
              fillRule: "nonzero",
              stroke: "none",
              strokeWidth: "0.9527939"
            }}
          />
          <path
            id="path2685"
            d="m 2450.9672,275.51328 -94.6119,0.78629 c 0.1591,0.58788 0.37,1.16453 0.5253,1.75615 3.8401,13.85764 15.0461,24.54011 28.6196,27.20984 11.0209,2.17167 21.1465,7.46618 29.3262,15.31798 7.6284,7.35748 13.2036,16.65092 16.0708,26.86907 3.0521,10.8136 10.5473,19.63516 20.07,24.24814 v -96.18747"
            style={{
              fill: "#f53535",
              fillOpacity: 1,
              fillRule: "nonzero",
              stroke: "none",
              strokeWidth: "0.9527939"
            }}
          />
          <path
            id="path2687"
            d="m 2386.4251,395.99375 -33.1367,8.05779 V 132.80662 l 16.5554,-19.28318 16.5813,19.28318 v 263.18713"
            style={{
              fill: "#fffaf5",
              fillOpacity: 1,
              fillRule: "nonzero",
              stroke: "none",
              strokeWidth: "0.9527939"
            }}
          />
          <path
            id="path2689"
            d="m 2395.6,344.24754 -0.1333,0.0939 v -0.14609 l -53.1031,-9.77636 c 2.1051,17.86032 2.5232,35.17398 1.3948,51.54032 l 33.6398,3.26508 16.1226,5.0473 57.4464,-13.95877 v -7.78067 L 2395.6,344.24783"
            style={{
              fill: "#fab582",
              fillOpacity: 1,
              fillRule: "nonzero",
              stroke: "none",
              strokeWidth: "0.9527939"
            }}
          />
          <path
            id="path2691"
            d="m 2385.626,370.00087 -41.2424,-7.58973 c 0.052,2.39262 0.078,4.77018 0.052,7.13289 l 39.9438,7.35384 c 1.8683,0.34814 3.6848,-0.91368 4.0214,-2.81945 0.3367,-1.90587 -0.91,-3.73314 -2.7746,-4.07755 z m -42.0489,-23.94485 c 0.2072,2.41878 0.3626,4.82635 0.4921,7.21897 l 43.1106,7.94171 c 1.8941,0.3445 3.6848,-0.92106 4.0473,-2.82319 0.3366,-1.90587 -0.9064,-3.73314 -2.8006,-4.07754 l -44.8494,-8.25995"
            style={{
              fill: "#000000",
              fillOpacity: 1,
              fillRule: "nonzero",
              stroke: "none",
              strokeWidth: "0.9527939"
            }}
          />
          <path
            id="path2693"
            d="m 2407.2497,332.6626 h -76.2029 v -18.11117 h 76.2029 v 18.11117"
            style={{
              fill: "#fffaf5",
              fillOpacity: 1,
              fillRule: "nonzero",
              stroke: "none",
              strokeWidth: "0.9527939"
            }}
          />
          <path
            id="path2695"
            d="m 2369.8438,314.53648 h 16.5813 V 132.79167 l -16.5813,-19.28318 v 201.02799"
            style={{
              fill: "#000000",
              fillOpacity: 1,
              fillRule: "nonzero",
              stroke: "none",
              strokeWidth: "0.9527939"
            }}
          />
          <path
            id="path2697"
            d="m 2015.6395,148.27058 c -0.3072,-14.07858 -31.1242,-40.18754 -31.1242,-40.18754 -0.07,0 -30.9096,26.10896 -31.1945,40.18754 l -0.023,0.20973 c 0,8.05396 6.452,14.58029 14.3912,14.58029 4.2544,0 13.7068,0 16.4704,0 0.2848,0 0.5216,0 0.64,0 1.4168,0 11.8644,0 16.448,0 7.9652,0 14.4135,-6.52633 14.4135,-14.58029 l -0.022,-0.20973"
            style={{
              fill: "#000000",
              fillOpacity: 1,
              fillRule: "nonzero",
              stroke: "none",
              strokeWidth: "0.9527939"
            }}
          />
          <path
            id="path2699"
            d="m 1984.4893,166.85738 c -4.8389,0 -8.7605,3.91277 -8.8788,8.7766 h 17.7134 c -0.093,-4.86383 -4.0177,-8.7766 -8.8346,-8.7766"
            style={{
              fill: "#000000",
              fillOpacity: 1,
              fillRule: "nonzero",
              stroke: "none",
              strokeWidth: "0.9527939"
            }}
          />
          <path
            id="path2701"
            d="m 2460.2307,715.52522 c 0.2923,14.08232 31.1021,40.19137 31.1021,40.19137 0.078,0 30.9132,-26.10905 31.2055,-40.19137 l 0.026,-0.2059 c 0,-8.05405 -6.4445,-14.58411 -14.4134,-14.58411 -4.2507,0 -13.6919,0 -16.4444,0 -0.296,0 -0.5364,0 -0.6696,0 -1.3911,0 -11.8459,0 -16.4186,0 -7.9687,0 -14.4133,6.53006 -14.4133,14.58411 l 0.026,0.2059"
            style={{
              fill: "#000000",
              fillOpacity: 1,
              fillRule: "nonzero",
              stroke: "none",
              strokeWidth: "0.9527939"
            }}
          />
          <path
            id="path2703"
            d="m 2491.3846,696.93852 c 4.8427,0 8.7531,-3.91287 8.8603,-8.7767 H 2482.55 c 0.081,4.86383 3.9919,8.7767 8.8346,8.7767"
            style={{
              fill: "#000000",
              fillOpacity: 1,
              fillRule: "nonzero",
              stroke: "none",
              strokeWidth: "0.9527939"
            }}
          />
          <path
            id="path2705"
            d="m 1984.6114,41.307086 v 2.740855 l -5.4087,1.291731 c -0.4957,0.08243 -1.7684,0.565444 -1.7684,2.740855 v 19.758711 c 2.1494,-0.161035 4.0843,-1.613801 4.8649,-2.662254 l 13.6217,-16.935422 c 0.5697,-0.722645 1.2061,-1.452862 1.2061,-2.336446 0,-0.483009 -0.3293,-1.209392 -1.6056,-1.452862 l -2.4565,-0.404313 v -2.740855 h 17.0474 v 2.740855 l -2.7155,0.565348 c -1.1097,0.239636 -4.0583,0.969757 -6.3039,3.628273 l -15.5381,18.792597 18.7493,22.817803 c 2.6229,3.145263 5.0794,4.276055 6.2818,4.598029 l 1.9126,0.565348 v 2.740855 h -20.7099 v -2.740855 l 3.5663,-0.887322 c 1.0618,-0.239636 1.206,-1.048453 1.206,-1.452862 0,-0.56161 -0.4032,-1.449028 -0.8027,-1.935775 l -13.533,-17.175155 c -0.9655,-1.209392 -2.0754,-2.336446 -3.988,-2.336446 h -0.8029 v 19.754974 c 0,2.179245 1.2727,2.662255 1.7684,2.740855 l 5.4087,1.291731 v 2.740855 h -22.3156 v -2.740855 l 5.431,-1.291731 c 0.4735,-0.0786 1.7499,-0.56161 1.7499,-2.740855 V 48.080527 c 0,-2.175411 -1.2764,-2.65842 -1.7499,-2.740855 l -5.431,-1.291731 v -2.740855 h 22.3156"
            style={{
              fill: "#000000",
              fillOpacity: 1,
              fillRule: "nonzero",
              stroke: "none",
              strokeWidth: "0.9527939"
            }}
          />
          <path
            id="path2707"
            d="m 2491.2402,822.82574 v -2.74086 l 5.4162,-1.29547 c 0.4809,-0.0786 1.761,-0.55796 1.761,-2.73337 v -19.76245 c -2.1606,0.16103 -4.0806,1.6138 -4.8834,2.66225 l -13.6106,16.93916 c -0.5586,0.71891 -1.1986,1.44529 -1.1986,2.33645 0,0.47927 0.3181,1.20949 1.6018,1.44912 l 2.4528,0.40431 v 2.74086 h -17.0252 v -2.74086 l 2.6969,-0.56908 c 1.121,-0.23964 4.0547,-0.96602 6.2967,-3.6208 l 15.5306,-18.79633 -18.7344,-22.82154 c -2.6157,-3.14153 -5.0684,-4.27232 -6.2967,-4.5943 l -1.8941,-0.56534 v -2.74086 h 20.71 v 2.74086 l -3.5774,0.88732 c -1.0397,0.23963 -1.2025,1.04845 -1.2025,1.45286 0,0.56161 0.4033,1.44903 0.8029,1.93204 l 13.5291,17.17889 c 0.962,1.20939 2.0829,2.34018 4.003,2.34018 h 0.7991 v -19.75871 c 0,-2.17915 -1.2801,-2.66225 -1.761,-2.74085 l -5.4162,-1.29173 v -2.74086 h 22.3119 v 2.74086 l -5.4197,1.29173 c -0.481,0.0786 -1.761,0.5617 -1.761,2.74085 v 42.90597 c 0,2.17541 1.28,2.65468 1.761,2.73337 l 5.4197,1.29547 v 2.74086 h -22.3119"
            style={{
              fill: "#000000",
              fillOpacity: 1,
              fillRule: "nonzero",
              stroke: "none",
              strokeWidth: "0.9527939"
            }}
          />
          <path
            id="path2709"
            d="m 2263.8817,195.01829 c 0,2.90927 -2.338,5.26824 -5.2089,5.26824 -2.893,0 -5.2052,-2.35897 -5.2052,-5.26824 0,-2.91311 2.3122,-5.27198 5.2052,-5.27198 2.8709,0 5.2089,2.35887 5.2089,5.27198"
            style={{
              fill: "#000000",
              fillOpacity: 1,
              fillRule: "nonzero",
              stroke: "none",
              strokeWidth: "0.9527939"
            }}
          />
          <path
            id="path2711"
            d="m 2207.2419,195.01829 c 0,2.90927 -2.3307,5.26824 -5.209,5.26824 -2.8781,0 -5.2089,-2.35897 -5.2089,-5.26824 0,-2.90937 2.3308,-5.27198 5.2089,-5.27198 2.8783,0 5.209,2.36261 5.209,5.27198"
            style={{
              fill: "#000000",
              fillOpacity: 1,
              fillRule: "nonzero",
              stroke: "none",
              strokeWidth: "0.9527939"
            }}
          />
          <path
            id="path2713"
            d="m 2269.7344,179.56928 c 4.9722,0 9.0121,-4.07754 9.0121,-9.10989 h -14.6428 c -5.2755,0 -9.7704,3.84912 -10.6546,9.10989 h 16.2853"
            style={{
              fill: "#fffaf5",
              fillOpacity: 1,
              fillRule: "nonzero",
              stroke: "none",
              strokeWidth: "0.9527939"
            }}
          />
          <path
            id="path2715"
            d="m 2194.0753,179.56928 c -4.9685,0 -8.9899,-4.07754 -8.9899,-9.10989 h 14.6502 c 5.2607,0 9.7556,3.85286 10.625,9.10989 h -16.2853"
            style={{
              fill: "#fffaf5",
              fillOpacity: 1,
              fillRule: "nonzero",
              stroke: "none",
              strokeWidth: "0.9527939"
            }}
          />
          <path
            id="path2717"
            d="m 2060.8958,765.79997 h 350.1164 c 22.0418,0 39.929,-18.09995 39.929,-40.43101 l 0.026,-345.98866 -430.0263,104.21526 v 241.7734 c 0,22.33106 17.9131,40.43101 39.9549,40.43101"
            style={{
              fill: "#f0b83a",
              fillOpacity: 1,
              fillRule: "nonzero",
              stroke: "none",
              strokeWidth: "0.9527939"
            }}
          />
          <path
            id="path2719"
            d="m 2126.5477,551.43483 c 10.0738,0.10113 19.885,2.94675 28.4087,8.23368 11.0209,6.82214 24.6426,8.10649 36.4294,3.42986 l 0.1553,-0.0748 c 1.6574,-0.75638 3.2112,-1.60258 4.6318,-2.50869 3.496,-2.2429 7.3362,-4.10007 11.4945,-5.55657 6.4408,-2.46001 13.2036,-3.66192 20.0921,-3.59828 9.9444,0.0974 19.6483,2.87937 28.1202,8.05022 13.3331,8.15518 30.1697,8.17387 42.8738,0.0527 6.2338,-3.98763 13.1519,-6.63483 20.6471,-7.88918 0.9731,-0.1573 1.9202,-0.28833 2.8931,-0.39319 l 0.4477,-0.0451 c 2.3417,-0.23589 4.3136,-0.33692 6.1819,-0.31823 10.4141,0.10112 20.5657,3.16022 29.3262,8.84025 l 0.159,0.0939 c 10.9396,6.30548 23.8028,7.31262 35.2714,2.76329 l 0.1849,-0.0748 c 1.6316,-0.75255 3.1817,-1.59875 4.6023,-2.50486 3.4997,-2.24663 7.3399,-4.10754 11.4944,-5.56031 6.4446,-2.46 13.2036,-3.68818 20.0959,-3.60201 7.2326,0.0709 14.306,1.5838 20.9098,4.37709 v -7.50366 c -6.6556,-2.46374 -13.6772,-3.81164 -20.8321,-3.88277 -7.7579,-0.0939 -15.3605,1.28052 -22.5413,4.01764 -4.5504,1.59875 -8.8641,3.69182 -12.8374,6.22304 -1.1283,0.72265 -2.364,1.40034 -3.681,2.01812 -9.3376,3.66565 -20.2254,2.80076 -29.1449,-2.3214 -9.863,-6.35791 -21.2501,-9.78019 -32.9296,-9.89627 -2.1309,-0.0259 -4.3913,0.0939 -6.9698,0.35571 l -0.4736,0.0489 c -1.1062,0.12355 -2.1827,0.26963 -3.3925,0.47179 -8.3128,1.38538 -16.0707,4.36213 -23.0962,8.85156 -10.5215,6.72101 -24.4872,6.66858 -35.6116,-0.12729 -9.5226,-5.81116 -20.4659,-8.94895 -31.6422,-9.05746 -7.7357,-0.0374 -15.3345,1.28426 -22.5153,4.01763 -4.5504,1.60249 -8.89,3.69557 -12.8374,6.22305 -1.132,0.73386 -2.3418,1.39286 -3.681,2.01811 -9.7853,3.83417 -21.0688,2.74834 -30.1957,-2.92048 -9.6002,-5.94603 -20.6507,-9.1511 -31.9602,-9.26718 -2.5749,-0.0259 -5.2607,0.12729 -7.9688,0.45674 l 0.814,6.96448 c 2.4231,-0.29581 4.7871,-0.43815 7.0771,-0.40441 z m 0,-39.11675 c 10.0738,0.0974 19.885,2.94675 28.4087,8.23378 11.0209,6.82204 24.6426,8.11012 36.4294,3.4335 l 0.1812,-0.0748 c 1.6574,-0.77134 3.1594,-1.59137 4.6059,-2.5087 3.496,-2.24289 7.3362,-4.1038 11.4945,-5.56031 6.4408,-2.46 13.1777,-3.6507 20.0921,-3.59827 9.9444,0.10113 19.6483,2.88311 28.1202,8.05022 13.3331,8.15892 30.1697,8.17387 42.8738,0.0527 6.2338,-3.98763 13.1519,-6.6311 20.4622,-7.85554 l 0.2109,-0.0335 c 0.9471,-0.1572 1.8942,-0.28459 2.8671,-0.38936 l 0.4477,-0.0451 c 2.3159,-0.23589 4.3395,-0.34076 6.1819,-0.32581 10.4141,0.10861 20.5657,3.1677 29.3521,8.84409 l 0.1331,0.0974 c 10.9396,6.30165 23.8028,7.30889 35.2714,2.75955 l 0.1849,-0.0748 c 1.6316,-0.75638 3.1817,-1.60258 4.6023,-2.50495 3.4997,-2.2429 7.3399,-4.10007 11.4944,-5.56031 6.4446,-2.45627 13.2036,-3.67314 20.0959,-3.59827 7.2326,0.0709 14.306,1.5838 20.9098,4.37708 v -7.5073 c -6.6556,-2.46 -13.6772,-3.81174 -20.8321,-3.88286 -7.7579,-0.0489 -15.3605,1.28799 -22.5413,4.01763 -4.5504,1.60633 -8.8641,3.6994 -12.8374,6.22679 -1.1283,0.73012 -2.338,1.38912 -3.681,2.01447 -9.3376,3.66939 -20.2254,2.80067 -29.1449,-2.31776 -9.863,-6.36155 -21.2501,-9.78009 -32.9296,-9.89991 -2.1309,-0.0259 -4.3913,0.0939 -6.944,0.35571 l -0.4994,0.0527 c -1.1062,0.11982 -2.1827,0.26581 -3.2075,0.43058 l -0.185,0.0374 c -8.3128,1.38165 -16.0707,4.36214 -23.0962,8.85156 -10.5215,6.72475 -24.4872,6.67232 -35.6116,-0.12365 -9.5226,-5.8149 -20.4659,-8.94885 -31.6163,-9.06119 -7.7616,-0.0633 -15.3604,1.28435 -22.5412,4.01763 -4.5504,1.60632 -8.89,3.6994 -12.8374,6.22678 -1.132,0.72639 -2.3418,1.38912 -3.681,2.01821 -9.7853,3.83417 -21.0688,2.7446 -30.1957,-2.92058 -9.6002,-5.94967 -20.6507,-9.1511 -31.9602,-9.26718 -2.5749,-0.0192 -5.2607,0.12739 -7.9688,0.45684 l 0.814,6.96438 c 2.4231,-0.29206 4.8167,-0.43431 7.0771,-0.40805 z m 281.0461,74.57532 c -4.5504,1.60633 -8.8641,3.69566 -12.8374,6.22305 -1.1283,0.73386 -2.338,1.39286 -3.681,2.02195 -9.3376,3.66192 -20.2254,2.79319 -29.1449,-2.32149 -9.863,-6.35782 -21.2501,-9.7801 -32.9296,-9.89992 -2.1309,-0.0221 -4.3913,0.0939 -6.944,0.35562 l -0.4994,0.0527 c -1.1062,0.11982 -2.1827,0.2659 -3.3925,0.46805 -8.3128,1.38165 -16.0707,4.36214 -23.0962,8.85156 -10.5215,6.72101 -24.5131,6.66858 -35.6116,-0.11981 -9.5226,-5.81864 -20.4659,-8.94886 -31.6422,-9.06494 -7.7357,-0.0671 -15.3605,1.28426 -22.5153,4.01764 -4.5504,1.60258 -8.89,3.69556 -12.8374,6.22304 -1.132,0.73012 -2.3418,1.39286 -3.681,2.01812 -9.7853,3.83416 -21.0688,2.74833 -30.1957,-2.91675 -9.6002,-5.94977 -20.6507,-9.1511 -31.9602,-9.26718 -2.5749,-0.0297 -5.2607,0.12729 -7.9688,0.45684 l 0.814,6.96438 c 2.4231,-0.29207 4.8167,-0.43058 7.0771,-0.41189 10.0738,0.10487 19.885,2.95049 28.4087,8.23743 11.0209,6.82213 24.6426,8.10648 36.4294,3.43359 l 0.1812,-0.0786 c 1.6574,-0.77134 3.1594,-1.59137 4.6059,-2.50496 3.496,-2.2428 7.3362,-4.1038 11.4945,-5.56031 6.4408,-2.45626 13.2295,-3.62818 20.0921,-3.60201 9.9444,0.10487 19.6483,2.89058 28.1202,8.05396 13.3331,8.15518 30.1697,8.17387 42.8738,0.0527 6.2338,-3.98763 13.1519,-6.63484 20.4622,-7.85554 l 0.1849,-0.0297 c 0.9731,-0.15721 1.9202,-0.28833 2.8931,-0.39684 l 0.4477,-0.0412 c 2.3159,-0.2359 4.3395,-0.3445 6.1819,-0.32207 10.4141,0.10487 20.5657,3.16396 29.3521,8.84035 l 0.1331,0.0973 c 10.9396,6.30174 23.8028,7.31271 35.2714,2.76338 l 0.1849,-0.0748 c 1.6574,-0.77508 3.1817,-1.59511 4.6023,-2.50869 3.4997,-2.2429 7.3399,-4.10381 11.4944,-5.55658 6.4446,-2.46374 13.2036,-3.66565 20.0959,-3.602 7.2326,0.0709 14.306,1.58379 20.9098,4.37334 v -7.50356 c -6.6556,-2.46 -13.6772,-3.81174 -20.8321,-3.88286 -7.7579,-0.0297 -15.3605,1.28425 -22.5413,4.01763 z m 0,39.11676 c -4.5504,1.59884 -8.8641,3.69182 -12.8374,6.2193 -1.1283,0.72639 -2.364,1.40408 -3.681,2.01812 -9.3376,3.66949 -20.2254,2.80076 -29.1449,-2.31766 -9.863,-6.35782 -21.2501,-9.7802 -32.9296,-9.89627 -2.1309,-0.0297 -4.3913,0.0939 -6.9698,0.35571 l -0.4736,0.0489 c -1.1062,0.11981 -2.1827,0.26963 -3.2075,0.43441 l -0.185,0.0335 c -8.3128,1.38538 -16.0707,4.36587 -23.0962,8.8552 -10.5215,6.7211 -24.4872,6.66867 -35.6116,-0.12356 -9.5226,-5.81864 -20.4659,-8.94885 -31.6422,-9.06119 -7.7357,-0.0489 -15.3345,1.28061 -22.5153,4.01763 -4.5504,1.60259 -8.89,3.69566 -12.8374,6.22305 -1.132,0.73012 -2.3418,1.39285 -3.681,2.01821 -9.7853,3.83416 -21.0688,2.74833 -30.1957,-2.92058 -9.6002,-5.94594 -12.1529,0.69273 -3.6292,5.97967 11.0209,6.82213 24.6426,8.10639 36.4294,3.43349 l 0.1553,-0.0748 c 1.6574,-0.76003 3.2112,-1.60259 4.6318,-2.5087 3.496,-2.23906 7.3362,-4.09997 11.4945,-5.55647 6.4408,-2.46 13.2036,-3.65444 20.0921,-3.60211 9.9444,0.10113 19.6483,2.8832 28.1202,8.05032 13.3331,8.15508 30.1697,8.17751 42.8738,0.0566 6.2338,-3.98773 13.1519,-6.63493 20.6731,-7.88928 0.9471,-0.16103 1.8942,-0.28833 2.8671,-0.3931 l 0.4477,-0.045 c 2.3417,-0.23963 4.3136,-0.34076 6.1819,-0.32207 10.4141,0.10487 20.5657,3.16022 29.3262,8.84408 l 0.159,0.0939 c 10.9396,6.30539 23.8028,7.31262 35.2714,2.76329 l 0.1849,-0.0748 c 1.6316,-0.75639 3.1817,-1.59885 4.6023,-2.5087 3.4997,-2.24279 7.3399,-4.10371 11.4944,-5.56031 6.4446,-2.45626 13.2036,-3.67687 20.0959,-3.59827 7.2066,0.0709 14.306,1.58016 20.8838,4.36587 v -7.50356 c -6.6296,-2.45626 -13.6772,-3.80052 -20.8061,-3.87538 -7.7579,-0.0748 -15.3605,1.28809 -22.5413,4.02137"
            style={{
              fill: "#000000",
              fillOpacity: 1,
              fillRule: "nonzero",
              stroke: "none",
              strokeWidth: "0.9527939"
            }}
          />
          <path
            id="path2721"
            d="m 2060.8921,766.00596 h 350.0905 c 22.0677,0 39.9549,-18.09995 39.9549,-40.431 v -41.45694 c -5.6047,-1.85344 -11.5758,-2.8831 -17.7799,-2.94675 -11.7867,-0.11982 -22.7817,3.26499 -32.0379,9.18849 -11.9422,7.62338 -27.1694,7.29392 -39.2447,-0.0901 -8.7309,-5.33189 -18.9379,-8.44715 -29.8811,-8.55575 -7.5212,-0.0786 -14.7279,1.29557 -21.3574,3.82669 -4.2878,1.50146 -8.3647,3.4635 -12.1234,5.87481 -1.3429,0.86872 -2.7635,1.62128 -4.1841,2.28401 -10.466,4.13745 -22.3822,3.17517 -32.297,-2.54982 -9.0231,-5.83368 -19.6741,-9.27839 -31.1686,-9.39447 -2.2381,-0.0221 -4.395,0.11982 -6.5518,0.34076 -0.1554,0.0153 -0.3145,0.0297 -0.4735,0.0489 -1.0507,0.10851 -2.0755,0.24712 -3.0781,0.41179 l -0.1554,0.0297 c -7.891,1.31426 -15.2827,4.18988 -21.805,8.3536 -11.9162,7.62711 -27.1435,7.29392 -39.2446,-0.0824 -8.731,-5.33563 -18.9379,-8.44715 -29.8516,-8.55949 -7.5249,-0.0786 -14.7315,1.29183 -21.387,3.82295 -4.2582,1.5052 -8.3351,3.46724 -12.0974,5.87855 -1.3688,0.86863 -2.7636,1.62128 -4.2101,2.28401 -10.8101,4.28727 -23.1998,3.11526 -33.3254,-3.16022 -8.8123,-5.4517 -19.1229,-8.63809 -30.1956,-8.75043 -2.5489,-0.0259 -5.0757,0.13103 -7.547,0.43058 v 42.77119 c 0,22.33106 17.9094,40.43101 39.9512,40.43101"
            style={{
              fill: "#5ca8c7",
              fillOpacity: 1,
              fillRule: "nonzero",
              stroke: "none",
              strokeWidth: "0.9527939"
            }}
          />
          <path
            id="path2723"
            d="m 2138.3567,587.24164 98.3742,-57.75215 90.8235,34.40639 c 4.4728,-2.01821 8.8641,-4.12998 13.1778,-6.39156 0.3144,-0.16468 0.6585,-0.34067 0.9729,-0.50918 4.8909,-2.59477 9.7076,-5.35441 14.3875,-8.25621 0.6067,-0.37814 1.2098,-0.75638 1.8165,-1.13827 2.0236,-1.28051 4.0214,-2.58355 6.0229,-3.9165 0.6585,-0.44189 1.2873,-0.89116 1.9459,-1.34052 1.576,-1.0821 3.1298,-2.18289 4.6799,-3.29873 0.9212,-0.68143 1.8683,-1.35912 2.7895,-2.04812 1.2097,-0.89863 2.3935,-1.81222 3.5774,-2.7258 1.6574,-1.28809 3.2889,-2.59113 4.9204,-3.92034 0.7621,-0.64031 1.55,-1.28052 2.3381,-1.93204 1.2097,-1.02593 2.4195,-2.05559 3.6292,-3.10404 0.3959,-0.34824 0.7917,-0.7077 1.1839,-1.05967 2.475,-2.19411 4.9203,-4.44074 7.288,-6.73223 0.2368,-0.23215 0.4736,-0.46431 0.7363,-0.70021 2.7339,-2.68842 5.4457,-5.44049 8.0464,-8.25621 20.5176,-22.00898 35.6672,-45.35475 45.8225,-74.13718 l 0.078,-55.04877 -95.5331,23.14726 -124.0157,29.92078 -112.7618,27.40826 -33.1404,8.05406 -7.1031,1.72614 -25.1716,6.38398 -32.3006,7.57478 v 104.79557 l 117.4158,-1.14949"
            style={{
              fill: "#000000",
              fillOpacity: 1,
              fillRule: "nonzero",
              stroke: "none",
              strokeWidth: "0.9527939"
            }}
          />
          <path
            id="path2725"
            d="m 2238.8285,656.20049 68.2083,40.60699 58.867,-91.58944 c 3.0706,-4.7628 4.31,-10.74247 2.8634,-16.7071 -2.7081,-11.28156 -13.9583,-18.19734 -25.1087,-15.43405 -5.4457,1.34425 -9.8593,4.75158 -12.6191,9.18858 2.4232,-4.46326 3.3037,-9.8101 2.0126,-15.14573 -2.7377,-11.28156 -13.988,-18.19734 -25.1384,-15.4378 -6.452,1.59885 -11.4574,6.09575 -13.9879,11.78336 l -55.0972,92.73519"
            style={{
              fill: "#fffaf5",
              fillOpacity: 1,
              fillRule: "nonzero",
              stroke: "none",
              strokeWidth: "0.9527939"
            }}
          />
          <path
            id="path2727"
            d="m 2243.0867,656.20049 -67.9752,40.60699 -59.089,-91.58944 c -3.052,-4.76654 -4.3062,-10.74247 -2.8782,-16.7071 2.7266,-11.28156 13.9658,-18.19734 25.1272,-15.43779 5.431,1.34426 9.8371,4.75159 12.6154,9.19232 -2.4306,-4.467 -3.3036,-9.8101 -2.0051,-15.14573 2.7303,-11.28539 13.9657,-18.19734 25.1309,-15.4378 6.4557,1.59511 11.4353,6.09575 13.9879,11.77962 l 55.0861,92.73893"
            style={{
              fill: "#fffaf5",
              fillOpacity: 1,
              fillRule: "nonzero",
              stroke: "none",
              strokeWidth: "0.9527939"
            }}
          />
          <path
            id="path2729"
            d="m 2241.1407,554.81973 c 36.4774,0 66.0441,29.92443 66.0441,66.83951 v 76.28277 h -132.0881 v -76.28277 c 0,-36.91508 29.563,-66.83951 66.044,-66.83951"
            style={{
              fill: "#fadcc5",
              fillOpacity: 1,
              fillRule: "nonzero",
              stroke: "none",
              strokeWidth: "0.9527939"
            }}
          />
          <path
            id="path2731"
            d="m 2239.6831,438.20333 c 7.2326,7.0842 12.4119,15.99941 14.9906,25.77577 3.9991,15.16442 16.178,26.95151 30.9835,30.03313 10.3365,2.14915 19.8073,7.23392 27.4358,14.70384 7.1253,7.00186 12.2824,15.79725 14.8869,25.43884 2.4453,9.03493 7.7579,16.82682 14.7278,22.30853 4.5505,-2.43384 9.0231,-4.99113 13.3628,-7.69077 0.603,-0.37824 1.2356,-0.75638 1.8127,-1.142 2.0532,-1.27688 4.051,-2.57992 6.0265,-3.91287 0.6548,-0.44179 1.3133,-0.89489 1.9718,-1.34042 1.5502,-1.0821 3.104,-2.18672 4.68,-3.30247 0.9212,-0.67404 1.8424,-1.35547 2.7635,-2.04438 1.2098,-0.89489 2.3937,-1.80857 3.5775,-2.7259 1.6574,-1.28799 3.2852,-2.59103 4.9167,-3.9165 0.7917,-0.64405 1.5796,-1.28435 2.3418,-1.93587 1.2356,-1.02219 2.4454,-2.0556 3.6293,-3.10022 0.3957,-0.35197 0.7879,-0.71143 1.2097,-1.06714 2.4713,-2.1942 4.8945,-4.437 7.2585,-6.72849 0.2663,-0.23589 0.5031,-0.46805 0.7398,-0.70021 2.7599,-2.68842 5.468,-5.44049 8.0725,-8.25995 20.5175,-22.00898 35.6671,-45.38101 45.8187,-74.16718 l -11.2318,-47.62754 -84.2457,15.75977 -22.7263,5.28319 -101.2636,24.60759 c 2.8412,1.3479 5.8119,3.33995 8.261,5.75125"
            style={{
              fill: "#f53535",
              fillOpacity: 1,
              fillRule: "nonzero",
              stroke: "none",
              strokeWidth: "0.9527939"
            }}
          />
          <path
            id="path2733"
            d="m 2362.145,434.08084 c 4.1584,1.81979 8.472,3.16021 12.8374,3.9652 1.6056,0.29206 3.1298,0.70021 4.6281,1.19444 10.8397,4.24231 19.1747,13.59183 22.4636,25.15051 2.8413,10.03478 8.3128,19.45169 16.3593,27.10507 0.2109,0.19468 0.5291,0.47927 0.7363,0.67021 15.046,-17.65442 25.0162,-34.96435 31.7235,-57.7372 0,0 0.1035,-53.94414 0.078,-55.04877 l -95.5588,23.17352 -22.7263,5.28693 c 2.8671,5.13721 6.6814,10.18825 11.1541,14.4343 5.4975,5.20833 11.7312,9.12484 18.3052,11.80579"
            style={{
              fill: "#f0b83a",
              fillOpacity: 1,
              fillRule: "nonzero",
              stroke: "none",
              strokeWidth: "0.9527939"
            }}
          />
          <path
            id="path2735"
            d="m 2236.2611,521.33815 h 9.3043 c 33.7805,0 61.1533,27.71154 61.1533,61.89334 v 30.59464 h -131.6109 v -30.59464 c 0,-34.1818 27.3728,-61.89334 61.1533,-61.89334"
            style={{
              fill: "#fffaf5",
              fillOpacity: 1,
              fillRule: "nonzero",
              stroke: "none",
              strokeWidth: "0.9527939"
            }}
          />
          <path
            id="path2737"
            d="m 2236.8678,642.13686 h 26.9658 c 0,-8.22995 -6.5888,-14.89862 -14.713,-14.89862 h -17.9612 c -8.1242,0 -14.7167,6.66867 -14.7167,14.89862 h 20.4251"
            style={{
              fill: "#fffaf5",
              fillOpacity: 1,
              fillRule: "nonzero",
              stroke: "none",
              strokeWidth: "0.9527939"
            }}
          />
          <path
            id="path2739"
            d="m 2245.3841,705.2808 61.8007,-21.44737 -0.1554,19.98339 -53.7653,24.67872 -7.88,-23.21474"
            style={{
              fill: "#fffaf5",
              fillOpacity: 1,
              fillRule: "nonzero",
              stroke: "none",
              strokeWidth: "0.9527939"
            }}
          />
          <path
            id="path2741"
            d="m 2236.7272,705.29202 -61.7969,-21.45485 0.1516,19.99087 53.7727,24.67497 7.8726,-23.21099"
            style={{
              fill: "#fffaf5",
              fillOpacity: 1,
              fillRule: "nonzero",
              stroke: "none",
              strokeWidth: "0.9527939"
            }}
          />
          <path
            id="path2743"
            d="m 2192.5881,765.79997 v -11.58484 c 0,-6.45146 5.183,-11.68223 11.5647,-11.68223 6.3559,0 11.5425,5.23077 11.5425,11.68223 v 11.58484 h 14.3875 v -12.13149 c 0,-6.45147 5.1608,-11.68597 11.5389,-11.68597 6.3817,0 11.5425,5.2345 11.5425,11.68597 v 12.13149 h 14.4134 v -12.62581 c 0,-6.45137 5.1609,-11.68597 11.5426,-11.68597 6.352,0 11.5388,5.2346 11.5388,11.68597 v 12.62581 h 16.5258 v -68.99249 h -132.0881 v 68.99249 h 17.4914"
            style={{
              fill: "#f0b83a",
              fillOpacity: 1,
              fillRule: "nonzero",
              stroke: "none",
              strokeWidth: "0.9527939"
            }}
          />
          <path
            id="path2745"
            d="m 2348.9563,606.25518 c 5.749,0 10.4179,-4.7328 10.4179,-10.5477 0,-5.81489 -4.6689,-10.54769 -10.4179,-10.54769 -5.7492,0 -10.4179,4.7328 -10.4179,10.54769 0,5.8149 4.6687,10.5477 10.4179,10.5477 z m 0,-28.10847 c 9.5669,0 17.3508,7.87797 17.3508,17.56077 0,9.68281 -7.7839,17.56078 -17.3508,17.56078 -9.5671,0 -17.3509,-7.87797 -17.3509,-17.56078 0,-9.6828 7.7838,-17.56077 17.3509,-17.56077"
            style={{
              fill: "#000000",
              fillOpacity: 1,
              fillRule: "nonzero",
              stroke: "none",
              strokeWidth: "0.9527939"
            }}
          />
          <path
            id="path2747"
            d="m 2132.5372,606.30014 c 5.7454,0 10.4179,-4.7328 10.4179,-10.55144 0,-5.8149 -4.6725,-10.5477 -10.4179,-10.5477 -5.7712,0 -10.4179,4.7328 -10.4179,10.5477 0,5.81864 4.6467,10.55144 10.4179,10.55144 z m 0,-28.10847 c 9.5634,0 17.3397,7.87422 17.3397,17.55703 0,9.68271 -7.7763,17.56451 -17.3397,17.56451 -9.5855,0 -17.3655,-7.8818 -17.3655,-17.56451 0,-9.68281 7.78,-17.55703 17.3655,-17.55703"
            style={{
              fill: "#000000",
              fillOpacity: 1,
              fillRule: "nonzero",
              stroke: "none",
              strokeWidth: "0.9527939"
            }}
          />
          <path
            id="path2749"
            d="m 2170.3724,584.38471 c 5.7528,0 10.4438,-4.7328 10.4438,-10.5477 0,-5.81864 -4.691,-10.55144 -10.4438,-10.55144 -5.7269,0 -10.4179,4.7328 -10.4179,10.55144 0,5.8149 4.691,10.5477 10.4179,10.5477 z m 0,-28.10848 c 9.578,0 17.3545,7.87797 17.3545,17.56078 0,9.68281 -7.7765,17.56077 -17.3545,17.56077 -9.5522,0 -17.3546,-7.87796 -17.3546,-17.56077 0,-9.68281 7.8024,-17.56078 17.3546,-17.56078"
            style={{
              fill: "#000000",
              fillOpacity: 1,
              fillRule: "nonzero",
              stroke: "none",
              strokeWidth: "0.9527939"
            }}
          />
          <path
            id="path2751"
            d="m 2312.3975,584.70294 c 5.7527,0 10.4289,-4.73653 10.4289,-10.55143 0,-5.81864 -4.6762,-10.5477 -10.4289,-10.5477 -5.7233,0 -10.4032,4.72906 -10.4032,10.5477 0,5.8149 4.6799,10.55143 10.4032,10.55143 z m 0,-28.11221 c 9.5595,0 17.3544,7.87807 17.3544,17.56078 0,9.6828 -7.7949,17.56077 -17.3544,17.56077 -9.5597,0 -17.3545,-7.87797 -17.3545,-17.56077 0,-9.68271 7.7948,-17.56078 17.3545,-17.56078"
            style={{
              fill: "#000000",
              fillOpacity: 1,
              fillRule: "nonzero",
              stroke: "none",
              strokeWidth: "0.9527939"
            }}
          />
          <path
            id="path2753"
            d="m 2020.9445,588.39113 94.6304,-0.78256 c -0.1702,-0.58787 -0.3885,-1.16453 -0.5587,-1.75988 -3.8067,-13.8539 -15.0312,-24.53263 -28.6084,-27.20984 -11.0098,-2.16794 -21.1428,-7.46608 -29.2892,-15.31788 -7.6617,-7.35758 -13.2369,-16.64719 -16.1004,-26.86544 -3.0521,-10.8135 -10.5437,-19.63889 -20.0737,-24.24814 v 96.18374"
            style={{
              fill: "#f53535",
              fillOpacity: 1,
              fillRule: "nonzero",
              stroke: "none",
              strokeWidth: "0.9527939"
            }}
          />
          <path
            id="path2755"
            d="m 2085.5014,467.91066 33.1441,-8.05406 v 271.24492 l -16.5702,19.28318 -16.5739,-19.28318 V 467.91066"
            style={{
              fill: "#fffaf5",
              fillOpacity: 1,
              fillRule: "nonzero",
              stroke: "none",
              strokeWidth: "0.9527939"
            }}
          />
          <path
            id="path2757"
            d="m 2076.3006,519.6607 0.1444,-0.0939 v 0.14599 l 53.1141,9.77636 c -2.1161,-17.86406 -2.5305,-35.17398 -1.4095,-51.54032 l -33.6251,-3.26508 -16.1336,-5.0473 -57.4427,13.95877 v 7.77694 l 55.3524,28.2882"
            style={{
              fill: "#fab582",
              fillOpacity: 1,
              fillRule: "nonzero",
              stroke: "none",
              strokeWidth: "0.9527939"
            }}
          />
          <path
            id="path2759"
            d="m 2086.3264,493.90737 41.2276,7.58963 c -0.048,-2.39635 -0.074,-4.77392 -0.048,-7.13663 l -39.9401,-7.35374 c -1.872,-0.3445 -3.6736,0.91733 -4.0363,2.82319 -0.344,1.90587 0.9212,3.72931 2.7969,4.07755 z m 42.0304,23.93728 c -0.1961,-2.41505 -0.3404,-4.82262 -0.4884,-7.2115 l -43.1254,-7.94545 c -1.8978,-0.3444 -3.6736,0.92116 -4.014,2.82703 -0.3625,1.90204 0.9027,3.72931 2.7747,4.07381 l 44.8531,8.25611"
            style={{
              fill: "#000000",
              fillOpacity: 1,
              fillRule: "nonzero",
              stroke: "none",
              strokeWidth: "0.9527939"
            }}
          />
          <path
            id="path2761"
            d="m 2064.6878,531.2418 h 76.203 v 18.11491 h -76.203 V 531.2418"
            style={{
              fill: "#fffaf5",
              fillOpacity: 1,
              fillRule: "nonzero",
              stroke: "none",
              strokeWidth: "0.9527939"
            }}
          />
          <path
            id="path2763"
            d="m 2102.0679,549.37176 h -16.5776 v 181.74472 l 16.5776,19.28318 v -201.0279"
            style={{
              fill: "#000000",
              fillOpacity: 1,
              fillRule: "nonzero",
              stroke: "none",
              strokeWidth: "0.9527939"
            }}
          />
          <path
            id="path2765"
            d="m 2208.0669,668.88621 c 0,-2.90936 2.3122,-5.26824 5.1979,-5.26824 2.8597,0 5.2015,2.35888 5.2015,5.26824 0,2.91301 -2.3418,5.27198 -5.2015,5.27198 -2.8857,0 -5.1979,-2.35897 -5.1979,-5.27198"
            style={{
              fill: "#000000",
              fillOpacity: 1,
              fillRule: "nonzero",
              stroke: "none",
              strokeWidth: "0.9527939"
            }}
          />
          <path
            id="path2767"
            d="m 2264.6883,668.88621 c 0,-2.90936 2.3196,-5.26824 5.1941,-5.26824 2.8745,0 5.2238,2.35888 5.2238,5.26824 0,2.91301 -2.3493,5.27198 -5.2238,5.27198 -2.8745,0 -5.1941,-2.35897 -5.1941,-5.27198"
            style={{
              fill: "#000000",
              fillOpacity: 1,
              fillRule: "nonzero",
              stroke: "none",
              strokeWidth: "0.9527939"
            }}
          />
          <path
            id="path2769"
            d="m 2202.1957,684.33513 c -4.9758,0 -9.0046,4.08137 -9.0046,9.10989 h 14.6279 c 5.2978,0 9.7742,-3.85286 10.6473,-9.10989 h -16.2706"
            style={{
              fill: "#fffaf5",
              fillOpacity: 1,
              fillRule: "nonzero",
              stroke: "none",
              strokeWidth: "0.9527939"
            }}
          />
          <path
            id="path2771"
            d="m 2277.8475,684.33887 c 4.9832,0 9.0046,4.07763 9.0046,9.10998 h -14.6464 c -5.2607,0 -9.763,-3.85296 -10.6509,-9.10998 h 16.2927"
            style={{
              fill: "#fffaf5",
              fillOpacity: 1,
              fillRule: "nonzero",
              stroke: "none",
              strokeWidth: "0.9527939"
            }}
          />
        </g>
      </g>
    </g>
  </g>
</svg>
