<svg
  xmlns="http://www.w3.org/2000/svg"
  id="svg8"
  version="1.1"
  viewBox="0 0 210 297"
  height="297mm"
  width="210mm"
>
  <g id="layer1">
    <g
      transform="matrix(0.35277777,0,0,0.35277777,-684.46134,-3.8690441)"
      id="surface13909"
    >
      <g
        transform="matrix(2.8346457,0,0,2.8346457,1940.6522,14.073866)"
        id="layer1-3"
      >
        <g
          id="surface13909-6"
          transform="matrix(0.35277777,0,0,0.35277777,-684.46134,-3.8690441)"
        >
          <path
            id="path2433"
            d="M 1940.4708,816.13123 V 47.65205 c 0,-19.971331 16.0195,-36.159983 35.782,-36.159983 h 522.7261 c 19.7624,0 35.7819,16.188652 35.7819,36.159983 v 768.47918 c 0,19.97133 -16.0195,36.16372 -35.7819,36.16372 h -522.7261 c -19.7625,0 -35.782,-16.19239 -35.782,-36.16372"
            style={{
              fill: "#fffaf5",
              fillOpacity: 1,
              fillRule: "nonzero",
              stroke: "none",
              strokeWidth: "0.95187497"
            }}
          />
          <path
            id="path2435"
            d="M 2021.0117,725.22676 V 139.21438 c 0,-22.29254 17.8688,-40.361292 39.9283,-40.361292 h 350.019 c 22.0595,0 39.9468,18.068752 39.9468,40.361292 v 586.01238 c 0,22.28881 -17.8873,40.35756 -39.9468,40.35756 H 2060.94 c -22.0595,0 -39.9283,-18.06875 -39.9283,-40.35756"
            style={{
              fill: "#5ca8c7",
              fillOpacity: 1,
              fillRule: "nonzero",
              stroke: "none",
              strokeWidth: "0.95187497"
            }}
          />
          <path
            id="path2437"
            d="m 2021.0007,139.21812 v 206.93103 c 18.3829,0.14947 36.7695,-8.35412 48.4243,-24.51282 6.9464,-9.61751 10.6193,-20.62546 11.2221,-31.68576 0.8063,-14.23 9.9313,-26.57234 22.8622,-32.22029 9.3764,-4.0817 17.7985,-10.67151 24.2381,-19.59747 6.8612,-9.52038 10.534,-20.40116 11.2072,-31.34558 0.8878,-14.23 9.9608,-26.60602 22.962,-32.17541 9.4763,-4.07434 18.0464,-10.71275 24.571,-19.75086 12.1135,-16.80536 14.2773,-37.86812 7.5825,-56.00414 H 2060.94 c -22.0595,0 -39.9393,18.06875 -39.9393,40.3613"
            style={{
              fill: "#000000",
              fillOpacity: 1,
              fillRule: "nonzero",
              stroke: "none",
              strokeWidth: "0.95187497"
            }}
          />
          <path
            id="path2439"
            d="m 2450.8947,155.46648 c -3.7136,4.26495 -8.1632,7.4757 -13.4931,9.80812 -9.3543,4.0818 -17.7763,10.66788 -24.2233,19.59757 -6.8835,9.51655 -10.5452,20.39743 -11.2036,31.34185 -0.8989,14.23 -9.9793,26.60602 -22.962,32.17914 -9.5021,4.07051 -18.0501,10.71266 -24.571,19.74703 -12.1173,16.80537 -14.281,37.87196 -7.5972,56.00424 h 104.0873 l 0.1294,-47.90427 -0.1665,-120.77368"
            style={{
              fill: "#000000",
              fillOpacity: 1,
              fillRule: "nonzero",
              stroke: "none",
              strokeWidth: "0.95187497"
            }}
          />
          <path
            id="path2441"
            d="m 2284.6125,262.91471 c -4.0835,-12.16292 -7.1275,-30.10086 3.0774,-42.54789 1.5127,-1.8465 2.8665,-3.88362 4.0316,-6.10016 8.2224,-15.56074 3.7396,-35.25918 -10.3232,-45.68773 -8.2927,-6.15625 -18.2534,-8.1149 -27.5152,-6.38054 -2.297,-9.84179 -8.6738,-18.73407 -18.6012,-23.80636 -14.5657,-7.44583 -32.712,-3.6556 -43.124,9.04931 -6.2768,7.63272 -8.8475,16.86144 -8.1521,25.75382 1.3907,17.99774 -5.06,35.70019 -17.0884,49.0555 -3.4584,3.86124 -6.2399,7.15427 -7.4715,9.0493 -10.7081,16.59609 -6.0846,38.82511 10.3418,49.64619 8.8991,5.86094 36.7806,23.3279 45.21,29.67848 20.495,15.45597 49.7819,11.25838 63.5488,-10.06608 6.6393,-10.28274 11.0889,-22.66249 6.066,-37.64384"
            style={{
              fill: "#f0b83a",
              fillOpacity: 1,
              fillRule: "nonzero",
              stroke: "none",
              strokeWidth: "0.95187497"
            }}
          />
          <path
            id="path2443"
            d="m 2451.0612,276.24016 -201.3652,1.59982 c -103.9393,0.83728 -196.3459,63.39392 -228.699,154.81043 v 52.4159 l 429.809,-104.286 0.2552,-104.54015"
            style={{
              fill: "#000000",
              fillOpacity: 1,
              fillRule: "nonzero",
              stroke: "none",
              strokeWidth: "0.95187497"
            }}
          />
          <path
            id="path2445"
            d="m 2182.5558,445.80017 268.3389,-65.04235 0.1665,-104.51766 -145.6875,1.15497 c -8.9141,5.89463 -17.7763,12.54424 -26.4573,19.91525 -15.4498,13.1535 -30.3189,28.602 -43.96,46.11384 -25.7583,33.08368 -43.3533,68.64934 -52.4006,102.37595"
            style={{
              fill: "#5ca8c7",
              fillOpacity: 1,
              fillRule: "nonzero",
              stroke: "none",
              strokeWidth: "0.95187497"
            }}
          />
          <path
            id="path2447"
            d="m 2205.651,281.89921 c -45.9795,8.26446 -87.8941,28.63194 -121.0869,57.96289 l 76.7052,111.10374 137.9792,-33.47983 -93.5975,-135.5868"
            style={{
              fill: "#000000",
              fillOpacity: 1,
              fillRule: "nonzero",
              stroke: "none",
              strokeWidth: "0.95187497"
            }}
          />
          <path
            id="path2449"
            d="m 2306.6794,138.93776 -76.9013,-12.56664 -32.7896,65.46471 c -2.7557,5.49083 -0.5215,12.22273 4.9563,14.89533 6.0918,2.96405 4.224,2.24266 4.224,2.24266 l -8.6034,51.86263 c -1.535,8.48492 4.3461,17.41088 12.8939,17.41088 52.0197,0 100.5662,0 100.5662,0 l -4.3461,-139.30957"
            style={{
              fill: "#fadcc5",
              fillOpacity: 1,
              fillRule: "nonzero",
              stroke: "none",
              strokeWidth: "0.95187497"
            }}
          />
          <path
            id="path2451"
            d="m 2401.5864,200.01045 c -10.009,-7.93539 -22.2446,-21.28333 -20.4358,-37.33734 0.2737,-2.38476 0.2922,-4.83679 0.074,-7.33744 -1.5201,-17.56791 -15.9269,-31.60346 -33.3408,-32.56781 -10.2788,-0.57194 -19.6737,3.27801 -26.4795,9.8417 -7.2571,-6.97477 -17.4101,-10.90701 -28.451,-9.67358 -16.2339,1.80919 -29.3757,14.99628 -31.2399,31.39047 -1.1207,9.85298 1.7015,19.00697 7.0942,26.0715 10.8967,14.30472 15.0615,32.69126 12.2172,50.51705 -0.8322,5.15074 -1.3723,9.44555 -1.3723,11.70696 0,19.81431 15.89,35.87589 35.4898,35.87589 10.6266,0 43.4014,-0.75882 53.9023,-0.0938 25.5363,1.62221 47.7993,-18.05755 47.7993,-43.51606 0,-12.27881 -2.9702,-25.11089 -15.2574,-34.87785"
            style={{
              fill: "#f0b83a",
              fillOpacity: 1,
              fillRule: "nonzero",
              stroke: "none",
              strokeWidth: "0.95187497"
            }}
          />
          <path
            id="path2453"
            d="m 2370.1874,246.40465 c 0,-1.2896 0.2145,-4.26859 1.3242,-11.14997 3.0477,-19.07425 -1.6645,-38.46627 -12.8866,-53.21203 -5.1079,-6.67957 -7.3864,-15.03742 -6.3988,-23.52982 1.2723,-11.28076 8.496,-20.87215 18.3348,-25.51449 -1.8088,-1.78297 -3.8357,-3.34911 -6.0031,-4.71344 -10.3788,6.10017 -17.7986,16.91378 -19.2337,29.42807 -1.1651,10.31269 1.5942,20.46844 7.7971,28.60573 10.0754,13.21703 14.2882,30.64667 11.5438,47.81833 -0.9505,5.97683 -1.4167,9.99127 -1.4167,12.26762 0,12.96661 6.2399,24.47913 15.8271,31.65953 3.2291,-0.50456 6.3472,-1.34557 9.321,-2.49307 -10.7524,-5.22558 -18.2091,-16.31573 -18.2091,-29.16646 m -45.2249,-0.39999 c 0,-1.2895 0.233,-4.27231 1.3279,-11.15369 3.044,-19.06679 -1.6497,-38.46245 -12.8903,-53.2083 -5.1081,-6.67957 -7.368,-15.04106 -6.3988,-23.52972 1.6865,-14.77944 13.5337,-26.68831 28.1772,-28.31799 l -0.5549,-5.10586 c -4.9822,1.68575 -9.4837,4.45547 -13.212,8.0438 -1.3241,-1.25965 -2.7222,-2.41834 -4.2276,-3.46873 -9.2322,6.27586 -15.7384,16.42041 -17.0663,28.04882 -1.165,10.30532 1.5942,20.46853 7.7971,28.60209 10.0754,13.22077 14.2698,30.65031 11.5439,47.82198 -0.9691,5.97682 -1.4167,9.98752 -1.4167,12.2676 0,13.42267 6.669,25.29403 16.8517,32.40343 6.5764,-0.0785 13.6041,-0.14947 19.7884,-0.14947 -16.5816,-1.2074 -29.7196,-15.19435 -29.7196,-32.25396"
            style={{
              fill: "#000000",
              fillOpacity: 1,
              fillRule: "nonzero",
              stroke: "none",
              strokeWidth: "0.95187497"
            }}
          />
          <path
            id="path2455"
            d="m 2373.2166,135.68586 h -0.056 c -6.1474,-7.44211 -15.2057,-12.36109 -25.285,-12.918 -0.662,-0.0373 -1.3241,-0.0565 -2.0084,-0.0565 -9.4836,0 -18.0906,3.76402 -24.4747,9.89404 -6.3509,-6.11509 -14.9579,-9.89777 -24.4268,-9.89777 -1.3278,0 -2.6521,0.0746 -4.0168,0.2242 -8.1596,0.9121 -15.5275,4.69478 -21.0868,10.3165 l -42.0883,-6.8739 -4.3757,8.73534 c -1.9715,-0.33644 -3.9651,-0.50456 -5.9366,-0.50456 -1.6126,0 -3.1921,0.10832 -4.7714,0.32141 L 2201.726,98.856399 h 187.9534 l -16.4635,36.829041"
            style={{
              fill: "#216e9c",
              fillOpacity: 1,
              fillRule: "nonzero",
              stroke: "none",
              strokeWidth: "0.95187497"
            }}
          />
          <path
            id="path2457"
            d="m 2225.1102,135.68586 h -10.1382 l -0.2701,-0.75881 c 1.572,-0.2131 3.1624,-0.32142 4.7529,-0.32142 1.9825,0 3.98,0.16813 5.9403,0.50457 l -0.2849,0.57566"
            style={{
              fill: "#577a2e",
              fillOpacity: 1,
              fillRule: "nonzero",
              stroke: "none",
              strokeWidth: "0.95187497"
            }}
          />
          <path
            id="path2459"
            d="m 2269.6657,135.68213 h -44.537 l 0.2738,-0.57567 4.3904,-8.73534 42.0773,6.8739 c -0.7768,0.77748 -1.498,1.59227 -2.2045,2.43711"
            style={{
              fill: "#5c9199",
              fillOpacity: 1,
              fillRule: "nonzero",
              stroke: "none",
              strokeWidth: "0.95187497"
            }}
          />
          <path
            id="path2461"
            d="m 2373.1649,135.68213 h -7.2386 c 1.4795,-1.02043 3.0294,-1.91751 4.6532,-2.68379 -1.8199,-1.78297 -3.8505,-3.34911 -6.0105,-4.71344 -3.4066,1.99597 -6.4729,4.49661 -9.1471,7.39723 h -35.3049 c 4.3498,-3.17343 9.5022,-5.26662 15.0652,-5.88717 l -0.5512,-5.10586 c -4.9933,1.68575 -9.4874,4.45547 -13.2305,8.0438 -1.3019,-1.25965 -2.7111,-2.41834 -4.2091,-3.46873 -2.6928,1.83159 -5.1525,3.98832 -7.3089,6.41796 h -40.2278 c 0.7139,-0.84484 1.4424,-1.65963 2.2118,-2.43711 5.563,-5.62171 12.9272,-9.4044 21.0941,-10.31277 1.3537,-0.1532 2.6927,-0.2242 4.0094,-0.2242 9.469,0 18.0835,3.77895 24.4305,9.89777 6.3842,-6.13375 14.9949,-9.89777 24.4823,-9.89777 0.6768,0 1.3352,0.0182 2.0158,0.0564 10.057,0.55691 19.1152,5.4759 25.2663,12.91801"
            style={{
              fill: "#577a2e",
              fillOpacity: 1,
              fillRule: "nonzero",
              stroke: "none",
              strokeWidth: "0.95187497"
            }}
          />
          <path
            id="path2463"
            d="m 2365.9374,135.68213 h -10.5081 c 2.652,-2.90062 5.7368,-5.40126 9.1397,-7.39723 2.1526,1.36433 4.1869,2.92673 6.0031,4.71344 -1.6238,0.76628 -3.1736,1.66336 -4.6347,2.68379 m -45.8204,0 h -10.2419 c 2.1712,-2.42964 4.6309,-4.59011 7.32,-6.41796 1.4978,1.05039 2.9035,2.20908 4.2054,3.46873 3.7431,-3.58833 8.2298,-6.35805 13.2194,-8.0438 l 0.5697,5.10586 c -5.5593,0.61672 -10.708,2.71374 -15.0726,5.88717"
            style={{
              fill: "#000000",
              fillOpacity: 1,
              fillRule: "nonzero",
              stroke: "none",
              strokeWidth: "0.95187497"
            }}
          />
          <path
            id="path2465"
            d="m 2208.2439,117.06384 6.7243,18.62202 h 158.2596 l 8.3185,-18.62202 h -173.3024"
            style={{
              fill: "#000000",
              fillOpacity: 1,
              fillRule: "nonzero",
              stroke: "none",
              strokeWidth: "0.95187497"
            }}
          />
          <path
            id="path2467"
            d="m 2259.3647,285.73806 c -3.7839,-1.87274 -7.32,-4.18266 -10.5674,-6.85525 -3.3031,0.0526 -6.5875,0.17195 -9.8536,0.34763 4.9267,5.15074 10.6746,9.43808 17.0291,12.63017 l -0.052,0.10842 c -1.376,2.95659 -2.0528,6.27585 -1.9308,9.50909 -1.7828,0.67651 -3.6211,1.23343 -5.3188,1.80909 -3.8726,1.30826 -7.2496,3.94717 -9.4615,7.30375 -1.1614,-0.63911 -2.3561,-1.24473 -3.5879,-1.77541 -9.0878,-3.89493 -17.0143,-10.22303 -22.9249,-18.29678 -1.7829,-2.45576 -3.3548,-5.04242 -4.7308,-7.72621 -2.3561,0.4149 -4.7122,0.8523 -7.0683,1.33075 1.7495,3.68919 3.8207,7.22145 6.2287,10.55562 6.643,9.07926 15.5497,16.19239 25.799,20.58059 1.2835,0.557 2.5151,1.19611 3.732,1.89139 -0.3033,2.11932 -0.1628,4.33959 0.5363,6.58235 5.6925,18.33791 14.0479,35.57685 25.4218,50.99176 1.3722,1.84641 2.8923,3.33409 4.5162,4.51154 l 0.1072,0.15702 c -4.7307,3.9621 -7.4456,10.17815 -5.0339,16.64462 3.6395,9.81185 8.729,19.0443 17.0327,26.30326 0,0 97.4777,-23.12984 97.3704,-23.52981 -1.2688,-4.24247 -2.0381,-8.46991 -2.2859,-12.6563 -0.1072,-1.69704 -0.3402,-3.45753 -0.6954,-5.2405 l -0.056,-0.18688 c -3.0699,-12.0546 -11.4255,-21.98606 -22.8696,-27.24895 l -0.1591,-0.0709 c -9.6943,-3.85368 -18.1055,-10.36503 -24.2824,-18.83503 -1.1244,-1.52499 -2.197,-3.19208 -3.3732,-5.2404 l -0.2146,-0.39625 c -0.4808,-0.85221 -0.9469,-1.7157 -1.3907,-2.5903 -3.3954,-6.8851 -5.3226,-14.08426 -5.7849,-21.52255 -0.6251,-10.01747 -5.1783,-19.41068 -12.3206,-26.4154 l -37.9717,0.30276 c -2.2155,2.06708 -4.1795,4.45557 -5.8403,7.02721"
            style={{
              fill: "#000000",
              fillOpacity: 1,
              fillRule: "nonzero",
              stroke: "none",
              strokeWidth: "0.95187497"
            }}
          />
          <path
            id="path2469"
            d="m 2281.4019,376.27623 c -57.3902,0 -105.9404,-32.3063 -122.1521,-76.80911 -10.6746,3.42011 -22.7105,0.79623 -33.6811,0.4261 -14.869,-0.50084 -28.9836,-0.61299 -42.9242,-5.2404 -0.8398,5.09094 -1.2946,10.28655 -1.2946,15.57556 0,60.40364 57.2681,109.36948 127.9,109.36948 43.5346,0 81.9538,-18.59953 105.0489,-46.99225 -10.5008,2.38102 -21.5231,3.67062 -32.8969,3.67062"
            style={{
              fill: "#f0b83a",
              fillOpacity: 1,
              fillRule: "nonzero",
              stroke: "none",
              strokeWidth: "0.95187497"
            }}
          />
          <path
            id="path2471"
            d="m 2158.928,301.51926 c -0.6103,9.39694 -18.3237,15.86714 -39.5511,14.45046 -21.2457,-1.41284 -37.9642,-10.17814 -37.3354,-19.57508 0.6104,-9.39693 18.3201,-15.86713 39.5474,-14.45429 21.231,1.41295 37.9494,10.17815 37.3391,19.57891"
            style={{
              fill: "#000000",
              fillOpacity: 1,
              fillRule: "nonzero",
              stroke: "none",
              strokeWidth: "0.95187497"
            }}
          />
          <path
            id="path2473"
            d="m 2093.6964,389.88196 0.1665,0.0181 -0.066,-0.12333 42.9724,-32.99776 c 6.1252,16.86144 13.4746,32.46697 21.7968,46.51754 l -28.5028,18.28559 -37.0284,46.00168 -72.0373,17.48188 72.6994,-95.18425"
            style={{
              fill: "#fadcc5",
              fillOpacity: 1,
              fillRule: "nonzero",
              stroke: "none",
              strokeWidth: "0.95187497"
            }}
          />
          <path
            id="path2475"
            d="m 2113.4849,413.1314 c 1.154,1.54001 3.3251,1.83904 4.8416,0.67278 l 32.3237,-24.81185 c -1.0727,-2.09692 -2.1268,-4.21997 -3.1477,-6.37297 l -33.3593,25.60797 c -1.5165,1.1699 -1.8272,3.36778 -0.6583,4.90407 z m -8.8587,-17.57538 c -1.5312,1.16616 -1.8271,3.36404 -0.6768,4.90406 1.1688,1.54002 3.3289,1.83904 4.8602,0.67279 l 34.8905,-26.79664 c -0.9543,-2.18658 -1.8938,-4.40321 -2.7999,-6.64215 l -36.274,27.86194"
            style={{
              fill: "#000000",
              fillOpacity: 1,
              fillRule: "nonzero",
              stroke: "none",
              strokeWidth: "0.95187497"
            }}
          />
          <path
            id="path2477"
            d="m 1999.8695,28.59273 v 2.500639 l -4.9416,1.173624 c -0.4328,0.07464 -1.5979,0.519591 -1.5979,2.500639 v 42.562912 c 0,6.690761 -3.499,13.452523 -8.4405,17.638913 -2.7039,2.280076 -5.6111,3.749092 -9.3875,3.749092 -4.2869,0 -6.1844,-2.57164 -6.1844,-4.993813 0,-2.721106 2.8444,-6.0329 6.9796,-3.827558 0.3699,1.693216 1.816,2.575373 3.4954,2.575373 1.4609,0 3.1217,-0.590593 4.505,-2.721106 1.5239,-2.351173 1.7569,-5.513404 1.7569,-7.498184 V 34.767632 c 0,-1.472653 -0.6657,-2.351077 -1.6163,-2.500639 l -6.3878,-1.173624 V 28.59273 h 21.8191"
            style={{
              fill: "#000000",
              fillOpacity: 1,
              fillRule: "nonzero",
              stroke: "none",
              strokeWidth: "0.95187497"
            }}
          />
          <path
            id="path2479"
            d="m 2011.7721,148.80941 c -0.2995,-14.05805 -31.1215,-40.12208 -31.1215,-40.12208 -0.078,0 -30.8847,26.06403 -31.1807,40.12208 l -0.033,0.20936 c 0,8.03634 6.4507,14.55515 14.3993,14.55515 4.261,0 13.6929,0 16.4558,0 0.2812,0 0.5142,0 0.6547,0 1.4241,0 11.8546,0 16.4264,0 7.9819,0 14.4288,-6.51881 14.4288,-14.55515 l -0.029,-0.20936"
            style={{
              fill: "#000000",
              fillOpacity: 1,
              fillRule: "nonzero",
              stroke: "none",
              strokeWidth: "0.95187497"
            }}
          />
          <path
            id="path2481"
            d="m 1980.6322,167.36406 c -4.8454,0 -8.7624,3.90612 -8.8697,8.76156 h 17.7061 c -0.093,-4.85544 -4.0095,-8.76156 -8.8364,-8.76156"
            style={{
              fill: "#000000",
              fillOpacity: 1,
              fillRule: "nonzero",
              stroke: "none",
              strokeWidth: "0.95187497"
            }}
          />
          <path
            id="path2483"
            d="m 2475.3436,835.19428 v -2.49691 l 4.938,-1.17735 c 0.429,-0.067 1.6052,-0.5084 1.6052,-2.49691 V 786.4602 c 0,-6.68703 3.488,-13.44879 8.4295,-17.63892 2.7001,-2.28007 5.611,-3.75282 9.3764,-3.75282 4.309,0 6.1917,2.57547 6.1917,5.00128 0,2.71747 -2.8333,6.02543 -6.9759,3.82383 -0.3698,-1.69322 -1.8272,-2.57537 -3.5027,-2.57537 -1.4536,0 -3.1144,0.58686 -4.494,2.7211 -1.5498,2.35117 -1.7532,5.51341 -1.7532,7.49818 v 47.48563 c 0,1.47266 0.651,2.35481 1.583,2.49691 l 6.4174,1.17735 v 2.49691 h -21.8154"
            style={{
              fill: "#000000",
              fillOpacity: 1,
              fillRule: "nonzero",
              stroke: "none",
              strokeWidth: "0.95187497"
            }}
          />
          <path
            id="path2485"
            d="m 2463.4372,714.97761 c 0.2996,14.06177 31.1143,40.12207 31.1143,40.12207 0.078,0 30.8921,-26.0603 31.1731,-40.12207 l 0.037,-0.20564 c 0,-8.04006 -6.4544,-14.55887 -14.392,-14.55887 -4.2609,0 -13.7003,0 -16.4595,0 -0.2811,0 -0.5252,0 -0.6584,0 -1.4056,0 -11.8435,0 -16.4226,0 -7.9746,0 -14.4326,6.51881 -14.4326,14.55887 l 0.041,0.20564"
            style={{
              fill: "#000000",
              fillOpacity: 1,
              fillRule: "nonzero",
              stroke: "none",
              strokeWidth: "0.95187497"
            }}
          />
          <path
            id="path2487"
            d="m 2494.5772,696.42668 c 4.8418,0 8.7551,-3.90611 8.866,-8.7653 h -17.6986 c 0.074,4.85919 4.0058,8.7653 8.8326,8.7653"
            style={{
              fill: "#000000",
              fillOpacity: 1,
              fillRule: "nonzero",
              stroke: "none",
              strokeWidth: "0.95187497"
            }}
          />
          <path
            id="path2489"
            d="m 2235.4298,175.37427 c 0,2.90809 -2.3264,5.2629 -5.2005,5.2629 -2.8702,0 -5.2115,-2.35481 -5.2115,-5.2629 0,-2.90425 2.3413,-5.25915 5.2115,-5.25915 2.8741,0 5.2005,2.3549 5.2005,5.25915"
            style={{
              fill: "#000000",
              fillOpacity: 1,
              fillRule: "nonzero",
              stroke: "none",
              strokeWidth: "0.95187497"
            }}
          />
          <path
            id="path2491"
            d="m 2218.1788,234.71643 c 4.9638,0 8.9917,-4.07061 8.9917,-9.09427 h -23.761 l -1.5054,9.09427 h 16.2747"
            style={{
              fill: "#fffaf5",
              fillOpacity: 1,
              fillRule: "nonzero",
              stroke: "none",
              strokeWidth: "0.95187497"
            }}
          />
          <path
            id="path2493"
            d="m 2232.3155,162.28805 c 7.0054,0 12.6831,-4.07052 12.6831,-9.09418 h -20.6577 c -7.4346,0 -13.7742,3.84631 -15.0022,9.09418 h 22.9768"
            style={{
              fill: "#f0b83a",
              fillOpacity: 1,
              fillRule: "nonzero",
              stroke: "none",
              strokeWidth: "0.95187497"
            }}
          />
          <path
            id="path2495"
            d="M 2450.9058,725.06609 V 518.13506 c -18.3792,-0.14956 -36.7621,8.3503 -48.4244,24.51273 -6.9388,9.61377 -10.6191,20.62546 -11.2405,31.68203 -0.7878,14.23373 -9.9054,26.57234 -22.8696,32.22401 -9.3542,4.0817 -17.7948,10.67152 -24.2196,19.59757 -6.865,9.51655 -10.5268,20.40117 -11.2221,31.34558 -0.8803,14.22627 -9.9608,26.60603 -22.9399,32.1754 -9.502,4.07425 -18.0536,10.71267 -24.5708,19.74704 -12.121,16.8091 -14.281,37.87186 -7.5973,56.00788 h 133.156 c 22.0594,0 39.9282,-18.07248 39.9282,-40.36121"
            style={{
              fill: "#000000",
              fillOpacity: 1,
              fillRule: "nonzero",
              stroke: "none",
              strokeWidth: "0.95187497"
            }}
          />
          <path
            id="path2497"
            d="m 2021.0191,708.81763 c 3.7099,-4.26485 8.1411,-7.47942 13.4894,-9.80811 9.3505,-4.08171 17.7875,-10.67161 24.2307,-19.59757 6.865,-9.52028 10.5267,-20.40117 11.2147,-31.34559 0.8655,-14.22999 9.9572,-26.60601 22.9399,-32.17913 9.4984,-4.07051 18.05,-10.71266 24.5747,-19.74703 12.1319,-16.80537 14.2735,-37.86813 7.6009,-56.00424 h -104.1021 l -0.1294,47.90426 0.1812,120.77741"
            style={{
              fill: "#000000",
              fillOpacity: 1,
              fillRule: "nonzero",
              stroke: "none",
              strokeWidth: "0.95187497"
            }}
          />
          <path
            id="path2499"
            d="m 2187.2866,601.36194 c 4.1018,12.16302 7.1312,30.10087 -3.0663,42.55172 -1.5092,1.84651 -2.8555,3.8799 -4.0317,6.10016 -8.2187,15.55691 -3.7506,35.25908 10.3418,45.68774 8.289,6.15241 18.2424,8.11106 27.493,6.38044 2.3154,9.83806 8.6773,18.73416 18.5937,23.80262 14.5807,7.44956 32.7194,3.6556 43.1463,-9.04931 6.2583,-7.62899 8.8327,-16.86144 8.1484,-25.75008 -1.4019,-18.00147 5.0488,-35.7002 17.0698,-49.05923 3.4695,-3.86114 6.2583,-7.15428 7.4827,-9.04557 10.7079,-16.5961 6.0808,-38.82128 -10.3381,-49.6461 -8.8845,-5.86094 -36.7659,-23.33163 -45.1953,-29.67858 -20.5209,-15.45597 -49.8078,-11.25838 -63.5636,10.06236 -6.643,10.28656 -11.0926,22.66631 -6.0807,37.64383"
            style={{
              fill: "#f0b83a",
              fillOpacity: 1,
              fillRule: "nonzero",
              stroke: "none",
              strokeWidth: "0.95187497"
            }}
          />
          <path
            id="path2501"
            d="m 2020.8453,588.04022 201.3541,-1.59972 c 103.954,-0.83728 196.3754,-63.39392 228.7064,-154.81052 v -52.41207 l -429.7868,104.28216 -0.2737,104.54015"
            style={{
              fill: "#000000",
              fillOpacity: 1,
              fillRule: "nonzero",
              stroke: "none",
              strokeWidth: "0.95187497"
            }}
          />
          <path
            id="path2503"
            d="m 2289.3579,418.48022 -268.3499,65.04234 -0.1554,104.51766 145.6727,-1.1587 c 8.9362,-5.8908 17.7837,-12.54051 26.4611,-19.91152 15.4645,-13.15349 30.3225,-28.60199 43.9674,-46.11383 25.7693,-33.08369 43.3645,-68.64934 52.4041,-102.37595"
            style={{
              fill: "#5ca8c7",
              fillOpacity: 1,
              fillRule: "nonzero",
              stroke: "none",
              strokeWidth: "0.95187497"
            }}
          />
          <path
            id="path2505"
            d="m 2266.2591,582.38118 c 45.9796,-8.26436 87.8903,-28.63195 121.0721,-57.9628 l -76.6868,-111.1001 -137.9903,33.47619 93.605,135.58671"
            style={{
              fill: "#000000",
              fillOpacity: 1,
              fillRule: "nonzero",
              stroke: "none",
              strokeWidth: "0.95187497"
            }}
          />
          <path
            id="path2507"
            d="m 2165.216,725.34637 76.9123,12.5629 32.786,-65.46462 c 2.7592,-5.49092 0.5326,-12.22283 -4.9489,-14.89159 -6.1067,-2.96415 -4.2278,-2.24276 -4.2278,-2.24276 l 8.5885,-51.86263 c 1.5536,-8.48492 -4.346,-17.41461 -12.8828,-17.41461 -52.0122,0 -100.5586,0 -100.5586,0 l 4.3313,139.31331"
            style={{
              fill: "#fadcc5",
              fillOpacity: 1,
              fillRule: "nonzero",
              stroke: "none",
              strokeWidth: "0.95187497"
            }}
          />
          <path
            id="path2509"
            d="m 2070.3312,664.27367 c 10.0052,7.93549 22.2296,21.28333 20.4284,37.33734 -0.27,2.38103 -0.3033,4.8368 -0.085,7.33743 1.5314,17.56792 15.927,31.59974 33.3557,32.56792 10.2714,0.57184 19.6663,-3.28185 26.4721,-9.8418 7.257,6.97113 17.4102,10.90701 28.4547,9.67357 16.2339,-1.80909 29.3682,-14.99627 31.2362,-31.39419 1.1281,-9.84926 -1.7015,-19.00324 -7.0906,-26.0715 -10.8929,-14.30473 -15.0688,-32.69126 -12.2245,-50.51332 0.8248,-5.15075 1.3834,-9.44929 1.3834,-11.7106 0,-19.81067 -15.8973,-35.87215 -35.4971,-35.87215 -10.6267,0 -43.409,0.75498 -53.8987,0.0899 -25.5436,-1.62221 -47.8067,18.06129 -47.8067,43.51971 0,12.2789 2.9666,25.10715 15.2723,34.87794"
            style={{
              fill: "#f0b83a",
              fillOpacity: 1,
              fillRule: "nonzero",
              stroke: "none",
              strokeWidth: "0.95187497"
            }}
          />
          <path
            id="path2511"
            d="m 2101.7375,617.87575 c 0,1.28959 -0.2293,4.26867 -1.3278,11.15005 -3.0553,19.07425 1.6459,38.46618 12.8865,53.21193 5.097,6.67958 7.3717,15.04116 6.3914,23.52982 -1.2796,11.28086 -8.4997,20.87215 -18.3459,25.51459 1.8272,1.78288 3.8356,3.34912 6.0106,4.71335 10.375,-6.10017 17.7985,-16.91368 19.2263,-29.42808 1.1762,-10.31268 -1.5942,-20.46843 -7.7897,-28.60199 -10.0939,-13.22076 -14.2921,-30.65031 -11.555,-47.82207 0.9654,-5.97683 1.4277,-9.98753 1.4277,-12.2676 0,-12.96662 -6.2397,-24.47915 -15.8381,-31.65955 -3.2217,0.50457 -6.3434,1.34558 -9.3135,2.49317 10.7596,5.22175 18.2275,16.31564 18.2275,29.16638 m 45.2102,0.40371 c 0,1.28586 -0.2293,4.26858 -1.3278,11.14995 -3.0553,19.06679 1.6458,38.46255 12.8865,53.20457 5.097,6.68704 7.3717,15.04489 6.4063,23.53355 -1.6905,14.77944 -13.5302,26.68822 -28.1922,28.31789 l 0.566,5.10586 c 4.997,-1.68575 9.4984,-4.45546 13.2157,-8.0438 1.3131,1.25965 2.7223,2.41835 4.2018,3.46873 9.2469,-6.27585 15.7568,-16.42041 17.0847,-28.04509 1.1762,-10.31267 -1.5942,-20.46843 -7.7896,-28.60572 -10.0755,-13.22077 -14.2921,-30.6504 -11.5365,-47.82207 0.9469,-5.9731 1.4092,-9.98753 1.4092,-12.26387 0,-13.42631 -6.6911,-25.29776 -16.8664,-32.40716 -6.558,0.0823 -13.6005,0.14956 -19.7737,0.14956 16.5853,1.2073 29.716,15.19435 29.716,32.2576"
            style={{
              fill: "#000000",
              fillOpacity: 1,
              fillRule: "nonzero",
              stroke: "none",
              strokeWidth: "0.95187497"
            }}
          />
          <path
            id="path2513"
            d="m 2270.1724,765.4273 h -187.9571 l 16.4596,-36.82894 h 0.07 c 6.14,7.44201 15.202,12.361 25.2812,12.918 0.6547,0.0374 1.3241,0.0565 1.9974,0.0565 9.4762,0 18.1092,-3.76401 24.4747,-9.89786 6.362,6.11882 14.9616,9.89786 24.4378,9.89786 1.3278,0 2.6521,-0.0708 4.0095,-0.22429 8.1706,-0.90828 15.5497,-4.69105 21.1052,-10.31278 l 42.0699,6.87391 4.3831,-8.73908 c 1.9603,0.34018 3.9576,0.5084 5.9366,0.5084 1.5979,0 3.1809,-0.10842 4.7639,-0.32151 l 12.9679,36.07022"
            style={{
              fill: "#216e9c",
              fillOpacity: 1,
              fillRule: "nonzero",
              stroke: "none",
              strokeWidth: "0.95187497"
            }}
          />
          <path
            id="path2515"
            d="m 2252.4479,729.67486 c -1.9863,0 -3.9724,-0.1645 -5.9402,-0.50467 l 0.2884,-0.57183 h 10.1533 l 0.2588,0.75871 c -1.5756,0.2131 -3.1698,0.31779 -4.7603,0.31779"
            style={{
              fill: "#577a2e",
              fillOpacity: 1,
              fillRule: "nonzero",
              stroke: "none",
              strokeWidth: "0.95187497"
            }}
          />
          <path
            id="path2517"
            d="m 2242.1319,737.90927 -42.0772,-6.87391 c 0.7693,-0.7812 1.5018,-1.59226 2.1823,-2.437 h 44.5518 l -0.2885,0.57183 -4.3684,8.73908"
            style={{
              fill: "#5c9199",
              fillOpacity: 1,
              fillRule: "nonzero",
              stroke: "none",
              strokeWidth: "0.95187497"
            }}
          />
          <path
            id="path2519"
            d="m 2174.94,741.57243 c -9.4836,0 -18.0758,-3.77905 -24.4341,-9.89787 -6.3804,6.13385 -15.0059,9.89787 -24.4859,9.89787 -0.6547,0 -1.3278,-0.0182 -1.9973,-0.0565 -10.0717,-0.557 -19.1339,-5.47599 -25.2775,-12.918 h 7.2348 c -1.4758,1.02043 -3.0218,1.91751 -4.6494,2.68379 1.8309,1.78287 3.843,3.34911 6.0254,4.71335 3.3917,-1.99598 6.4617,-4.49661 9.1137,-7.39714 h 35.3086 c -4.3461,3.17343 -9.4985,5.27035 -15.0541,5.88707 l 0.5734,5.10587 c 4.9822,-1.68949 9.4799,-4.45548 13.2083,-8.04754 1.3057,1.26338 2.7186,2.42208 4.2092,3.47245 2.6854,-1.82785 5.1523,-3.98831 7.3199,-6.41785 h 40.2094 c -0.6879,0.84474 -1.4241,1.65954 -2.1971,2.437 -5.5556,5.62173 -12.9383,9.4045 -21.0978,10.31279 -1.3575,0.14946 -2.6854,0.22429 -4.0095,0.22429"
            style={{
              fill: "#577a2e",
              fillOpacity: 1,
              fillRule: "nonzero",
              stroke: "none",
              strokeWidth: "0.95187497"
            }}
          />
          <path
            id="path2521"
            d="m 2137.2828,739.59128 -0.5623,-5.10586 c 5.5593,-0.61671 10.7154,-2.71364 15.0652,-5.88706 h 10.253 c -2.1676,2.42954 -4.6308,4.58627 -7.3236,6.41785 -1.4906,-1.05038 -2.8962,-2.20908 -4.2166,-3.46873 -3.721,3.58834 -8.2187,6.35433 -13.2157,8.0438 m -29.9268,-3.59579 c -2.186,-1.36423 -4.2019,-2.92674 -6.0217,-4.71335 1.6202,-0.76628 3.1773,-1.66336 4.6457,-2.68378 h 10.5008 c -2.6594,2.90051 -5.7368,5.40115 -9.1248,7.39713"
            style={{
              fill: "#000000",
              fillOpacity: 1,
              fillRule: "nonzero",
              stroke: "none",
              strokeWidth: "0.95187497"
            }}
          />
          <path
            id="path2523"
            d="m 2263.6589,747.22028 -6.728,-18.62192 h -158.2448 l -8.3223,18.62192 h 173.2951"
            style={{
              fill: "#000000",
              fillOpacity: 1,
              fillRule: "nonzero",
              stroke: "none",
              strokeWidth: "0.95187497"
            }}
          />
          <path
            id="path2525"
            d="m 2212.5603,578.54243 c 3.769,1.87263 7.3124,4.18265 10.5637,6.85515 3.303,-0.0565 6.5727,-0.17195 9.8572,-0.34763 -4.9379,-5.15448 -10.7005,-9.43799 -17.0292,-12.63018 l 0.048,-0.10841 c 1.3796,-2.9566 2.0492,-6.27585 1.927,-9.50909 1.7902,-0.67652 3.6138,-1.23716 5.3188,-1.8091 3.8541,-1.30825 7.2423,-3.94716 9.4615,-7.30374 1.1541,0.6392 2.3562,1.24472 3.5805,1.77178 9.0989,3.89856 17.0291,10.22675 22.9324,18.29677 1.7901,2.45949 3.3548,5.04233 4.7123,7.72985 2.3745,-0.41491 4.7306,-0.85221 7.0719,-1.33438 -1.7199,-3.68556 -3.8023,-7.21782 -6.2287,-10.55574 -6.6245,-9.07551 -15.5534,-16.18865 -25.7731,-20.57685 -1.3056,-0.55318 -2.5447,-1.19611 -3.7506,-1.89511 0.3293,-2.11559 0.1739,-4.33959 -0.514,-6.58235 -5.6962,-18.33409 -14.0739,-35.57685 -25.4476,-50.98794 -1.3575,-1.84651 -2.8888,-3.33419 -4.5051,-4.5079 l -0.1222,-0.15694 c 4.7308,-3.96965 7.4494,-10.18196 5.0416,-16.64844 -3.6471,-9.81184 -8.7403,-19.04429 -17.0329,-26.30325 0,0 -97.4628,23.12983 -97.3592,23.52981 1.2723,4.24247 2.0305,8.47 2.2858,12.65257 0.1036,1.69704 0.344,3.46125 0.6879,5.24422 l 0.052,0.18689 c 3.081,12.05086 11.4255,21.98233 22.8842,27.24895 l 0.1702,0.067 c 9.6871,3.85741 18.0648,10.36876 24.2602,18.83502 1.1171,1.52873 2.1861,3.19583 3.3733,5.24796 l 0.222,0.39243 c 0.4808,0.8522 0.9469,1.7157 1.3759,2.5904 3.4067,6.88136 5.3336,14.08416 5.7997,21.52244 0.6362,10.01375 5.1783,19.41069 12.3169,26.41541 l 37.9717,-0.30276 c 2.2192,-2.0708 4.1611,-4.45547 5.8477,-7.02711"
            style={{
              fill: "#000000",
              fillOpacity: 1,
              fillRule: "nonzero",
              stroke: "none",
              strokeWidth: "0.95187497"
            }}
          />
          <path
            id="path2527"
            d="m 2190.5266,488.00425 c 57.3866,0 105.9256,32.30621 122.141,76.80902 10.6748,-3.42011 22.7106,-0.79614 33.6886,-0.4261 14.8543,0.50083 28.9872,0.60925 42.9095,5.2405 0.8433,-5.09104 1.3094,-10.28656 1.3094,-15.57567 0,-60.40364 -57.2756,-109.36948 -127.9186,-109.36948 -43.516,0 -81.939,18.59954 -105.0453,46.99226 10.512,-2.38476 21.527,-3.67053 32.9154,-3.67053"
            style={{
              fill: "#f0b83a",
              fillOpacity: 1,
              fillRule: "nonzero",
              stroke: "none",
              strokeWidth: "0.95187497"
            }}
          />
          <path
            id="path2529"
            d="m 2312.9747,562.76122 c 0.625,-9.39694 18.3311,-15.86724 39.5695,-14.45429 21.2199,1.41668 37.9383,10.18188 37.3281,19.57882 -0.6103,9.39703 -18.3164,15.86722 -39.5547,14.45428 -21.2347,-1.41667 -37.9346,-10.17814 -37.3429,-19.57881"
            style={{
              fill: "#000000",
              fillOpacity: 1,
              fillRule: "nonzero",
              stroke: "none",
              strokeWidth: "0.95187497"
            }}
          />
          <path
            id="path2531"
            d="m 2378.2064,474.39843 -0.1665,-0.0191 0.074,0.12333 -42.9872,32.99775 c -6.0993,-16.86143 -13.4747,-32.46322 -21.7895,-46.51381 l 28.525,-18.28931 37.0025,-46.00168 72.0411,-17.47816 -72.6994,95.18063"
            style={{
              fill: "#fadcc5",
              fillOpacity: 1,
              fillRule: "nonzero",
              stroke: "none",
              strokeWidth: "0.95187497"
            }}
          />
          <path
            id="path2533"
            d="m 2358.4364,451.14526 c -1.1577,-1.53993 -3.329,-1.83895 -4.8602,-0.66906 l -32.3014,24.81185 c 1.0689,2.09693 2.1194,4.22007 3.1513,6.37307 l 33.3519,-25.61181 c 1.5313,-1.16615 1.8161,-3.36404 0.6584,-4.90405 z m 8.8697,17.57537 c 1.5127,-1.16616 1.8161,-3.36403 0.6583,-4.90032 -1.1577,-1.54365 -3.3326,-1.83895 -4.8639,-0.67279 l -34.8832,26.79663 c 0.9469,2.18668 1.8901,4.40322 2.7963,6.64215 l 36.2925,-27.86567"
            style={{
              fill: "#000000",
              fillOpacity: 1,
              fillRule: "nonzero",
              stroke: "none",
              strokeWidth: "0.95187497"
            }}
          />
          <path
            id="path2535"
            d="m 2236.4766,688.90238 c 0,-2.90436 2.3339,-5.25916 5.2189,-5.25916 2.8629,0 5.2006,2.3548 5.2006,5.25916 0,2.90808 -2.3377,5.25915 -5.2006,5.25915 -2.885,0 -5.2189,-2.35107 -5.2189,-5.25915"
            style={{
              fill: "#000000",
              fillOpacity: 1,
              fillRule: "nonzero",
              stroke: "none",
              strokeWidth: "0.95187497"
            }}
          />
          <path
            id="path2537"
            d="m 2253.7462,629.56405 c -4.9674,0 -9.0103,4.07051 -9.0103,9.09418 h 23.7684 l 1.5128,-9.09418 h -16.2709"
            style={{
              fill: "#fffaf5",
              fillOpacity: 1,
              fillRule: "nonzero",
              stroke: "none",
              strokeWidth: "0.95187497"
            }}
          />
          <path
            id="path2539"
            d="m 2239.5947,701.99233 c -6.9982,0 -12.6758,4.07052 -12.6758,9.09418 h 20.6503 c 7.4272,0 13.7595,-3.84621 14.9949,-9.09418 h -22.9694"
            style={{
              fill: "#f0b83a",
              fillOpacity: 1,
              fillRule: "nonzero",
              stroke: "none",
              strokeWidth: "0.95187497"
            }}
          />
        </g>
      </g>
    </g>
  </g>
</svg>
