<svg
  xmlns="http://www.w3.org/2000/svg"
  id="svg8"
  version="1.1"
  viewBox="0 0 50 45"
  height="45mm"
  width="50mm"
>
  <g transform="translate(0,-252)" id="layer1">
    <g
      transform="matrix(0.35277777,0,0,0.35277777,247.7004,7.9742124)"
      id="surface4860"
    >
      <path
        style={{
          fill: "#231e21",
          fillOpacity: 1,
          fillRule: "nonzero",
          stroke: "none",
          strokeWidth: "0.97466916"
        }}
        d="m -598.25242,800.80463 c -9.41845,0 -18.83691,-3.19565 -26.0269,-9.58695 l -7.31919,-6.50979 -7.31515,6.50979 c -14.37193,12.78261 -37.67786,12.78261 -52.04978,0 -14.37193,-12.7862 -14.37193,-33.51126 0,-46.29388 l 59.36493,-52.80008 59.36896,52.80008 c 14.37193,12.78262 14.37193,33.50768 0,46.29388 -7.18595,6.3913 -16.60441,9.58695 -26.02287,9.58695"
        id="path30"
      />
      <path
        style={{
          fill: "#ffffff",
          fillOpacity: 1,
          fillRule: "nonzero",
          stroke: "none",
          strokeWidth: "0.97466916"
        }}
        d="m -598.25242,793.53004 c -7.32726,0 -14.65451,-2.48471 -20.2418,-7.45772 l -13.10429,-11.65157 -13.10025,11.65157 c -11.17861,9.94243 -29.30096,9.94243 -40.47957,0 -11.18265,-9.94244 -11.18265,-26.06073 0,-36.00316 l 53.57982,-47.6619 53.5879,47.6619 c 11.17861,9.94243 11.17861,26.06072 0,36.00316 -5.59132,4.97301 -12.91859,7.45772 -20.24181,7.45772"
        id="path32"
      />
      <path
        style={{
          fill: "#231e21",
          fillOpacity: 1,
          fillRule: "nonzero",
          stroke: "none",
          strokeWidth: "0.97466916"
        }}
        d="m -598.25242,786.25544 c -5.23203,0 -10.46405,-1.77377 -14.4567,-5.32489 l -18.88939,-16.79693 -18.88131,16.79693 c -7.9853,7.10224 -20.93215,7.10224 -28.91745,0 -7.98529,-7.10225 -7.98529,-18.61738 0,-25.71962 l 47.79876,-42.51296 47.8028,42.51296 c 7.9853,7.10224 7.9853,18.61737 0,25.71962 -3.99266,3.55112 -9.22468,5.32489 -14.45671,5.32489"
        id="path34"
      />
      <path
        style={{
          fill: "#ffffff",
          fillOpacity: 1,
          fillRule: "nonzero",
          stroke: "none",
          strokeWidth: "0.97466916"
        }}
        d="m -598.25242,778.98084 c -3.14083,0 -6.28166,-1.06282 -8.67563,-3.19566 l -24.67046,-21.93868 -24.66642,21.93868 c -4.79199,4.26207 -12.55928,4.26207 -17.34723,0 -4.79199,-4.25847 -4.79199,-11.17041 0,-15.42889 l 42.01365,-37.37478 42.02174,37.37478 c 4.78794,4.25848 4.78794,11.17042 0,15.42889 -2.39802,2.13284 -5.53481,3.19566 -8.67565,3.19566"
        id="path36"
      />
      <path
        style={{
          fill: "#231e21",
          fillOpacity: 1,
          fillRule: "nonzero",
          stroke: "none",
          strokeWidth: "0.97466916"
        }}
        d="m -598.25242,771.70624 c -1.04963,0 -2.09523,-0.35546 -2.89457,-1.06282 l -30.45152,-27.08406 -30.44749,27.08406 c -1.59867,1.41829 -4.18642,1.41829 -5.78509,0 -1.59464,-1.42189 -1.59464,-3.72348 0,-5.14536 l 36.23258,-32.22583 36.23663,32.22583 c 1.59867,1.42188 1.59867,3.72347 0,5.14536 -0.79934,0.70736 -1.84494,1.06282 -2.89054,1.06282"
        id="path38"
      />
      <path
        style={{
          fill: "#231e21",
          fillOpacity: 1,
          fillRule: "nonzero",
          stroke: "none",
          strokeWidth: "0.97466916"
        }}
        d="m -661.16995,821.40403 29.57144,-26.30489 29.57549,26.30489 z m 0,0"
        id="path40"
      />
      <path
        style={{
          fill: "#ffffff",
          fillOpacity: 1,
          fillRule: "nonzero",
          stroke: "none",
          strokeWidth: "0.97466916"
        }}
        d="m -641.50545,814.15816 9.90694,-8.81139 9.91097,8.81139 z m 0,0"
        id="path42"
      />
    </g>
  </g>
</svg>
