<svg
  xmlns="http://www.w3.org/2000/svg"
  id="svg8"
  version="1.1"
  viewBox="0 0 50 45"
  height="45mm"
  width="50mm"
>
  <g transform="translate(0,-252)" id="layer1">
    <g
      transform="matrix(0.35277777,0,0,0.35277777,247.7004,7.9742124)"
      id="surface4860"
    >
      <path
        style={{
          fill: "#231e21",
          fillOpacity: 1,
          fillRule: "nonzero",
          stroke: "none",
          strokeWidth: "0.9561891"
        }}
        d="m -659.49362,820.54573 28.61719,-26.16463 28.61718,26.16463 z m 0,0"
        id="path44"
      />
      <path
        style={{
          fill: "#ffffff",
          fillOpacity: 1,
          fillRule: "nonzero",
          stroke: "none",
          strokeWidth: "0.9561891"
        }}
        d="m -640.46237,813.3385 9.58594,-8.76441 9.58593,8.76441 z m 0,0"
        id="path46"
      />
      <path
        style={{
          fill: "#231e21",
          fillOpacity: 1,
          fillRule: "nonzero",
          stroke: "none",
          strokeWidth: "0.9561891"
        }}
        d="m -600.5405,738.80181 c -0.66015,0 -1.3164,0.0214 -1.96484,0.0571 3.24219,-4.71792 5.12891,-10.29656 5.12891,-16.27878 0,-16.91451 -15,-30.6254 -33.5,-30.6254 -18.5,0 -33.5,13.71089 -33.5,30.6254 0,5.98222 1.88672,11.56086 5.1289,16.27878 -0.64843,-0.0358 -1.30468,-0.0571 -1.96484,-0.0571 -18.5,0 -33.49609,13.71089 -33.49609,30.62539 0,16.91451 14.99609,30.62897 33.49609,30.62897 13.41797,0 24.98828,-7.21437 30.33594,-17.63236 5.34765,10.41799 16.91797,17.63236 30.33593,17.63236 18.5,0 33.49609,-13.71446 33.49609,-30.62897 0,-16.9145 -14.99609,-30.62539 -33.49609,-30.62539"
        id="path48"
      />
      <path
        style={{
          fill: "#ffffff",
          fillOpacity: 1,
          fillRule: "nonzero",
          stroke: "none",
          strokeWidth: "0.9561891"
        }}
        d="m -635.15768,769.4272 c 0,13.15732 -11.66407,23.82174 -26.05469,23.82174 -14.38672,0 -26.05469,-10.66442 -26.05469,-23.82174 0,-13.15373 11.66797,-23.82173 26.05469,-23.82173 14.39062,0 26.05469,10.668 26.05469,23.82173"
        id="path50"
      />
      <path
        style={{
          fill: "#231e21",
          fillOpacity: 1,
          fillRule: "nonzero",
          stroke: "none",
          strokeWidth: "0.9561891"
        }}
        d="m -642.603,769.4272 c 0,9.40013 -8.33203,17.01809 -18.60937,17.01809 -10.27734,0 -18.60938,-7.61796 -18.60938,-17.01809 0,-9.39654 8.33204,-17.0145 18.60938,-17.0145 10.27734,0 18.60937,7.61796 18.60937,17.0145"
        id="path52"
      />
      <path
        style={{
          fill: "#ffffff",
          fillOpacity: 1,
          fillRule: "nonzero",
          stroke: "none",
          strokeWidth: "0.9561891"
        }}
        d="m -650.0444,769.4272 c 0,5.63936 -5,10.21085 -11.16797,10.21085 -6.16406,0 -11.16406,-4.57149 -11.16406,-10.21085 0,-5.63578 5,-10.20727 11.16406,-10.20727 6.16797,0 11.16797,4.57149 11.16797,10.20727"
        id="path54"
      />
      <path
        style={{
          fill: "#231e21",
          fillOpacity: 1,
          fillRule: "nonzero",
          stroke: "none",
          strokeWidth: "0.9561891"
        }}
        d="m -656.81784,769.4272 c 0,2.22146 -1.96484,4.01792 -4.39453,4.01792 -2.42578,0 -4.39453,-1.79646 -4.39453,-4.01792 0,-2.21788 1.96875,-4.01433 4.39453,-4.01433 2.42969,0 4.39453,1.79645 4.39453,4.01433"
        id="path56"
      />
      <path
        style={{
          fill: "#ffffff",
          fillOpacity: 1,
          fillRule: "nonzero",
          stroke: "none",
          strokeWidth: "0.9561891"
        }}
        d="m -626.59518,769.4272 c 0,13.15732 11.66406,23.82174 26.05468,23.82174 14.38672,0 26.05078,-10.66442 26.05078,-23.82174 0,-13.15373 -11.66406,-23.82173 -26.05078,-23.82173 -14.39062,0 -26.05468,10.668 -26.05468,23.82173"
        id="path58"
      />
      <path
        style={{
          fill: "#231e21",
          fillOpacity: 1,
          fillRule: "nonzero",
          stroke: "none",
          strokeWidth: "0.9561891"
        }}
        d="m -619.15378,769.4272 c 0,9.40013 8.33203,17.01809 18.61328,17.01809 10.27735,0 18.60938,-7.61796 18.60938,-17.01809 0,-9.39654 -8.33203,-17.0145 -18.60938,-17.0145 -10.28125,0 -18.61328,7.61796 -18.61328,17.0145"
        id="path60"
      />
      <path
        style={{
          fill: "#ffffff",
          fillOpacity: 1,
          fillRule: "nonzero",
          stroke: "none",
          strokeWidth: "0.9561891"
        }}
        d="m -611.70846,769.4272 c 0,5.63936 5,10.21085 11.16796,10.21085 6.16407,0 11.16407,-4.57149 11.16407,-10.21085 0,-5.63578 -5,-10.20727 -11.16407,-10.20727 -6.16796,0 -11.16796,4.57149 -11.16796,10.20727"
        id="path62"
      />
      <path
        style={{
          fill: "#231e21",
          fillOpacity: 1,
          fillRule: "nonzero",
          stroke: "none",
          strokeWidth: "0.9561891"
        }}
        d="m -604.93503,769.4272 c 0,2.22146 1.96485,4.01792 4.39453,4.01792 2.42579,0 4.39063,-1.79646 4.39063,-4.01792 0,-2.21788 -1.96484,-4.01433 -4.39063,-4.01433 -2.42968,0 -4.39453,1.79645 -4.39453,4.01433"
        id="path64"
      />
      <path
        style={{
          fill: "#ffffff",
          fillOpacity: 1,
          fillRule: "nonzero",
          stroke: "none",
          strokeWidth: "0.9561891"
        }}
        d="m -656.93112,722.58017 c 0,13.15732 11.66406,23.82174 26.05469,23.82174 14.39062,0 26.05468,-10.66442 26.05468,-23.82174 0,-13.15731 -11.66406,-23.82174 -26.05468,-23.82174 -14.39063,0 -26.05469,10.66443 -26.05469,23.82174"
        id="path66"
      />
      <path
        style={{
          fill: "#231e21",
          fillOpacity: 1,
          fillRule: "nonzero",
          stroke: "none",
          strokeWidth: "0.9561891"
        }}
        d="m -649.48581,722.58017 c 0,9.39655 8.33203,17.01451 18.60938,17.01451 10.27734,0 18.60937,-7.61796 18.60937,-17.01451 0,-9.39655 -8.33203,-17.01451 -18.60937,-17.01451 -10.27735,0 -18.60938,7.61796 -18.60938,17.01451"
        id="path68"
      />
      <path
        style={{
          fill: "#ffffff",
          fillOpacity: 1,
          fillRule: "nonzero",
          stroke: "none",
          strokeWidth: "0.9561891"
        }}
        d="m -642.0405,722.58017 c 0,5.63936 4.9961,10.21085 11.16407,10.21085 6.16797,0 11.16797,-4.57149 11.16797,-10.21085 0,-5.63936 -5,-10.20728 -11.16797,-10.20728 -6.16797,0 -11.16407,4.56792 -11.16407,10.20728"
        id="path70"
      />
      <path
        style={{
          fill: "#231e21",
          fillOpacity: 1,
          fillRule: "nonzero",
          stroke: "none",
          strokeWidth: "0.9561891"
        }}
        d="m -635.27096,722.58017 c 0,2.21788 1.96875,4.0179 4.39453,4.0179 2.42578,0 4.39453,-1.80002 4.39453,-4.0179 0,-2.21789 -1.96875,-4.01791 -4.39453,-4.01791 -2.42578,0 -4.39453,1.80002 -4.39453,4.01791"
        id="path72"
      />
    </g>
  </g>
</svg>
